<?xml version="1.0" encoding="UTF-8"?>
<svg version="1.1" xmlns="http://www.w3.org/2000/svg" width="512" height="512">
<path d="M0 0 C0.97485352 0.19867676 1.94970703 0.39735352 2.95410156 0.60205078 C50.99902273 10.65218706 95.19347595 32.24879574 130.49975586 66.59692383 C132.56359956 68.52709628 134.79256034 70.23782168 137 72 C138.09809154 73.15466769 139.1624861 74.34249631 140.1875 75.5625 C142.1512211 77.87251171 144.12644722 80.13313755 146.21484375 82.33203125 C158.83899451 95.65184023 168.89858599 111.12108226 178 127 C178.42909668 127.74830078 178.85819336 128.49660156 179.30029297 129.26757812 C192.33570917 152.30783667 201.01067422 177.53589856 206.3125 203.4375 C206.45985596 204.15639404 206.60721191 204.87528809 206.7590332 205.6159668 C209.70099807 221.09445915 210.37237337 236.40602687 210.3125 252.125 C210.30976578 253.6153476 210.30976578 253.6153476 210.30697632 255.13580322 C210.26219978 269.629692 209.80110213 283.74136097 207 298 C206.83902832 298.89557617 206.67805664 299.79115234 206.51220703 300.71386719 C197.98873859 347.82629503 175.71630422 392.70020344 142.41015625 427.18359375 C138.48120002 431.77480516 135.42819536 436.17547551 135.4375 442.4375 C135.41558594 443.30246094 135.39367187 444.16742188 135.37109375 445.05859375 C136.44631958 450.08744501 138.76400951 454.30376096 142.9074707 457.44702148 C145.04789301 458.71826471 147.21861408 459.87170816 149.4375 461 C157.74629071 465.5431698 162.8626177 469.83338738 166 479 C167.12101607 487.34271959 165.89507612 494.105181 161 501 C156.40297811 506.04729966 151.97672306 508.80849751 145.04442024 509.25447559 C143.45545095 509.26674754 141.86637398 509.26803814 140.27737427 509.26069641 C139.39911574 509.26452196 138.52085722 509.26834751 137.6159848 509.27228898 C134.67247718 509.2826085 131.72916502 509.27862855 128.78564453 509.2746582 C126.67446716 509.27900577 124.56329137 509.28418907 122.45211792 509.29014587 C116.71136562 509.30355571 110.9706791 509.30411135 105.22991419 509.30158257 C100.42520109 509.30051223 95.62050126 509.30539889 90.81579101 509.310188 C79.45937794 509.32129426 68.10299791 509.32171709 56.74658203 509.31567383 C45.07883522 509.30965937 33.41120977 509.32187788 21.74348366 509.3432439 C11.69893733 509.3609531 1.65442927 509.36684588 -8.39013207 509.36360615 C-14.37622947 509.3618048 -20.3622407 509.36431177 -26.34832382 509.37832069 C-31.99710378 509.39104328 -37.64569793 509.38882086 -43.29447556 509.37590981 C-45.34889289 509.37357388 -47.40332388 509.37616901 -49.45772552 509.38453293 C-67.98969013 509.45443278 -86.42502615 507.88966316 -104.4375 503.3125 C-105.46061279 503.05831299 -106.48372559 502.80412598 -107.5378418 502.54223633 C-139.87017385 494.27163519 -170.04184252 480.74502886 -197 461 C-197.57298828 460.58395508 -198.14597656 460.16791016 -198.73632812 459.73925781 C-206.29793619 454.2148153 -213.23654952 448.19792517 -220.02734375 441.76171875 C-222.01731577 439.88131657 -224.05585344 438.10349377 -226.17578125 436.37109375 C-228.45888878 434.45429393 -230.34823289 432.64711124 -232.25 430.375 C-234.19125892 428.08617944 -236.14372424 425.84865787 -238.2109375 423.671875 C-277.03573295 382.71108756 -301.74598921 322.39346714 -302.23828125 265.91015625 C-302.25290405 264.50888992 -302.25290405 264.50888992 -302.26782227 263.07931519 C-302.43676995 242.70105633 -302.26274756 223.01683337 -298 203 C-297.81276367 202.07622559 -297.62552734 201.15245117 -297.43261719 200.20068359 C-290.78925087 167.87307634 -277.61724105 134.70124477 -258 108 C-257.56751953 107.40203613 -257.13503906 106.80407227 -256.68945312 106.18798828 C-242.17588427 86.15468422 -225.80459009 66.99992622 -206 52 C-205.47470703 51.5978125 -204.94941406 51.195625 -204.40820312 50.78125 C-192.21389678 41.44698517 -192.21389678 41.44698517 -184 42 C-182.515 42.495 -182.515 42.495 -181 43 C-172.05754097 39.42328991 -172.05754097 39.42328991 -165.91796875 32.63671875 C-165.60056251 30.34751333 -165.60056251 30.34751333 -165.51342773 28.16918945 C-165 26 -165 26 -163.48779297 24.61914062 C-158.61105412 21.80788623 -153.7032649 19.33741921 -148.5 17.1875 C-147.68958252 16.85129639 -146.87916504 16.51509277 -146.04418945 16.16870117 C-128.51093651 9.04255977 -110.59534429 3.52311278 -92 0 C-91.19062988 -0.16371094 -90.38125977 -0.32742188 -89.54736328 -0.49609375 C-61.56085724 -5.96569558 -27.90578161 -5.84477511 0 0 Z " fill="#4B3D4E" transform="translate(302,3)"/>
<path d="M0 0 C0.97485352 0.19867676 1.94970703 0.39735352 2.95410156 0.60205078 C50.99902273 10.65218706 95.19347595 32.24879574 130.49975586 66.59692383 C132.56359956 68.52709628 134.79256034 70.23782168 137 72 C138.09809154 73.15466769 139.1624861 74.34249631 140.1875 75.5625 C142.1512211 77.87251171 144.12644722 80.13313755 146.21484375 82.33203125 C158.83899451 95.65184023 168.89858599 111.12108226 178 127 C178.42909668 127.74830078 178.85819336 128.49660156 179.30029297 129.26757812 C192.33570917 152.30783667 201.01067422 177.53589856 206.3125 203.4375 C206.45985596 204.15639404 206.60721191 204.87528809 206.7590332 205.6159668 C209.70099807 221.09445915 210.37237337 236.40602687 210.3125 252.125 C210.30976578 253.6153476 210.30976578 253.6153476 210.30697632 255.13580322 C210.26219978 269.629692 209.80110213 283.74136097 207 298 C206.83902832 298.89557617 206.67805664 299.79115234 206.51220703 300.71386719 C197.98873859 347.82629503 175.71630422 392.70020344 142.41015625 427.18359375 C138.48120002 431.77480516 135.42819536 436.17547551 135.4375 442.4375 C135.41558594 443.30246094 135.39367187 444.16742188 135.37109375 445.05859375 C136.44631958 450.08744501 138.76400951 454.30376096 142.9074707 457.44702148 C145.04789301 458.71826471 147.21861408 459.87170816 149.4375 461 C157.74629071 465.5431698 162.8626177 469.83338738 166 479 C167.12101607 487.34271959 165.89507612 494.105181 161 501 C156.40297811 506.04729966 151.97672306 508.80849751 145.04442024 509.25447559 C143.45545095 509.26674754 141.86637398 509.26803814 140.27737427 509.26069641 C139.39911574 509.26452196 138.52085722 509.26834751 137.6159848 509.27228898 C134.67247718 509.2826085 131.72916502 509.27862855 128.78564453 509.2746582 C126.67446716 509.27900577 124.56329137 509.28418907 122.45211792 509.29014587 C116.71136562 509.30355571 110.9706791 509.30411135 105.22991419 509.30158257 C100.42520109 509.30051223 95.62050126 509.30539889 90.81579101 509.310188 C79.45937794 509.32129426 68.10299791 509.32171709 56.74658203 509.31567383 C45.07883522 509.30965937 33.41120977 509.32187788 21.74348366 509.3432439 C11.69893733 509.3609531 1.65442927 509.36684588 -8.39013207 509.36360615 C-14.37622947 509.3618048 -20.3622407 509.36431177 -26.34832382 509.37832069 C-31.99710378 509.39104328 -37.64569793 509.38882086 -43.29447556 509.37590981 C-45.34889289 509.37357388 -47.40332388 509.37616901 -49.45772552 509.38453293 C-67.98969013 509.45443278 -86.42502615 507.88966316 -104.4375 503.3125 C-105.46061279 503.05831299 -106.48372559 502.80412598 -107.5378418 502.54223633 C-139.87017385 494.27163519 -170.04184252 480.74502886 -197 461 C-197.57298828 460.58395508 -198.14597656 460.16791016 -198.73632812 459.73925781 C-206.29793619 454.2148153 -213.23654952 448.19792517 -220.02734375 441.76171875 C-222.01731577 439.88131657 -224.05585344 438.10349377 -226.17578125 436.37109375 C-228.45888878 434.45429393 -230.34823289 432.64711124 -232.25 430.375 C-234.19125892 428.08617944 -236.14372424 425.84865787 -238.2109375 423.671875 C-277.03573295 382.71108756 -301.74598921 322.39346714 -302.23828125 265.91015625 C-302.25290405 264.50888992 -302.25290405 264.50888992 -302.26782227 263.07931519 C-302.43676995 242.70105633 -302.26274756 223.01683337 -298 203 C-297.81276367 202.07622559 -297.62552734 201.15245117 -297.43261719 200.20068359 C-290.78925087 167.87307634 -277.61724105 134.70124477 -258 108 C-257.56751953 107.40203613 -257.13503906 106.80407227 -256.68945312 106.18798828 C-242.17588427 86.15468422 -225.80459009 66.99992622 -206 52 C-205.47470703 51.5978125 -204.94941406 51.195625 -204.40820312 50.78125 C-192.21389678 41.44698517 -192.21389678 41.44698517 -184 42 C-182.515 42.495 -182.515 42.495 -181 43 C-172.05754097 39.42328991 -172.05754097 39.42328991 -165.91796875 32.63671875 C-165.60056251 30.34751333 -165.60056251 30.34751333 -165.51342773 28.16918945 C-165 26 -165 26 -163.48779297 24.61914062 C-158.61105412 21.80788623 -153.7032649 19.33741921 -148.5 17.1875 C-147.68958252 16.85129639 -146.87916504 16.51509277 -146.04418945 16.16870117 C-128.51093651 9.04255977 -110.59534429 3.52311278 -92 0 C-91.19062988 -0.16371094 -90.38125977 -0.32742188 -89.54736328 -0.49609375 C-61.56085724 -5.96569558 -27.90578161 -5.84477511 0 0 Z M-83 68 C-83.72668884 68.14973267 -84.45337769 68.29946533 -85.2020874 68.45373535 C-117.55851645 75.13092652 -146.10051862 90.50496716 -171 112 C-171.9796875 112.83789062 -172.959375 113.67578125 -173.96875 114.5390625 C-179.09708903 119.03408255 -183.68175245 123.72881909 -188 129 C-188.43038574 129.51272461 -188.86077148 130.02544922 -189.30419922 130.55371094 C-197.11322838 139.86742605 -203.89206118 149.49423982 -210 160 C-210.35545898 160.60247559 -210.71091797 161.20495117 -211.07714844 161.82568359 C-219.76740337 176.69703535 -226.01281408 193.0969838 -229.546875 209.94921875 C-230.01500481 212.0679097 -230.565962 214.15360751 -231.125 216.25 C-242.04866319 260.34594925 -231.42526186 310.77981955 -208.38818359 349.20214844 C-201.59661067 360.2125299 -193.80996619 370.2970106 -185.0078125 379.78125 C-183.60223709 381.33449287 -182.25562832 382.9422066 -180.95703125 384.5859375 C-178.67398395 387.40215153 -176.19210191 389.59030132 -173.4375 391.9296875 C-171.6677797 393.43281532 -169.92053067 394.96252681 -168.1875 396.5078125 C-145.22835503 416.80497441 -116.90637863 430.60921785 -87 437 C-85.73671875 437.28617187 -84.4734375 437.57234375 -83.171875 437.8671875 C-70.00070261 440.71281116 -57.23219041 441.08054373 -43.8125 441.125 C-42.62438721 441.12975342 -41.43627441 441.13450684 -40.2121582 441.1394043 C7.72033516 441.0492617 53.77850236 419.63955894 87.75732422 386.27441406 C100.48926857 374.21328119 100.48926857 374.21328119 108.125 359.125 C108.23350372 356.02431428 108.23350372 356.02431428 106.75 353.72265625 C106 351 106 351 107.5546875 347.73828125 C108.3099199 346.58423314 109.08416446 345.44244787 109.875 344.3125 C112.82873407 340.47087976 112.82873407 340.47087976 114 336 C115.0725 336.061875 116.145 336.12375 117.25 336.1875 C121.28767543 335.98561623 122.15258756 335.66172762 125 333 C126.19119383 330.91926502 126.19119383 330.91926502 127 328.53515625 C127.32774414 327.65939941 127.65548828 326.78364258 127.99316406 325.88134766 C128.32541992 324.95112793 128.65767578 324.0209082 129 323.0625 C129.35030273 322.1039209 129.70060547 321.1453418 130.06152344 320.15771484 C130.74926466 318.26722766 131.43142215 316.3746979 132.10742188 314.47998047 C132.79818276 312.56073839 133.52466472 310.65433215 134.265625 308.75390625 C150.28276077 265.97798413 143.29322999 214.19012437 125.16577148 173.44140625 C117.09686808 155.88192591 106.03006435 140.31492989 92.953125 126.140625 C91.37097392 124.40658742 89.89053119 122.65300618 88.4375 120.8125 C85.24862931 117.13303381 81.74362309 114.10432745 78 111 C77.48147461 110.56381348 76.96294922 110.12762695 76.42871094 109.67822266 C58.21728643 94.41230712 38.23752219 83.27716892 16 75 C14.28490234 74.33677734 14.28490234 74.33677734 12.53515625 73.66015625 C-3.29201039 67.9064128 -21.21973282 64.90016513 -38.05859375 64.796875 C-38.80601334 64.79117493 -39.55343292 64.78547485 -40.32350159 64.77960205 C-41.89916601 64.7702162 -43.4748495 64.76364384 -45.05053711 64.75976562 C-47.40060082 64.75015096 -49.74975341 64.71910466 -52.09960938 64.6875 C-62.7152238 64.61364304 -72.62241162 65.81345928 -83 68 Z " fill="#F96175" transform="translate(302,3)"/>
<path d="M0 0 C36.86497827 -2.26474269 75.51537195 15.88971056 103.09375 39.33984375 C135.25749437 68.78004525 155.55990703 103.93321739 163 147 C163.26695679 148.40620605 163.26695679 148.40620605 163.53930664 149.84082031 C164.03332122 153.22849849 164.12953553 156.451966 164.1328125 159.875 C164.13410156 161.19113281 164.13539063 162.50726563 164.13671875 163.86328125 C164.13462402 164.54471191 164.1325293 165.22614258 164.13037109 165.92822266 C164.12508672 167.96654966 164.13029495 170.00464915 164.13671875 172.04296875 C164.14439107 183.80606233 163.89436823 195.5936934 161.375 207.125 C161.20750244 207.9077832 161.04000488 208.69056641 160.86743164 209.49707031 C158.43458071 220.22329643 154.77886308 230.79734266 150.3125 240.84765625 C148.77055544 244.55107667 148.47522892 247.02673322 149 251 C150.85420839 253.44098818 150.85420839 253.44098818 153 255 C152.34 255 151.68 255 151 255 C150.73058594 255.71671875 150.46117187 256.4334375 150.18359375 257.171875 C148.99295766 260.01682723 147.62563543 262.59306751 146.0625 265.25 C145.55847656 266.12140625 145.05445313 266.9928125 144.53515625 267.890625 C143 270 143 270 140 271 C138.32357422 271.09474609 138.32357422 271.09474609 136.61328125 271.19140625 C132.05463903 272.21155646 130.662675 274.25843046 128.1875 277.9375 C102.68755158 312.87270442 63.04204308 334.96949739 21 343 C19.68 343 18.36 343 17 343 C15.17922426 338.94115946 13.36984136 334.87733838 11.5625 330.8125 C11.04623047 329.66201172 10.52996094 328.51152344 9.99804688 327.32617188 C9.50498047 326.21435547 9.01191406 325.10253906 8.50390625 323.95703125 C7.82050171 322.42526245 7.82050171 322.42526245 7.12329102 320.86254883 C6.08781611 318.22378698 5.45062936 315.79121173 5 313 C5.79664063 312.443125 6.59328125 311.88625 7.4140625 311.3125 C18.06593127 303.64108113 25.72278671 295.35864947 28 282 C28.09347038 280.16822078 28.13889542 278.33362496 28.14717102 276.4994812 C28.15432632 275.40625046 28.16148163 274.31301971 28.16885376 273.18666077 C28.17154266 271.99697189 28.17423157 270.80728302 28.17700195 269.58154297 C28.18357315 268.32076431 28.19014435 267.05998566 28.19691467 265.76100159 C28.2178864 261.58807635 28.22831223 257.41515104 28.23828125 253.2421875 C28.24233171 251.80082302 28.24644872 250.35945873 28.25063133 248.91809464 C28.26966976 242.14297905 28.28390227 235.36787425 28.2922433 228.59273708 C28.3020038 220.79517902 28.32829768 212.99790572 28.36874419 205.20044792 C28.39899876 199.15860925 28.41372108 193.11685178 28.41702431 187.07493889 C28.41936461 183.47345382 28.42819029 179.87227341 28.45348549 176.27087021 C28.48130389 172.24534218 28.47690672 168.22044255 28.4699707 164.19482422 C28.48278076 163.01728073 28.49559082 161.83973724 28.50878906 160.62651062 C28.43895743 149.46210853 25.28187594 139.61043991 18 131 C11.06446266 124.4310344 2.99032516 120.50458218 -6.60742188 120.59960938 C-7.88456055 120.64311523 -7.88456055 120.64311523 -9.1875 120.6875 C-10.05052734 120.69716797 -10.91355469 120.70683594 -11.80273438 120.71679688 C-16.2944594 120.79584024 -20.58212298 121.11064014 -25 122 C-25.02703562 119.41659616 -25.04685611 116.83347692 -25.0625 114.25 C-25.07087891 113.52039063 -25.07925781 112.79078125 -25.08789062 112.0390625 C-25.10391684 108.51329442 -24.95292713 105.38965084 -24 102 C-24.64066406 101.5875 -25.28132813 101.175 -25.94140625 100.75 C-35.61330834 94.29245583 -43.42622835 86.70176055 -46 75 C-46.83623615 65.72296914 -47.34267132 55.98904123 -42 48 C-41.57589844 47.319375 -41.15179688 46.63875 -40.71484375 45.9375 C-35.01755708 37.55820372 -26.81970153 31.5924012 -17 29 C-14.22888775 28.72603266 -11.79137299 28.79323163 -9 29 C-8.86078125 27.58654297 -8.86078125 27.58654297 -8.71875 26.14453125 C-7.99795796 21.10533195 -6.22697174 16.45574527 -4.5 11.6875 C-4.17902344 10.78193359 -3.85804688 9.87636719 -3.52734375 8.94335938 C-1.18244724 2.36489448 -1.18244724 2.36489448 0 0 Z " fill="#584B5D" transform="translate(265,84)"/>
<path d="M0 0 C2.74909351 0.63003319 5.47062233 1.32836206 8.19482422 2.05859375 C9.70133545 2.45908936 9.70133545 2.45908936 11.23828125 2.86767578 C45.96417219 12.36994724 77.36877796 29.01083985 104.63232422 52.55859375 C105.43541016 53.25082031 106.23849609 53.94304687 107.06591797 54.65625 C127.30607933 72.49997625 144.33225821 93.26102733 157.62353516 116.77587891 C158.60351262 118.50767839 159.60589149 120.22674162 160.60888672 121.9453125 C170.26764658 138.89497115 177.11211426 157.61821591 181.63232422 176.55859375 C181.80957031 177.26967285 181.98681641 177.98075195 182.16943359 178.71337891 C183.47511755 183.96793194 184.611301 189.24158788 185.63232422 194.55859375 C185.78475586 195.34024902 185.9371875 196.1219043 186.09423828 196.92724609 C197.23509498 256.66196913 181.13020553 321.08997809 147.50146484 371.04931641 C141.22787186 380.17300942 134.42252323 388.76043423 126.81982422 396.80859375 C118.27309409 405.88070081 113.06894877 414.74490729 113.31982422 427.3984375 C114.14246385 435.71738082 117.60135693 443.70171624 123.63232422 449.55859375 C127.15996294 452.14624911 130.84888527 454.36761922 134.63232422 456.55859375 C136.17822815 457.48909007 137.72045338 458.42575234 139.25732422 459.37109375 C139.88896484 459.74878906 140.52060547 460.12648438 141.17138672 460.515625 C142.63232422 461.55859375 142.63232422 461.55859375 143.63232422 463.55859375 C144.09322957 470.70262667 144.09322957 470.70262667 142.31982422 473.99609375 C139.43102978 476.67090342 136.56123975 476.70135389 132.80337524 476.79324341 C131.31082214 476.83215698 131.31082214 476.83215698 129.78811646 476.87185669 C128.15179764 476.90652542 128.15179764 476.90652542 126.48242188 476.94189453 C125.33243713 476.96934753 124.18245239 476.99680054 122.99761963 477.02508545 C112.37339847 477.26509644 101.74758525 477.41022631 91.12131691 477.52153206 C83.98496859 477.59800461 76.85209269 477.70636959 69.71777344 477.89599609 C63.48423718 478.06165955 57.25312294 478.16619728 51.01741827 478.1987685 C47.72127945 478.21794894 44.43310964 478.27472628 41.13862991 478.38656998 C21.21374142 479.03278699 21.21374142 479.03278699 15.29561615 474.94429779 C11.30789579 471.07681125 8.48048097 466.68358868 5.86826706 461.81002426 C4.18691903 458.74723031 2.23764087 455.8976048 0.2683506 453.01465034 C-4.05923966 446.61884926 -7.99056374 439.94766274 -11.93017578 433.30859375 C-12.34807373 432.60541016 -12.76597168 431.90222656 -13.1965332 431.17773438 C-15.22056867 427.71588938 -17.00871144 424.34900239 -18.36767578 420.55859375 C-17.56330078 420.36265625 -16.75892578 420.16671875 -15.93017578 419.96484375 C28.67571938 408.61773007 71.19222327 386.62494396 98.19873047 347.99609375 C100.20463548 344.58550866 100.79049064 342.5127543 100.63232422 338.55859375 C100.22111328 337.80707031 99.80990234 337.05554688 99.38623047 336.28125 C98.63232422 333.55859375 98.63232422 333.55859375 100.15185547 330.296875 C100.89779475 329.14285526 101.66293149 328.00106311 102.44482422 326.87109375 C103.20147379 325.72144574 103.95799004 324.57170997 104.71435547 323.421875 C105.34728516 322.47699219 105.98021484 321.53210938 106.63232422 320.55859375 C106.96232422 319.89859375 107.29232422 319.23859375 107.63232422 318.55859375 C109.02579967 318.42658029 110.42250874 318.32801342 111.81982422 318.24609375 C115.09429202 317.5425746 116.30436264 317.00297789 118.31591797 314.27734375 C119.98187076 310.77387663 121.33769067 307.20976067 122.63232422 303.55859375 C122.91849609 302.80046387 123.20466797 302.04233398 123.49951172 301.26123047 C128.63612477 287.63219361 131.65754766 273.97207997 133.63232422 259.55859375 C133.73617432 258.82543945 133.84002441 258.09228516 133.94702148 257.33691406 C140.01360453 209.85930763 126.54275405 160.60073287 97.56982422 122.68359375 C93.80742946 117.8550887 89.80362075 113.26345938 85.64013672 108.77734375 C84.23276684 107.22211789 82.88364483 105.61311863 81.58154297 103.96875 C78.64720194 100.34051671 75.21245773 97.53570022 71.63232422 94.55859375 C71.11234863 94.12095703 70.59237305 93.68332031 70.05664062 93.23242188 C51.84668761 77.96857726 31.86746633 66.83487676 9.63232422 58.55859375 C8.48892578 58.11644531 7.34552734 57.67429688 6.16748047 57.21875 C-7.49521116 52.25187094 -21.97807613 50.25748391 -36.36767578 48.55859375 C-35.76289584 44.8327322 -34.70219758 41.83213737 -33.03173828 38.453125 C-32.54954834 37.47746582 -32.0673584 36.50180664 -31.57055664 35.49658203 C-31.04985596 34.4651709 -30.52915527 33.43375977 -29.99267578 32.37109375 C-29.459729 31.31132324 -28.92678223 30.25155273 -28.37768555 29.15966797 C-24.91164138 22.36055462 -21.26868286 15.70548726 -17.30517578 9.18359375 C-16.85287598 8.4356958 -16.40057617 7.68779785 -15.93457031 6.91723633 C-11.68891455 0.10344915 -8.26534518 -1.54090989 0 0 Z " fill="#F98697" transform="translate(308.36767578125,20.44140625)"/>
<path d="M0 0 C0.97485352 0.19867676 1.94970703 0.39735352 2.95410156 0.60205078 C50.99902273 10.65218706 95.19347595 32.24879574 130.49975586 66.59692383 C132.56359956 68.52709628 134.79256034 70.23782168 137 72 C138.09809154 73.15466769 139.1624861 74.34249631 140.1875 75.5625 C142.1512211 77.87251171 144.12644722 80.13313755 146.21484375 82.33203125 C158.83899451 95.65184023 168.89858599 111.12108226 178 127 C178.42909668 127.74830078 178.85819336 128.49660156 179.30029297 129.26757812 C192.33570917 152.30783667 201.01067422 177.53589856 206.3125 203.4375 C206.45985596 204.15639404 206.60721191 204.87528809 206.7590332 205.6159668 C209.70099807 221.09445915 210.37237337 236.40602687 210.3125 252.125 C210.30976578 253.6153476 210.30976578 253.6153476 210.30697632 255.13580322 C210.26219978 269.629692 209.80110213 283.74136097 207 298 C206.83902832 298.89557617 206.67805664 299.79115234 206.51220703 300.71386719 C197.98873859 347.82629503 175.71630422 392.70020344 142.41015625 427.18359375 C138.48120002 431.77480516 135.42819536 436.17547551 135.4375 442.4375 C135.41558594 443.30246094 135.39367187 444.16742188 135.37109375 445.05859375 C136.44631958 450.08744501 138.76400951 454.30376096 142.9074707 457.44702148 C145.04789301 458.71826471 147.21861408 459.87170816 149.4375 461 C157.74629071 465.5431698 162.8626177 469.83338738 166 479 C167.12101607 487.34271959 165.89507612 494.105181 161 501 C156.40297811 506.04729966 151.97672306 508.80849751 145.04442024 509.25447559 C143.45545095 509.26674754 141.86637398 509.26803814 140.27737427 509.26069641 C139.39911574 509.26452196 138.52085722 509.26834751 137.6159848 509.27228898 C134.67247718 509.2826085 131.72916502 509.27862855 128.78564453 509.2746582 C126.67446716 509.27900577 124.56329137 509.28418907 122.45211792 509.29014587 C116.71136562 509.30355571 110.9706791 509.30411135 105.22991419 509.30158257 C100.42520109 509.30051223 95.62050126 509.30539889 90.81579101 509.310188 C79.45937794 509.32129426 68.10299791 509.32171709 56.74658203 509.31567383 C45.07883522 509.30965937 33.41120977 509.32187788 21.74348366 509.3432439 C11.69893733 509.3609531 1.65442927 509.36684588 -8.39013207 509.36360615 C-14.37622947 509.3618048 -20.3622407 509.36431177 -26.34832382 509.37832069 C-31.99710378 509.39104328 -37.64569793 509.38882086 -43.29447556 509.37590981 C-45.34889289 509.37357388 -47.40332388 509.37616901 -49.45772552 509.38453293 C-67.98969013 509.45443278 -86.42502615 507.88966316 -104.4375 503.3125 C-105.46061279 503.05831299 -106.48372559 502.80412598 -107.5378418 502.54223633 C-139.87017385 494.27163519 -170.04184252 480.74502886 -197 461 C-197.57298828 460.58395508 -198.14597656 460.16791016 -198.73632812 459.73925781 C-206.29793619 454.2148153 -213.23654952 448.19792517 -220.02734375 441.76171875 C-222.01731577 439.88131657 -224.05585344 438.10349377 -226.17578125 436.37109375 C-228.45888878 434.45429393 -230.34823289 432.64711124 -232.25 430.375 C-234.19125892 428.08617944 -236.14372424 425.84865787 -238.2109375 423.671875 C-277.03573295 382.71108756 -301.74598921 322.39346714 -302.23828125 265.91015625 C-302.25290405 264.50888992 -302.25290405 264.50888992 -302.26782227 263.07931519 C-302.43676995 242.70105633 -302.26274756 223.01683337 -298 203 C-297.81276367 202.07622559 -297.62552734 201.15245117 -297.43261719 200.20068359 C-290.78925087 167.87307634 -277.61724105 134.70124477 -258 108 C-257.56751953 107.40203613 -257.13503906 106.80407227 -256.68945312 106.18798828 C-242.17588427 86.15468422 -225.80459009 66.99992622 -206 52 C-205.47470703 51.5978125 -204.94941406 51.195625 -204.40820312 50.78125 C-192.43480662 41.61608301 -192.43480662 41.61608301 -185.91015625 41.72265625 C-184 42 -184 42 -182 43.625 C-180.69664811 46.72046073 -180.52367806 48.66574641 -181 52 C-183.6593613 55.8324283 -186.59177284 58.37278097 -190.375 61.0625 C-206.66392611 73.04197721 -221.71464735 86.89593204 -234 103 C-234.41813965 103.54172852 -234.8362793 104.08345703 -235.26708984 104.64160156 C-246.60851112 119.396621 -256.12780181 135.14308986 -264 152 C-264.2985791 152.6305127 -264.5971582 153.26102539 -264.90478516 153.91064453 C-279.35640179 184.64887871 -286.45987086 218.46309058 -286.375 252.375 C-286.37445618 253.20115814 -286.37391235 254.02731628 -286.37335205 254.87850952 C-286.32925468 269.54935273 -285.05923298 283.62414857 -282 298 C-281.78037598 299.05461426 -281.56075195 300.10922852 -281.33447266 301.19580078 C-269.74673571 355.70654918 -240.44493992 406.6039806 -196 441 C-195.4524707 441.42394043 -194.90494141 441.84788086 -194.34082031 442.28466797 C-184.3509786 449.96074792 -173.88268651 456.66489143 -163 463 C-162.38753418 463.3619043 -161.77506836 463.72380859 -161.14404297 464.09667969 C-143.81504013 474.25020252 -124.49441204 481.34756718 -105 486 C-104.2889209 486.17724609 -103.5778418 486.35449219 -102.84521484 486.53710938 C-83.1716188 491.42572665 -63.6229288 493.45820953 -43.38037109 493.37231445 C-41.32452715 493.3747511 -39.2686844 493.37847879 -37.21284485 493.38337708 C-31.70779098 493.39265972 -26.2029188 493.38347458 -20.69787931 493.37004495 C-14.91159301 493.35861631 -9.12531415 493.36284597 -3.33901978 493.36479187 C6.3521416 493.36567 16.04323236 493.35468518 25.734375 493.33618164 C36.93761354 493.3149136 48.1407496 493.31152976 59.34400427 493.3177436 C70.15304963 493.32343122 80.96205894 493.31780563 91.77109909 493.30657005 C96.36192873 493.30192704 100.95273631 493.30104877 105.54356766 493.3031559 C110.93312869 493.30503553 116.32258485 493.29696013 121.71212196 493.2810955 C123.69067641 493.27684623 125.66924148 493.2760064 127.64779854 493.27878571 C130.34283978 493.28199811 133.03756566 493.27295028 135.73257446 493.26069641 C136.51912466 493.26447573 137.30567485 493.26825506 138.1160599 493.27214891 C143.37396226 493.23625591 143.37396226 493.23625591 148 491 C149.26237731 488.47524538 149.09856404 486.68799534 149.0625 483.875 C149.04896484 482.50988281 149.04896484 482.50988281 149.03515625 481.1171875 C149.02355469 480.41851562 149.01195312 479.71984375 149 479 C148.31808594 478.75636719 147.63617188 478.51273437 146.93359375 478.26171875 C135.16278354 473.19917321 125.77810687 466.02984881 120.76171875 454.11328125 C117.69315038 445.59997105 117.91658721 436.60216284 121.68359375 428.359375 C125.14472253 422.15604627 129.87571885 417.11228871 134.6875 411.9375 C145.81705684 399.79616527 154.80416574 386.24761062 163 372 C163.39815918 371.31357422 163.79631836 370.62714844 164.20654297 369.91992188 C171.15315215 357.8150549 176.15921452 345.06501547 181 332 C181.52352051 330.62763184 181.52352051 330.62763184 182.05761719 329.22753906 C184.37543431 323.06192788 186.16592904 316.920509 187.625 310.5 C187.83809814 309.57711182 188.05119629 308.65422363 188.27075195 307.70336914 C188.85744592 305.13774532 189.43188368 302.56979212 190 300 C190.34224609 298.46666016 190.34224609 298.46666016 190.69140625 296.90234375 C191.22043575 294.2738586 191.63180504 291.65600832 192 289 C192.27650391 287.08380859 192.27650391 287.08380859 192.55859375 285.12890625 C195.9129481 259.13621638 194.95792164 232.68380479 190 207 C189.85046875 206.17338867 189.7009375 205.34677734 189.546875 204.49511719 C181.1618952 158.47477665 156.81042407 117.61542887 125 84 C124.12472656 83.07058594 123.24945313 82.14117187 122.34765625 81.18359375 C115.4246642 74.03695144 107.96695324 67.93509826 100 62 C99.4234668 61.56800293 98.84693359 61.13600586 98.25292969 60.69091797 C67.84598356 38.03594032 32.32108827 22.75296759 -5 16 C-5.80679199 15.85046875 -6.61358398 15.7009375 -7.44482422 15.546875 C-53.10942076 7.43649307 -103.6928126 13.77697377 -145.38671875 34.09765625 C-146.06516846 34.42830078 -146.74361816 34.75894531 -147.44262695 35.09960938 C-149.23193758 35.9912128 -151.00360619 36.91798624 -152.7734375 37.84765625 C-156.64774693 39.23133819 -159.03187333 38.93282393 -163 38 C-164.9375 36.875 -164.9375 36.875 -166 35 C-166.5 31.625 -166.5 31.625 -166 28 C-161.93779131 22.77716025 -156.68202517 20.70266081 -150.6875 18.1875 C-149.16974976 17.54228394 -149.16974976 17.54228394 -147.62133789 16.8840332 C-129.59871222 9.3663887 -111.18633953 3.63508397 -92 0 C-91.19062988 -0.16371094 -90.38125977 -0.32742188 -89.54736328 -0.49609375 C-61.56085724 -5.96569558 -27.90578161 -5.84477511 0 0 Z " fill="#010000" transform="translate(302,3)"/>
<path d="M0 0 C0.79197784 0.00115814 1.58395569 0.00231628 2.39993286 0.00350952 C14.64797385 0.0388991 26.42743357 0.76613049 38.4375 3.3125 C39.50613281 3.50585938 40.57476562 3.69921875 41.67578125 3.8984375 C74.7279967 10.50030673 104.63628286 26.49013751 129.21875 49.3046875 C130.77199287 50.71026291 132.3797066 52.05687168 134.0234375 53.35546875 C136.83965153 55.63851605 139.02780132 58.12039809 141.3671875 60.875 C142.87031532 62.6447203 144.40002681 64.39196933 145.9453125 66.125 C166.24247441 89.08414497 180.04671785 117.40612137 186.4375 147.3125 C186.72367187 148.57578125 187.00984375 149.8390625 187.3046875 151.140625 C189.11745439 159.53114603 190.204532 167.73602687 190.4375 176.3125 C190.46473145 177.27236816 190.49196289 178.23223633 190.52001953 179.22119141 C190.86864979 193.75183755 190.43170797 207.76614158 187.83447266 222.08154297 C187.47882603 224.08025077 187.17904218 226.08871016 186.88671875 228.09765625 C184.63704284 241.91709399 179.50360528 257.20198067 172.4375 269.3125 C169.4375 271.3125 169.4375 271.3125 165.9375 271.125 C162.4375 270.3125 162.4375 270.3125 160.5 269.1875 C158.85868596 266.29106345 159.02745598 263.52531551 159.4375 260.3125 C160.46593663 256.88680488 161.8214337 253.61568322 163.1875 250.3125 C166.59650779 241.73308886 169.36563105 233.32348559 171.4375 224.3125 C171.75654297 223.00152344 171.75654297 223.00152344 172.08203125 221.6640625 C177.35749284 198.20913254 176.22950879 170.56620167 170.4375 147.3125 C170.25558105 146.5587207 170.07366211 145.80494141 169.88623047 145.02832031 C167.04869662 133.5615392 162.58663904 122.92035526 157.4375 112.3125 C156.95192627 111.31041504 156.95192627 111.31041504 156.45654297 110.28808594 C151.69260059 100.60519746 145.9792577 91.8815418 139.4375 83.3125 C138.75300781 82.40242188 138.06851562 81.49234375 137.36328125 80.5546875 C110.77683458 46.62531747 69.90574353 22.96099788 27.109375 16.93359375 C18.59601773 15.99403256 10.05664997 15.91429624 1.5 15.875 C0.33291 15.86533203 0.33291 15.86533203 -0.85775757 15.85546875 C-11.7729079 15.80011824 -21.91025556 16.97346513 -32.5625 19.3125 C-34.08813191 19.61018067 -35.61408475 19.90623174 -37.140625 20.19921875 C-60.93254204 25.38788151 -83.3453742 36.44869056 -102.5625 51.3125 C-103.93728516 52.35277344 -103.93728516 52.35277344 -105.33984375 53.4140625 C-140.21419318 80.76046866 -161.09821986 120.10571057 -168.5625 163.3125 C-168.74047119 164.2499707 -168.91844238 165.18744141 -169.10180664 166.15332031 C-169.59582122 169.54099849 -169.69203553 172.764466 -169.6953125 176.1875 C-169.69660156 177.50363281 -169.69789063 178.81976563 -169.69921875 180.17578125 C-169.69712402 180.85721191 -169.6950293 181.53864258 -169.69287109 182.24072266 C-169.68758672 184.27904966 -169.69279495 186.31714915 -169.69921875 188.35546875 C-169.70689017 200.11718846 -169.46158274 211.90815825 -166.9375 223.4375 C-166.76492676 224.23043457 -166.59235352 225.02336914 -166.41455078 225.84033203 C-156.33396883 269.77580257 -129.23837204 309.19906321 -91.20605469 333.46337891 C-69.69007894 346.85181754 -47.47137891 355.00931403 -22.5625 359.3125 C-21.64307617 359.48974609 -20.72365234 359.66699219 -19.77636719 359.84960938 C-16.10845035 360.37789639 -12.50936546 360.4745125 -8.8125 360.48046875 C-8.07733154 360.48379715 -7.34216309 360.48712555 -6.5847168 360.49055481 C-5.03158183 360.49559786 -3.47843612 360.49796395 -1.92529297 360.49780273 C0.4028614 360.49996779 2.73052436 360.51809162 5.05859375 360.53710938 C40.11443573 360.67115988 75.14516348 348.94597163 103.4375 328.3125 C104.28441406 327.69632812 105.13132812 327.08015625 106.00390625 326.4453125 C119.7053941 316.10366776 132.33188253 304.03856549 141.98828125 289.83203125 C144.4375 287.3125 144.4375 287.3125 148.04296875 286.32421875 C151.4375 286.3125 151.4375 286.3125 154.4375 288.3125 C156.4375 291.3125 156.4375 291.3125 156.32421875 294.625 C152.635163 309.96627148 132.41572344 326.15368722 120.4375 335.3125 C119.50292969 336.0859375 118.56835938 336.859375 117.60546875 337.65625 C78.08786069 369.71674845 26.74107398 380.4728037 -23.03613281 375.36474609 C-60.95951746 370.80657617 -96.49458172 353.16662964 -124.34375 327.3203125 C-125.89699287 325.91473709 -127.5047066 324.56812832 -129.1484375 323.26953125 C-131.96465153 320.98648395 -134.15280132 318.50460191 -136.4921875 315.75 C-137.99531532 313.9802797 -139.52502681 312.23303067 -141.0703125 310.5 C-152.5568354 297.50728627 -161.32448876 283.03364004 -168.5625 267.3125 C-169.09488281 266.16394531 -169.62726563 265.01539063 -170.17578125 263.83203125 C-171.72463443 260.35411545 -173.1688635 256.85545055 -174.5625 253.3125 C-174.81241699 252.67747559 -175.06233398 252.04245117 -175.31982422 251.38818359 C-192.53741723 206.63554329 -189.10205659 155.79241622 -170.3984375 112.15625 C-161.99917786 93.37133101 -150.55192273 76.59630604 -136.5703125 61.53125 C-135.16596819 59.97936758 -133.82057589 58.37301372 -132.5234375 56.73046875 C-129.58904488 53.11216391 -126.11325031 50.30935658 -122.5625 47.3125 C-121.68464844 46.54679687 -120.80679688 45.78109375 -119.90234375 44.9921875 C-94.51594581 23.19336935 -63.5236193 8.22159185 -30.5625 2.3125 C-29.67103271 2.14258545 -28.77956543 1.9726709 -27.86108398 1.79760742 C-18.54111049 0.16532035 -9.42920865 -0.04272293 0 0 Z " fill="#020101" transform="translate(253.5625,67.6875)"/>
<path d="M0 0 C5.31760211 4.02413133 8.0764636 9.2396968 9.3125 15.75 C9.61016049 19.85342309 9.6062739 23.94715739 9.60302734 28.06005859 C9.60974457 29.28532761 9.61646179 30.51059662 9.62338257 31.772995 C9.63907871 35.11819566 9.64573479 38.46314797 9.64701414 41.80836821 C9.64844028 43.90252579 9.65271858 45.99665769 9.65800858 48.09080887 C9.67648368 55.40853771 9.68468223 62.72619392 9.68310547 70.04394531 C9.68190428 76.8462907 9.70300844 83.64831871 9.7345928 90.45058382 C9.76080989 96.30730779 9.77147052 102.16392843 9.77019465 108.02071059 C9.76968667 111.51142221 9.77527839 115.00185139 9.79655075 118.49250412 C9.81964984 122.3888445 9.81037902 126.28475481 9.79833984 130.18115234 C9.80957886 131.32534134 9.82081787 132.46953033 9.83239746 133.64839172 C9.76546265 142.19262374 7.80463121 147.9762013 3.125 155.0625 C-1.94488985 159.90706141 -7.1881224 161.94978716 -14.1875 162.3125 C-20.88839183 162.02197182 -25.91001521 159.70629283 -30.5078125 154.8125 C-34.56065524 149.64365709 -36.93342492 145.02461629 -36.94819641 138.34991455 C-36.95528122 137.27903595 -36.96236603 136.20815735 -36.96966553 135.10482788 C-36.96718811 133.94004913 -36.96471069 132.77527039 -36.9621582 131.57519531 C-36.96726913 130.34046478 -36.97238007 129.10573425 -36.97764587 127.83358765 C-36.9891555 124.45314096 -36.99161658 121.0729397 -36.98908257 117.69249058 C-36.9880109 114.86477538 -36.99290156 112.03708265 -36.997688 109.20937228 C-37.00877735 102.53279352 -37.00922463 95.85627101 -37.00317383 89.1796875 C-36.99714165 82.30813581 -37.00942701 75.43678927 -37.0307439 68.56527257 C-37.04840473 62.65338951 -37.05435399 56.74157148 -37.05110615 50.82966304 C-37.04929936 47.30432607 -37.05186816 43.77913525 -37.06582069 40.25382233 C-37.08082037 36.31659521 -37.07138979 32.37962558 -37.05981445 28.44238281 C-37.06745819 27.28570099 -37.07510193 26.12901917 -37.08297729 24.93728638 C-37.03275486 17.18904266 -36.09623327 10.6753431 -32 4 C-21.87829542 -5.84814499 -12.11420484 -5.63451388 0 0 Z " fill="#F8DF96" transform="translate(269.6875,222.25)"/>
<path d="M0 0 C0.87293701 0.00692871 1.74587402 0.01385742 2.64526367 0.02099609 C10.2443721 0.27577772 15.92967849 2.22322603 22.1875 6.625 C23.21037109 7.30949219 23.21037109 7.30949219 24.25390625 8.0078125 C31.71427182 13.6473977 36.04711082 22.69206097 38.1875 31.625 C38.60499591 35.92449685 38.59796027 40.19624176 38.57568359 44.51342773 C38.58094055 45.77639679 38.58619751 47.03936584 38.59161377 48.34060669 C38.6052021 51.78080739 38.60002385 55.22073589 38.59047651 58.66094089 C38.58283392 62.2770651 38.58993836 65.89316739 38.59463501 69.5092926 C38.60007996 75.58086288 38.59293494 81.65232338 38.57861328 87.72387695 C38.5622965 94.72160603 38.56757319 101.71907269 38.5840925 108.71679538 C38.59775228 114.74682991 38.59960496 120.77678592 38.59177649 126.80683094 C38.5871236 130.39863793 38.58640868 133.99032203 38.59638596 137.5821209 C38.60674456 141.59062851 38.59234532 145.59869134 38.57568359 149.60717773 C38.58175629 150.78203232 38.58782898 151.9568869 38.59408569 153.16734314 C38.5008821 165.31975981 35.39547581 175.72724909 27.1484375 184.890625 C18.08324533 193.53939491 7.80237696 196.03673762 -4.46484375 195.8984375 C-14.14134922 195.10805782 -22.11297529 189.75365726 -28.56640625 182.7109375 C-34.62713415 175.08566079 -37.91565165 166.88061248 -37.95967102 157.1244812 C-37.96682632 156.03125046 -37.97398163 154.93801971 -37.98135376 153.81166077 C-37.98404266 152.62197189 -37.98673157 151.43228302 -37.98950195 150.20654297 C-37.99607315 148.94576431 -38.00264435 147.68498566 -38.00941467 146.38600159 C-38.0303864 142.21307635 -38.04081223 138.04015104 -38.05078125 133.8671875 C-38.05483171 132.42582302 -38.05894872 130.98445873 -38.06313133 129.54309464 C-38.08216976 122.76797905 -38.09640227 115.99287425 -38.1047433 109.21773708 C-38.1145038 101.42017902 -38.14079768 93.62290572 -38.18124419 85.82544792 C-38.21149876 79.78360925 -38.22622108 73.74185178 -38.22952431 67.69993889 C-38.23186461 64.09845382 -38.24069029 60.49727341 -38.26598549 56.89587021 C-38.29380389 52.87034218 -38.28940672 48.84544255 -38.2824707 44.81982422 C-38.29528076 43.64228073 -38.30809082 42.46473724 -38.32128906 41.25151062 C-38.25158771 30.10793675 -35.10926229 20.20274945 -27.8125 11.625 C-19.75343329 3.94607795 -11.15990053 -0.14497593 0 0 Z M-17.8125 23.625 C-21.93280775 29.11874367 -22.92571987 33.25581529 -22.96640015 40.01835632 C-22.97500061 41.08778976 -22.98360107 42.15722321 -22.99246216 43.25906372 C-22.99672211 44.42227142 -23.00098206 45.58547913 -23.00537109 46.78393555 C-23.01354858 48.01705978 -23.02172607 49.25018402 -23.03015137 50.52067566 C-23.05496119 54.60102011 -23.0716692 58.68132764 -23.0859375 62.76171875 C-23.09130123 64.17091184 -23.09667875 65.58010488 -23.10206985 66.98929787 C-23.12368424 72.85449557 -23.14241804 78.71969062 -23.15369225 84.58491802 C-23.16991543 92.96711808 -23.20306949 101.34885355 -23.26009309 109.73087853 C-23.29889637 115.6376684 -23.31833715 121.54433455 -23.32361281 127.45124847 C-23.32725215 130.97286004 -23.33912041 134.49397497 -23.37171555 138.01544762 C-23.40761563 141.95013152 -23.40339894 145.88424017 -23.39599609 149.8190918 C-23.41240143 150.97217834 -23.42880676 152.12526489 -23.44570923 153.31329346 C-23.3843259 161.30884368 -21.83318285 168.12776676 -16.36971092 174.23879528 C-14.69031496 175.78460313 -14.69031496 175.78460313 -11.8125 177.625 C-10.925625 178.223125 -10.03875 178.82125 -9.125 179.4375 C-2.39858634 181.84885584 3.97553174 181.53788477 10.5 178.625 C16.19824836 175.42709591 19.60988657 171.17276507 22.24259949 165.25227356 C23.61736268 159.97484793 23.47384199 154.86064332 23.4621582 149.4284668 C23.46726913 148.20334381 23.47238007 146.97822083 23.47764587 145.7159729 C23.48914265 142.36657531 23.49161876 139.01742567 23.48908257 135.66802573 C23.48800987 132.86511358 23.49290406 130.06222403 23.497688 127.25931674 C23.50877047 120.64169188 23.50922819 114.02412378 23.50317383 107.40649414 C23.49713917 100.59683696 23.5094349 93.78738667 23.5307439 86.97776479 C23.54840477 81.11681645 23.55435407 75.25593369 23.55110615 69.39495975 C23.54929973 65.90093629 23.55186462 62.40706032 23.56582069 58.91306114 C23.58082086 55.01186501 23.57138975 51.11092872 23.55981445 47.2097168 C23.56745819 46.06395676 23.57510193 44.91819672 23.58297729 43.73771667 C23.53245259 36.01385669 22.52552555 29.58165862 18.5625 22.875 C12.59624175 17.22275534 5.56857383 14.22116184 -2.66015625 14.34375 C-8.95395491 15.16617015 -13.77582152 18.91554177 -17.8125 23.625 Z " fill="#020101" transform="translate(255.8125,203.375)"/>
<path d="M0 0 C8.11650877 5.75562314 13.48337123 13.24308244 16.6171875 22.64453125 C17.42837627 35.84962049 16.82497053 46.16756288 8.24609375 56.83203125 C1.71436225 64.09995311 -6.01543893 69.21582288 -15.921875 69.8828125 C-28.1208428 70.21437113 -37.07852905 68.00635496 -46.3828125 59.64453125 C-54.53863751 51.62086081 -57.60126241 43.19486992 -57.6953125 31.95703125 C-57.70771043 25.03209603 -57.32920012 19.54567161 -53.3828125 13.64453125 C-52.95871094 12.96390625 -52.53460938 12.28328125 -52.09765625 11.58203125 C-40.07499782 -6.10031875 -18.5764779 -10.56727513 0 0 Z " fill="#020201" transform="translate(276.3828125,118.35546875)"/>
<path d="M0 0 C1.8871875 0.0309375 1.8871875 0.0309375 3.8125 0.0625 C3.8125 4.30134182 1.65755139 6.36079809 -0.77734375 9.7109375 C-3.23688866 13.81245006 -3.31442236 17.98473707 -3.34140015 22.68363953 C-3.35000061 23.80355789 -3.35860107 24.92347626 -3.36746216 26.07733154 C-3.37172211 27.29664368 -3.37598206 28.51595581 -3.38037109 29.7722168 C-3.38854858 31.06386246 -3.39672607 32.35550812 -3.40515137 33.68629456 C-3.43128074 37.96141497 -3.44666984 42.23654473 -3.4609375 46.51171875 C-3.4663009 47.98777585 -3.47167842 49.46383291 -3.47706985 50.93988991 C-3.49868519 57.08302686 -3.5174193 63.22616128 -3.52869225 69.36932659 C-3.54491721 78.15089568 -3.57807463 86.93202142 -3.63509309 95.71342343 C-3.67388645 101.90046578 -3.69333599 108.08739001 -3.69861281 114.27455074 C-3.70225344 117.96382663 -3.71413599 121.65262867 -3.74671555 125.34177208 C-3.7825947 129.46338324 -3.77840161 133.58404968 -3.77099609 137.70581055 C-3.78740143 138.91500153 -3.80380676 140.1241925 -3.82070923 141.37002563 C-3.74776509 151.31413927 -0.87892556 158.62758272 5.8125 166.0625 C-2.07990567 166.72634721 -7.89785902 166.15294873 -14.1875 161.0625 C-19.26850538 155.65439127 -22.4315001 150.20687265 -22.44819641 142.66241455 C-22.45528122 141.59153595 -22.46236603 140.52065735 -22.46966553 139.41732788 C-22.46718811 138.25254913 -22.46471069 137.08777039 -22.4621582 135.88769531 C-22.46726913 134.65296478 -22.47238007 133.41823425 -22.47764587 132.14608765 C-22.4891555 128.76564096 -22.49161658 125.3854397 -22.48908257 122.00499058 C-22.4880109 119.17727538 -22.49290156 116.34958265 -22.497688 113.52187228 C-22.50877735 106.84529352 -22.50922463 100.16877101 -22.50317383 93.4921875 C-22.49714165 86.62063581 -22.50942701 79.74928927 -22.5307439 72.87777257 C-22.54840473 66.96588951 -22.55435399 61.05407148 -22.55110615 55.14216304 C-22.54929936 51.61682607 -22.55186816 48.09163525 -22.56582069 44.56632233 C-22.58082037 40.62909521 -22.57138979 36.69212558 -22.55981445 32.75488281 C-22.56745819 31.59820099 -22.57510193 30.44151917 -22.58297729 29.24978638 C-22.53275486 21.50154266 -21.59623327 14.9878431 -17.5 8.3125 C-12.60117557 3.54607623 -6.98279632 -0.11447207 0 0 Z " fill="#F7C862" transform="translate(255.1875,217.9375)"/>
<path d="M0 0 C5.50863019 3.06132474 8.89792531 7.42085061 11.6875 13 C12.32063228 20.90896393 12.81826102 28.53012539 7.6875 35 C2.30821647 40.80910522 -2.76946021 43.02599549 -10.6875 43.375 C-16.99832336 43.22943148 -21.44624933 41.69389262 -26.06640625 37.3515625 C-31.94751962 30.86108076 -32.82237231 25.12432572 -32.6953125 16.45703125 C-32.01037201 10.27159929 -29.27113278 6.85819007 -24.875 2.6875 C-23.6065625 1.8521875 -23.6065625 1.8521875 -22.3125 1 C-21.44625 0.4225 -20.58 -0.155 -19.6875 -0.75 C-12.9535294 -3.24406319 -6.55412144 -2.9261236 0 0 Z " fill="#FAE097" transform="translate(266.3125,130)"/>
<path d="M0 0 C-0.39832031 0.49628906 -0.79664063 0.99257812 -1.20703125 1.50390625 C-7.67193979 9.7934605 -9.68216944 15.49265989 -9.4921875 26.12109375 C-8.58297508 33.28655351 -5.42272523 40.11466195 0 45 C-7.21439914 45.47742347 -13.05084968 45.45209936 -19 41 C-23.72112048 36.56277763 -26.62683482 32.28778165 -27.37109375 25.73046875 C-27.51342257 18.13680768 -27.27862385 12.72817698 -22 7 C-19.5625 4.6875 -19.5625 4.6875 -17 3 C-16.13375 2.4225 -15.2675 1.845 -14.375 1.25 C-9.57590261 -0.52744348 -5.06200749 -0.24319253 0 0 Z " fill="#F8C962" transform="translate(261,128)"/>
</svg>
