<?xml version="1.0" encoding="UTF-8"?>
<svg version="1.1" xmlns="http://www.w3.org/2000/svg" width="512" height="512">
<path d="M0 0 C0.91523438 0.23025879 1.83046875 0.46051758 2.7734375 0.69775391 C29.63057905 7.63057905 29.63057905 7.63057905 34 12 C34.49609375 15.1640625 34.49609375 15.1640625 34 19 C32.02537363 21.55522436 29.61391344 23.4161889 27.0625 25.375 C26.40314453 25.90738281 25.74378906 26.43976562 25.06445312 26.98828125 C23.85022144 27.9671388 22.62894363 28.93736367 21.39868164 29.89599609 C20.02498516 30.93603591 20.02498516 30.93603591 19 32 C19.59312988 32.20568604 20.18625977 32.41137207 20.79736328 32.62329102 C52.48021013 43.68193516 52.48021013 43.68193516 65 55 C66.06154297 55.93972656 66.06154297 55.93972656 67.14453125 56.8984375 C80.40176503 69.31917278 86.23099709 86.11756483 87 104 C87.56719118 125.67373007 80.82052221 146.05664818 73 166 C73.928125 166.13148438 74.85625 166.26296875 75.8125 166.3984375 C82.61596629 167.68242501 87.16863959 172.50725321 91 178 C95.18902559 185.12291243 95.18252381 193.9320408 93.34375 201.8125 C90.57682475 209.63621968 85.89927801 214.83223016 78.4375 218.4375 C74.86199631 220.00547318 71.8895797 220.13951147 68 220 C67.84144531 220.92039063 67.68289063 221.84078125 67.51953125 222.7890625 C63.78319355 243.06024271 55.93927342 260.67436123 42 276 C41.40058594 276.680625 40.80117188 277.36125 40.18359375 278.0625 C29.64309738 289.35426285 16.2960942 297.40657301 2 303 C1.01 303 0.02 303 -1 303 C-1 313.56 -1 324.12 -1 335 C4.94 335 10.88 335 17 335 C17.33 333.02 17.66 331.04 18 329 C18.81274414 326.76513672 18.81274414 326.76513672 19.78515625 324.6796875 C20.14657715 323.90318848 20.50799805 323.12668945 20.88037109 322.32666016 C21.27047363 321.5176123 21.66057617 320.70856445 22.0625 319.875 C22.46807129 319.03114746 22.87364258 318.18729492 23.29150391 317.31787109 C29.23166272 305.20346995 37.03227149 294.98974896 46 285 C47.07701172 283.79537109 47.07701172 283.79537109 48.17578125 282.56640625 C70.83876096 258.62303221 103.9149523 245.48417976 136.49462891 244.09155273 C173.6599491 243.07854963 206.4526891 256.43667786 234 281 C235.07701172 281.94939453 235.07701172 281.94939453 236.17578125 282.91796875 C258.5005613 303.8561165 272.69576647 336.21503268 274.1262207 366.68896484 C275.00921167 400.309897 267.36662306 434.83844639 244.25 460.5625 C242.83416708 462.04246473 241.41759836 463.52172622 240 465 C239.03397599 466.18125215 238.0749471 467.36828079 237.125 468.5625 C233.02250521 473.37699802 227.97773688 477.13807796 223 481 C222.13246094 481.68320312 221.26492188 482.36640625 220.37109375 483.0703125 C200.50127067 498.17256253 174.48667862 508.11283791 149.3658247 508.12863445 C148.06426439 508.1318589 146.76270409 508.13508335 145.42170256 508.1384055 C143.98948354 508.13693459 142.5572646 508.13536689 141.12504578 508.13371277 C139.59425307 508.13558199 138.06346084 508.13788314 136.53266937 508.14057809 C132.33375826 508.14668811 128.13486708 508.14656345 123.93595254 508.14538372 C119.40497619 508.14517952 114.87400621 508.15070005 110.34303284 508.15544128 C101.47125321 508.16374263 92.59948022 508.16649584 83.72769704 508.16705366 C76.520595 508.1675288 69.31349516 508.16958345 62.10639381 508.17275429 C41.68299556 508.18155731 21.25960257 508.18617389 0.83620241 508.18542381 C-0.26450269 508.18538386 -1.36520778 508.1853439 -2.49926758 508.18530273 C-4.15233408 508.18524141 -4.15233408 508.18524141 -5.83879586 508.18517885 C-23.72342091 508.18477187 -41.60802496 508.19435557 -59.49264393 508.2084411 C-77.84653811 508.22278257 -96.20042202 508.22971261 -114.55432194 508.22884732 C-124.86289208 508.22851472 -135.17144016 508.23129003 -145.48000526 508.24202538 C-154.25081744 508.25110081 -163.02159756 508.2533299 -171.79241238 508.24651595 C-176.2705955 508.24323649 -180.748717 508.24324519 -185.22689438 508.2518692 C-189.32050998 508.259672 -193.41401447 508.25836731 -197.50762715 508.24958507 C-198.9939852 508.2480363 -200.4803513 508.24991732 -201.96669988 508.25544515 C-203.97613244 508.26242759 -205.9855985 508.25606073 -207.9950304 508.24888897 C-209.67415775 508.24921502 -209.67415775 508.24921502 -211.38720685 508.24954766 C-214 508 -214 508 -216 506 C-216.26742554 503.00881958 -216.26742554 503.00881958 -216.29052734 499.11376953 C-216.29724457 498.40433197 -216.30396179 497.69489441 -216.31088257 496.96395874 C-216.32996516 494.60350614 -216.33379523 492.24333764 -216.3359375 489.8828125 C-216.34237042 488.22964362 -216.34909915 486.57647586 -216.35610962 484.92330933 C-216.36811634 481.44119646 -216.37178818 477.9591829 -216.37060547 474.47705078 C-216.37044437 470.9410321 -216.38408568 467.40553937 -216.41162109 463.86962891 C-216.71124064 424.85129679 -211.75886642 393.43919622 -183.5625 364.25 C-178.71904105 359.51417347 -173.73254994 355.59262993 -168 352 C-167.09894531 351.41605469 -166.19789063 350.83210938 -165.26953125 350.23046875 C-146.73277303 338.74818532 -126.10895263 334.79074822 -104.5234375 334.90234375 C-102.94654648 334.90446617 -102.94654648 334.90446617 -101.33779907 334.90663147 C-98.01683572 334.91217913 -94.69594259 334.92472158 -91.375 334.9375 C-89.1080739 334.94252177 -86.84114673 334.94708349 -84.57421875 334.95117188 C-79.04943108 334.96127573 -73.52479311 334.98086099 -68 335 C-68 324.44 -68 313.88 -68 303 C-69.65 302.67 -71.3 302.34 -73 302 C-83.32365528 297.5674996 -92.32707829 292.15961132 -101 285 C-101.77601562 284.38769531 -102.55203125 283.77539062 -103.3515625 283.14453125 C-121.82103369 267.84032279 -133.30586492 244.43294638 -137 221 C-137.70125 220.85304687 -138.4025 220.70609375 -139.125 220.5546875 C-147.70731394 218.52571654 -153.89395725 215.53406412 -158.875 208.0625 C-162.97842671 200.76751919 -164.32874869 193.36029301 -162.3125 185.2265625 C-159.71034201 177.31166527 -156.30122919 171.5198468 -148.8125 167.5625 C-146.18932438 166.32593398 -144.98049611 166 -142 166 C-142.44730469 164.88367188 -142.89460938 163.76734375 -143.35546875 162.6171875 C-154.67729251 133.59677234 -160.64784678 101.79520289 -148.44140625 72.0625 C-143.06807373 60.64598863 -135.69027087 51.56314878 -125.5 44.1875 C-119.98330131 40.17165636 -116.7309706 36.01535934 -113.14453125 30.15625 C-100.56245479 11.63836698 -80.31735565 1.76160865 -59 -3 C-40.04207596 -6.60552517 -18.55554029 -4.67022889 0 0 Z " fill="#010101" transform="translate(227,4)"/>
<path d="M0 0 C0.70060547 0.19335938 1.40121094 0.38671875 2.12304688 0.5859375 C32.64529469 9.22280064 58.95714406 29.21270366 75.125 56.59375 C85.77523499 75.94167691 91.39044071 95.21275703 91.25 117.4375 C91.25773438 118.65759766 91.26546875 119.87769531 91.2734375 121.13476562 C91.20549267 153.08582046 78.11371494 181.37051328 56 204 C55.26007813 204.80179688 54.52015625 205.60359375 53.7578125 206.4296875 C36.56428855 224.63089051 12.22401981 234.65910422 -12 239 C-12.73992187 239.13277344 -13.47984375 239.26554688 -14.2421875 239.40234375 C-43.40689209 243.54441269 -74.95980045 236.09389502 -99 219.0625 C-100.68413206 217.73011704 -102.35028256 216.37476453 -104 215 C-105.05112536 214.1706594 -106.10326812 213.34260717 -107.15625 212.515625 C-131.31734223 193.19951985 -146.7382546 164.82423021 -151.375 134.3125 C-154.20772738 107.63283292 -149.42124839 81.33345525 -136 58 C-135.13375 56.49373047 -135.13375 56.49373047 -134.25 54.95703125 C-116.58934081 25.97229198 -89.50679722 8.15362347 -57.39453125 -1.03125 C-39.32829678 -5.2137866 -17.8590748 -5.01574016 0 0 Z " fill="#00BBD2" transform="translate(399,262)"/>
<path d="M0 0 C1.28214386 -0.01614349 2.56428772 -0.03228699 3.88528442 -0.04891968 C6.57618632 -0.07868172 9.26698811 -0.09850756 11.95800781 -0.11376953 C15.39869723 -0.13608707 18.83686587 -0.20520655 22.2766552 -0.28411293 C25.5800163 -0.34893985 28.88359986 -0.35797778 32.1875 -0.375 C33.41773895 -0.41001617 34.64797791 -0.44503235 35.91549683 -0.48110962 C44.23515084 -0.43860754 44.23515084 -0.43860754 47.045578 2.24012756 C48.31876303 4.27476711 49.26418773 6.2698483 50.1953125 8.4765625 C55.79755083 15.06672243 61.95583498 17.04344687 70.1953125 20.4765625 C70.5253125 34.6665625 70.8553125 48.8565625 71.1953125 63.4765625 C75.80063639 64.92970914 75.80063639 64.92970914 78.1953125 63.4765625 C78.5253125 49.2865625 78.8553125 35.0965625 79.1953125 20.4765625 C83.1553125 18.8265625 87.1153125 17.1765625 91.1953125 15.4765625 C96.57519307 12.43953315 98.0826342 10.79326249 100.4453125 5.1640625 C101.84375 2.52734375 101.84375 2.52734375 104.1953125 0.4765625 C110.39935101 -0.84633645 116.93373847 -0.08139954 123.1953125 0.4765625 C122.98418823 1.60034302 122.98418823 1.60034302 122.76879883 2.74682617 C121.32931081 11.08875123 120.85326304 19.23826445 120.87963867 27.67749023 C120.88279446 29.77706157 120.85924288 31.87521098 120.83398438 33.97460938 C120.76966104 47.40789114 122.96308709 60.17676904 127.3203125 72.9140625 C127.6181665 73.79239746 127.91602051 74.67073242 128.22290039 75.57568359 C132.84288227 88.67451001 139.46312618 100.6652842 148.1953125 111.4765625 C148.63214355 112.0240918 149.06897461 112.57162109 149.51904297 113.13574219 C163.43112313 130.45301052 180.25158942 142.05027393 200.1953125 151.4765625 C200.1953125 151.8065625 200.1953125 152.1365625 200.1953125 152.4765625 C119.6753125 152.4765625 39.1553125 152.4765625 -43.8046875 152.4765625 C-44.2996875 131.6865625 -44.2996875 131.6865625 -44.8046875 110.4765625 C-45.7946875 109.4865625 -45.7946875 109.4865625 -46.8046875 108.4765625 C-50.11152216 108.76639519 -50.11152216 108.76639519 -52.8046875 110.4765625 C-52.96508906 113.57721436 -53.06439652 116.65861967 -53.12109375 119.76171875 C-53.13974487 120.5863562 -53.158396 121.41099365 -53.1776123 122.26062012 C-53.24612464 125.35332096 -53.30613601 128.44620538 -53.3671875 131.5390625 C-53.5115625 138.4484375 -53.6559375 145.3578125 -53.8046875 152.4765625 C-67.9946875 152.4765625 -82.1846875 152.4765625 -96.8046875 152.4765625 C-96.96512274 136.47760411 -96.96512274 136.47760411 -97 129.5390625 C-97.02370471 124.84583945 -97.05141902 120.15293498 -97.10644531 115.45996094 C-97.49012948 81.83675156 -92.6894255 52.89338074 -68.8046875 27.4765625 C-49.29666623 9.39100111 -26.36787846 0.31980751 0 0 Z " fill="#009587" transform="translate(117.8046875,349.5234375)"/>
<path d="M0 0 C17.10646699 9.20381501 32.8447438 15.13561623 52.484375 15.0390625 C53.58346191 15.03777344 54.68254883 15.03648437 55.81494141 15.03515625 C62.72917148 14.95317338 68.74363828 14.27316755 75.40234375 12.41015625 C82.83647812 10.53284959 89.85109512 11.18710255 96.8203125 14.33984375 C104.26015944 18.84691826 108.16857124 26.37148679 110.64471436 34.47950745 C111.22305105 37.27628918 111.25229518 39.90058858 111.27050781 42.75756836 C111.28011536 43.97661362 111.2897229 45.19565887 111.29962158 46.4516449 C111.3059964 48.42657677 111.3059964 48.42657677 111.3125 50.44140625 C111.31674107 51.45414203 111.31674107 51.45414203 111.32106781 52.48733711 C111.33604883 56.06846632 111.34528196 59.64955545 111.34960938 63.23071289 C111.35505672 66.89516177 111.37900747 70.55923202 111.40758133 74.22356319 C111.42640389 77.06953417 111.43142384 79.91541809 111.43294525 82.761446 C111.43737053 84.75799521 111.45592974 86.75449745 111.47491455 88.7509613 C111.42371586 110.03183572 103.84119605 130.4800664 90.109375 146.7265625 C89.10777344 147.94666016 89.10777344 147.94666016 88.0859375 149.19140625 C73.98336233 165.71229305 53.59237566 176.61683185 32.109375 179.7265625 C17.53680037 180.58252269 2.8899304 181.03077628 -10.890625 175.7265625 C-11.92574219 175.35273438 -12.96085937 174.97890625 -14.02734375 174.59375 C-37.75856559 165.41727241 -56.34829029 147.87527586 -66.890625 124.7265625 C-71.93236822 112.14562719 -74.20329159 99.31556729 -74.19140625 85.796875 C-74.19569138 84.68585419 -74.1999765 83.57483337 -74.20439148 82.43014526 C-74.21010165 80.08885372 -74.21065968 77.74754445 -74.20629883 75.40625 C-74.20316424 71.89550972 -74.22655305 68.38563495 -74.25195312 64.875 C-74.31735021 41.85918664 -73.86952467 11.24707121 -57.015625 -6.7109375 C-39.94355718 -22.33140621 -16.9915743 -9.15610558 0 0 Z " fill="#FDB091" transform="translate(173.890625,122.2734375)"/>
<path d="M0 0 C1.03092773 0.26296875 2.06185547 0.5259375 3.12402344 0.796875 C8.7759791 2.26416323 14.41402881 3.78365035 20.03125 5.37890625 C20.96517578 5.6426001 21.89910156 5.90629395 22.86132812 6.17797852 C25 7 25 7 26 9 C25.46890625 9.43570312 24.9378125 9.87140625 24.390625 10.3203125 C20.2149712 13.84066297 16.48051098 17.03897805 14 22 C13.66475124 25.75129837 13.66475124 25.75129837 14 29 C19.89424371 32.14177532 25.691789 34.28937544 32.0625 36.25 C51.20222846 42.41398269 67.72175329 51.53884712 77.53515625 69.8671875 C87.14929896 90.10453745 84.03701466 113.72621623 76.93041992 134.36523438 C76.00420293 136.93085876 75.02165478 139.4709857 74 142 C72.22821575 139.34232363 71.35253376 137.33980212 70.3125 134.375 C66.90531086 125.76273225 61.57017327 118.83402489 53 115 C42.44371741 111.08498228 33.11983744 111.46895739 22.3125 114 C-3.23797938 119.44545629 -24.14218587 111.94886352 -46.13427734 99.2800293 C-61.09463011 90.72994319 -78.2639242 83.86466472 -95.75390625 87.5859375 C-105.92664285 91.05644858 -112.66503814 98.35675532 -117.375 107.75 C-122.74273256 119.04260555 -125.58290212 130.78633115 -128 143 C-129.82631041 140.26053438 -130.58550227 138.45938541 -131.47265625 135.359375 C-131.73240234 134.45316406 -131.99214844 133.54695312 -132.25976562 132.61328125 C-132.52466797 131.66839844 -132.78957031 130.72351563 -133.0625 129.75 C-133.33126953 128.82058594 -133.60003906 127.89117187 -133.87695312 126.93359375 C-136.5625748 117.46359614 -137.20691081 108.63144889 -137.25 98.8125 C-137.270625 97.65685547 -137.29125 96.50121094 -137.3125 95.31054688 C-137.36150074 84.40175711 -135.39422868 74.59316123 -130.375 64.875 C-129.85341309 63.85780884 -129.85341309 63.85780884 -129.32128906 62.82006836 C-124.76688797 54.28919976 -118.96662365 48.28592271 -111.0625 42.75 C-104.98351159 38.39571186 -101.3391002 33.40813226 -97.2265625 27.30078125 C-86.31377672 11.12305496 -69.75698437 2.2980164 -51 -2 C-34.65992137 -5.09579909 -16.08624375 -4.11432863 0 0 Z " fill="#C36E65" transform="translate(220,13)"/>
<path d="M0 0 C4.33403257 2.44281836 8.44020533 5.78561942 9.99742126 10.70709229 C10.51296649 13.3199794 10.60005459 15.77661464 10.64282227 18.44042969 C10.6727401 20.09168854 10.6727401 20.09168854 10.70326233 21.77630615 C10.71997482 22.95871887 10.73668732 24.14113159 10.75390625 25.359375 C10.77468735 26.57449768 10.79546844 27.78962036 10.81687927 29.04156494 C10.88226828 32.92348573 10.94121051 36.8054742 11 40.6875 C11.04319532 43.31901742 11.08680994 45.95052799 11.13085938 48.58203125 C11.23793883 55.0337826 11.33972514 61.48560129 11.4375 67.9375 C14.00266569 69.22008284 15.83787619 69.06906765 18.70996094 69.0793457 C19.81160583 69.08638016 20.91325073 69.09341461 22.04827881 69.10066223 C23.84195892 69.10690865 23.84195892 69.10690865 25.671875 69.11328125 C28.1901125 69.1364818 30.7083417 69.16059923 33.2265625 69.18554688 C37.20749696 69.22066121 41.18787412 69.25000126 45.16894531 69.26342773 C49.00363366 69.27890171 52.83742382 69.31911488 56.671875 69.36328125 C57.85956482 69.36137283 59.04725464 69.35946442 60.27093506 69.35749817 C66.61145878 69.45133783 70.6534212 69.60684356 75.4375 73.9375 C79.44224045 78.37518536 80.80790776 81.69451075 80.71875 87.74609375 C80.05716551 92.9009396 77.60335105 96.80079523 73.9375 100.375 C69.97207454 102.85339091 66.5761192 103.06691102 61.95043945 103.12695312 C60.30402214 103.15202942 60.30402214 103.15202942 58.62434387 103.1776123 C56.85543037 103.19797546 56.85543037 103.19797546 55.05078125 103.21875 C53.83803024 103.23715942 52.62527924 103.25556885 51.3757782 103.27453613 C46.181192 103.35330185 40.98647736 103.42117938 35.79174805 103.48974609 C32.00302381 103.54130623 28.21441694 103.5986025 24.42578125 103.65625 C22.64775871 103.67661316 22.64775871 103.67661316 20.83381653 103.6973877 C19.20158394 103.72246399 19.20158394 103.72246399 17.53637695 103.74804688 C16.57359329 103.76057495 15.61080963 103.77310303 14.61885071 103.78601074 C12.46005791 103.69613576 12.46005791 103.69613576 11.4375 104.9375 C11.33020336 106.58271112 11.29126395 108.23243726 11.27978516 109.88110352 C11.26439194 111.46393883 11.26439194 111.46393883 11.24868774 113.07875061 C11.24138641 114.22967697 11.23408508 115.38060333 11.2265625 116.56640625 C11.19847832 118.98763679 11.16981377 121.40886065 11.140625 123.83007812 C11.09945366 127.65925806 11.0625807 131.48831547 11.03613281 135.31762695 C11.00843524 139.00498516 10.9625426 142.6917704 10.9140625 146.37890625 C10.91080963 147.51566299 10.90755676 148.65241974 10.90420532 149.82362366 C10.69595541 163.36575452 10.69595541 163.36575452 6.02139282 168.48976135 C1.16053374 172.74096431 -2.86167249 173.23352612 -9.05859375 173.15234375 C-13.78195552 172.7470631 -16.565111 170.96259425 -19.8125 167.625 C-24.15860522 160.95062412 -23.88481952 154.28853725 -23.94140625 146.57421875 C-23.95840073 145.38649368 -23.9753952 144.19876862 -23.99290466 142.97505188 C-24.04592984 139.19175483 -24.08630735 135.40846866 -24.125 131.625 C-24.16888015 127.82373236 -24.21549192 124.02255091 -24.26780701 120.22138977 C-24.2998531 117.85767601 -24.32671504 115.49388548 -24.34803772 113.13005066 C-24.36152756 112.06837173 -24.3750174 111.00669281 -24.38891602 109.9128418 C-24.39842789 108.97385544 -24.40793976 108.03486908 -24.41773987 107.06742859 C-24.32688901 104.95393381 -24.32688901 104.95393381 -25.5625 103.9375 C-27.27959014 103.83005344 -29.00102518 103.7912526 -30.72143555 103.77978516 C-32.37401619 103.76439194 -32.37401619 103.76439194 -34.0599823 103.74868774 C-35.26093033 103.74138641 -36.46187836 103.73408508 -37.69921875 103.7265625 C-40.22070953 103.69848628 -42.74219382 103.66982177 -45.26367188 103.640625 C-49.25548928 103.59938874 -53.24706866 103.56251938 -57.23901367 103.53613281 C-61.08017351 103.50851399 -64.92077429 103.4626294 -68.76171875 103.4140625 C-69.95254562 103.41080963 -71.1433725 103.40755676 -72.37028503 103.40420532 C-78.98439464 103.30615228 -84.04937513 103.066768 -89.20703125 98.47265625 C-93.09022245 93.57645865 -93.952777 90.35634713 -93.8359375 84.09375 C-93.34944061 80.25737456 -92.04912735 76.90400281 -89.5625 73.9375 C-83.2058468 69.20362114 -77.4433044 69.3507835 -69.69921875 69.36328125 C-68.47088821 69.34911667 -67.24255768 69.33495209 -65.977005 69.32035828 C-62.06791335 69.27853992 -58.15928367 69.26322735 -54.25 69.25 C-50.32307763 69.22096501 -46.39627261 69.18647511 -42.46943665 69.14750671 C-40.02888805 69.12497833 -37.58826648 69.109184 -35.14762878 69.10066223 C-33.50000298 69.09011055 -33.50000298 69.09011055 -31.8190918 69.0793457 C-30.84981247 69.07586624 -29.88053314 69.07238678 -28.88188171 69.06880188 C-26.53672435 69.08958945 -26.53672435 69.08958945 -24.5625 67.9375 C-24.55370064 66.90512711 -24.55370064 66.90512711 -24.54472351 65.85189819 C-24.48073516 58.68143214 -24.39630068 51.51141263 -24.30004883 44.34130859 C-24.26517998 41.66613786 -24.23878119 38.99126362 -24.21606445 36.31591797 C-24.18248733 32.46812212 -24.13016721 28.62096511 -24.07421875 24.7734375 C-24.06782883 23.57947357 -24.0614389 22.38550964 -24.05485535 21.15536499 C-23.93504009 14.37164505 -23.6437515 9.27785674 -18.84375 4.07421875 C-18.2559375 3.59597656 -17.668125 3.11773437 -17.0625 2.625 C-16.4746875 2.13386719 -15.886875 1.64273437 -15.28125 1.13671875 C-10.53276922 -2.17642579 -5.30247079 -1.58143866 0 0 Z " fill="#FCBF06" transform="translate(375.5625,294.0625)"/>
<path d="M0 0 C6.11321827 4.16158051 10.54878897 8.91389787 13 16 C13.52147771 20.06230638 13.46765726 24.0662506 13.390625 28.15625 C13.38496521 29.29912476 13.37930542 30.44199951 13.37347412 31.61950684 C13.35119848 35.24677552 13.30101625 38.87303309 13.25 42.5 C13.22992371 44.96873567 13.21167493 47.43748692 13.1953125 49.90625 C13.15136252 55.93784124 13.08453811 61.96884836 13 68 C13.6064183 67.99111755 14.21283661 67.98223511 14.83763123 67.9730835 C21.18096437 67.88420732 27.52411902 67.82409935 33.86791992 67.78027344 C36.23159985 67.76022718 38.59523061 67.73298281 40.95874023 67.69824219 C44.36714857 67.64941729 47.77489803 67.62696052 51.18359375 67.609375 C52.23083115 67.58872986 53.27806854 67.56808472 54.35704041 67.54681396 C63.53973139 67.54404065 70.66202188 70.05362436 77.49609375 76.28515625 C82.62141499 82.12935372 84.49331531 89.2614171 84.40234375 96.8828125 C83.46300441 104.16041245 79.91224836 110.9276336 74.1875 115.5625 C66.77803042 120.81291884 58.41015589 121.42858405 49.62109375 121.29296875 C48.56841812 121.28872391 47.51574249 121.28447906 46.4311676 121.28010559 C43.09967458 121.26343768 39.76880732 121.2258075 36.4375 121.1875 C34.16602442 121.17243781 31.89453927 121.1587521 29.62304688 121.14648438 C24.0818211 121.11357326 18.54095528 121.06349386 13 121 C13.00888245 121.62116699 13.01776489 122.24233398 13.0269165 122.88232422 C13.11569343 129.37148804 13.17586 135.86047816 13.21972656 142.35009766 C13.23979065 144.7691143 13.26704843 147.18808276 13.30175781 149.60693359 C13.35050341 153.09224368 13.37302164 156.57691016 13.390625 160.0625 C13.41127014 161.13677246 13.43191528 162.21104492 13.45318604 163.31787109 C13.45512834 169.87820959 12.56738128 174.46229363 9 180 C8.443125 180.886875 7.88625 181.77375 7.3125 182.6875 C1.62411822 188.37588178 -5.23883437 191.09457122 -13.1875 191.3125 C-20.42758599 191.23527242 -25.29229663 188.77042144 -31.25 184.875 C-36.94249501 178.92375522 -40.13564213 171.45887196 -40.11352539 163.23144531 C-40.11341209 161.82043549 -40.11341209 161.82043549 -40.11329651 160.38092041 C-40.10813522 159.37349792 -40.10297394 158.36607544 -40.09765625 157.328125 C-40.0962413 156.29057068 -40.09482635 155.25301636 -40.09336853 154.184021 C-40.08777447 150.87265124 -40.07522303 147.56134929 -40.0625 144.25 C-40.05748423 142.00390723 -40.05292146 139.75781339 -40.04882812 137.51171875 C-40.03780699 132.0077894 -40.02107474 126.50389954 -40 121 C-40.57914154 121.00888245 -41.15828308 121.01776489 -41.75497437 121.0269165 C-47.82271379 121.11591527 -53.89026559 121.17595055 -59.95849609 121.21972656 C-62.21833843 121.23975089 -64.47812955 121.26697862 -66.73779297 121.30175781 C-69.99980362 121.35068078 -73.26112487 121.37306132 -76.5234375 121.390625 C-78.02093033 121.42159271 -78.02093033 121.42159271 -79.54867554 121.45318604 C-88.70855556 121.45606804 -96.71423895 119.03344126 -103.53125 112.71484375 C-108.89423981 106.45326788 -110.43316479 99.25354445 -110.3359375 91.203125 C-109.49664111 83.2005315 -105.29110188 77.62362146 -99.35546875 72.47265625 C-92.17548331 67.98367696 -85.7578719 67.58295497 -77.5 67.70703125 C-76.42371338 67.71127609 -75.34742676 67.71552094 -74.23852539 67.71989441 C-70.8254213 67.73658975 -67.41292345 67.77422557 -64 67.8125 C-61.67578982 67.82755863 -59.35157032 67.84124497 -57.02734375 67.85351562 C-51.35135819 67.88646326 -45.67572243 67.93657098 -40 68 C-40.00888245 67.42085846 -40.01776489 66.84171692 -40.0269165 66.24502563 C-40.11591527 60.17728621 -40.17595055 54.10973441 -40.21972656 48.04150391 C-40.23975089 45.78166157 -40.26697862 43.52187045 -40.30175781 41.26220703 C-40.35068078 38.00019638 -40.37306132 34.73887513 -40.390625 31.4765625 C-40.41127014 30.47823395 -40.43191528 29.4799054 -40.45318604 28.45132446 C-40.45624954 18.71457241 -37.62317654 10.82375514 -30.9375 3.69140625 C-22.0170362 -4.09601477 -10.54906449 -4.87506999 0 0 Z M-26.3125 13.5 C-29.55360026 17.37911213 -30.12673309 20.48517494 -30.20532227 25.48120117 C-30.22526749 26.60213669 -30.24521271 27.7230722 -30.26576233 28.87797546 C-30.28247482 30.08742325 -30.29918732 31.29687103 -30.31640625 32.54296875 C-30.3475779 34.40106926 -30.3475779 34.40106926 -30.37937927 36.29670715 C-30.43371797 39.58625256 -30.48395951 42.87582726 -30.53222656 46.16546631 C-30.58250646 49.52377814 -30.63815861 52.88200046 -30.69335938 56.24023438 C-30.80053048 62.82675159 -30.90230135 69.41333584 -31 76 C-33.5613738 77.2806869 -35.38880432 77.13155109 -38.2565918 77.1418457 C-39.90421761 77.15239738 -39.90421761 77.15239738 -41.58512878 77.16316223 C-42.77777847 77.16732651 -43.97042816 77.17149078 -45.19921875 77.17578125 C-47.71289895 77.19898471 -50.22657085 77.22310225 -52.74023438 77.24804688 C-56.71221423 77.28313634 -60.68389002 77.31248779 -64.65600586 77.32592773 C-68.48328756 77.34142087 -72.30967403 77.38164941 -76.13671875 77.42578125 C-77.31924728 77.42387283 -78.50177582 77.42196442 -79.72013855 77.41999817 C-86.35378226 77.51818266 -90.62366481 77.99617618 -96 82 C-98.90825848 85.46950134 -100.22785817 89.56393563 -100.4375 94.0625 C-99.79917002 99.80746985 -98.4114359 104.04517132 -94 107.875 C-89.99695656 110.7104891 -87.31843215 111.12861873 -82.53466797 111.18945312 C-81.41696014 111.20617065 -80.29925232 111.22288818 -79.14767456 111.2401123 C-77.94136383 111.25368774 -76.7350531 111.26726318 -75.4921875 111.28125 C-73.6376445 111.30886414 -73.6376445 111.30886414 -71.74563599 111.33703613 C-67.11491962 111.40589111 -62.4841121 111.46636605 -57.85327148 111.52606201 C-53.31615547 111.58496598 -48.77918005 111.65108949 -44.2421875 111.71875 C-43.03182831 111.73232544 -41.82146912 111.74590088 -40.57443237 111.7598877 C-38.90732712 111.78496399 -38.90732712 111.78496399 -37.20654297 111.81054688 C-36.22297821 111.82307495 -35.23941345 111.83560303 -34.2260437 111.84851074 C-32 112 -32 112 -31 113 C-30.89270336 114.64521112 -30.85376395 116.29493726 -30.84228516 117.94360352 C-30.83202301 118.99882706 -30.82176086 120.0540506 -30.81118774 121.14125061 C-30.80388641 122.29217697 -30.79658508 123.44310333 -30.7890625 124.62890625 C-30.76097832 127.05013679 -30.73231377 129.47136065 -30.703125 131.89257812 C-30.66195366 135.72175806 -30.6250807 139.55081547 -30.59863281 143.38012695 C-30.57093524 147.06748516 -30.5250426 150.7542704 -30.4765625 154.44140625 C-30.47330963 155.57816299 -30.47005676 156.71491974 -30.46670532 157.88612366 C-30.33618201 167.93736562 -30.33618201 167.93736562 -25.58389282 176.55226135 C-20.72303374 180.80346431 -16.70082751 181.29602612 -10.50390625 181.21484375 C-5.78054448 180.8095631 -2.997389 179.02509425 0.25 175.6875 C4.59610522 169.01312412 4.32231952 162.35103725 4.37890625 154.63671875 C4.40439796 152.85513115 4.40439796 152.85513115 4.43040466 151.03755188 C4.48342984 147.25425483 4.52380735 143.47096866 4.5625 139.6875 C4.60638015 135.88623236 4.65299192 132.08505091 4.70530701 128.28388977 C4.7373531 125.92017601 4.76421504 123.55638548 4.78553772 121.19255066 C4.79902756 120.13087173 4.8125174 119.06919281 4.82641602 117.9753418 C4.84068382 116.56686226 4.84068382 116.56686226 4.85523987 115.12992859 C5 113 5 113 6 112 C7.68115162 111.89262679 9.36673157 111.85375815 11.05126953 111.84228516 C12.12974152 111.83202301 13.2082135 111.82176086 14.31936646 111.81118774 C15.49530365 111.80388641 16.67124084 111.79658508 17.8828125 111.7890625 C20.35417316 111.76098238 22.82552723 111.73231785 25.296875 111.703125 C29.2073541 111.66192075 33.11771181 111.62504923 37.02832031 111.59863281 C40.7925793 111.57097548 44.55627233 111.52508685 48.3203125 111.4765625 C50.06600021 111.4716832 50.06600021 111.4716832 51.84695435 111.46670532 C59.16717053 111.35619704 64.96071133 111.1214316 70.3125 105.625 C73.602292 100.50754578 74.75830299 96.11457013 74 90 C71.99703332 84.32492775 68.38649821 80.69324911 63 78 C61.22391044 77.88565433 59.44368495 77.83319635 57.6640625 77.81054688 C56.54950684 77.79382935 55.43495117 77.77711182 54.28662109 77.7598877 C53.07828613 77.74631226 51.86995117 77.73273682 50.625 77.71875 C48.77189209 77.69113586 48.77189209 77.69113586 46.88134766 77.66296387 C42.92095279 77.60406068 38.96050103 77.55110401 35 77.5 C29.79157393 77.43279349 24.5832819 77.35886135 19.375 77.28125 C18.16666504 77.26767456 16.95833008 77.25409912 15.71337891 77.2401123 C14.59882324 77.22339478 13.48426758 77.20667725 12.3359375 77.18945312 C11.35157715 77.17692505 10.3672168 77.16439697 9.35302734 77.15148926 C7 77 7 77 5 76 C4.99413376 75.32650009 4.98826752 74.65300018 4.98222351 73.95909119 C4.91817375 66.93444919 4.83372363 59.9102604 4.73754883 52.88598633 C4.70434257 50.26625553 4.67629734 47.64645394 4.65356445 45.02661133 C4.61994046 41.25571589 4.56761804 37.48546678 4.51171875 33.71484375 C4.50532883 32.54791489 4.4989389 31.38098602 4.49235535 30.17869568 C4.36646836 23.17901397 4.04809612 17.55021868 -0.68359375 12.0390625 C-1.26238281 11.57242187 -1.84117187 11.10578125 -2.4375 10.625 C-3.01371094 10.14289063 -3.58992188 9.66078125 -4.18359375 9.1640625 C-11.93583109 4.19596201 -20.60227982 7.06920442 -26.3125 13.5 Z " fill="#010303" transform="translate(382,286)"/>
<path d="M0 0 C1.86205078 0.24363281 1.86205078 0.24363281 3.76171875 0.4921875 C9.45024859 1.12165141 15.09459705 1.14678249 20.8125 1.125 C22.31780273 1.13080078 22.31780273 1.13080078 23.85351562 1.13671875 C30.94628695 1.12760793 37.94187601 0.6887888 45 0 C45.09954745 4.69557647 45.17178467 9.39052663 45.21972656 14.08691406 C45.23973053 15.68142408 45.26694301 17.27586178 45.30175781 18.87011719 C45.67621659 36.46967992 45.67621659 36.46967992 39.2890625 44.0234375 C32.90911603 49.20527196 27.33540743 50.60107642 19.10546875 50.4375 C13.02477552 49.58084888 8.18352323 46.6715457 4.3046875 41.92578125 C0.76689341 36.45736239 -0.14496556 31.96282539 -0.09765625 25.48828125 C-0.0962413 24.76005661 -0.09482635 24.03183197 -0.09336853 23.28153992 C-0.08777659 20.95848461 -0.07522562 18.63552612 -0.0625 16.3125 C-0.05748396 14.73632952 -0.05292123 13.16015752 -0.04882812 11.58398438 C-0.0378098 7.72261902 -0.02055074 3.86132592 0 0 Z " fill="#FDB091" transform="translate(170,310)"/>
<path d="M0 0 C3.88872989 2.62944668 7.37434158 5.65339218 9.75 9.75 C9.69203558 12.41636347 9.65716809 13.84283191 7.75 15.75 C5.125 16.25 5.125 16.25 1.75 15.75 C-0.15241844 14.12619662 -1.78052534 12.33759888 -3.484375 10.5078125 C-7.67539725 6.3353346 -12.36899133 5.52241227 -18.0625 5.1875 C-25.23900554 5.36736229 -30.73743062 8.25508173 -35.8046875 13.296875 C-36.21976563 13.75578125 -36.63484375 14.2146875 -37.0625 14.6875 C-39.25 16.75 -39.25 16.75 -41.9375 16.875 C-44.25 15.75 -44.25 15.75 -45.8125 13.5625 C-46.25 10.75 -46.25 10.75 -44.875 7.8125 C-33.75250378 -6.56175591 -15.22103063 -8.7847091 0 0 Z " fill="#060403" transform="translate(250.25,157.25)"/>
<path d="M0 0 C3.08848569 2.44971572 5.84180171 5.02115438 7.83203125 8.453125 C7.77406683 11.11948847 7.73919934 12.54595691 5.83203125 14.453125 C3.20703125 14.953125 3.20703125 14.953125 -0.16796875 14.453125 C-2.07038719 12.82932162 -3.69849409 11.04072388 -5.40234375 9.2109375 C-9.593366 5.0384596 -14.28696008 4.22553727 -19.98046875 3.890625 C-27.15697429 4.07048729 -32.65539937 6.95820673 -37.72265625 12 C-38.13773438 12.45890625 -38.5528125 12.9178125 -38.98046875 13.390625 C-40.06328125 14.4115625 -40.06328125 14.4115625 -41.16796875 15.453125 C-45.35844494 15.26264881 -45.35844494 15.26264881 -47.16796875 13.453125 C-47.65621279 10.52366078 -47.6564093 8.38012281 -46.25 5.7109375 C-35.0453608 -9.07524326 -14.49148866 -9.79872553 0 0 Z " fill="#050303" transform="translate(173.16796875,158.546875)"/>
<path d="M0 0 C3.02529736 0.8963844 4.43307577 2.05172262 6.69921875 4.21875 C12.28865715 9.52041534 16.17855069 10.21669152 23.91772461 10.21948242 C30.79458882 10.03005782 34.34755797 7.70066905 39.3046875 3.30078125 C43.30779818 -0.22788668 43.30779818 -0.22788668 45.88671875 -0.15625 C47.63671875 0.78125 47.63671875 0.78125 49.63671875 2.78125 C50.16087816 6.01356635 49.83030211 7.45861107 48.13671875 10.28125 C40.99333033 17.42463842 32.34376419 20.83885957 22.32421875 21.28125 C12.57251644 21.01922996 4.11949654 17.28782813 -2.92578125 10.55078125 C-5.01830855 7.97492563 -5.588197 6.08001435 -5.36328125 2.78125 C-3.81254716 0.11054129 -3.08538523 -0.28558938 0 0 Z " fill="#050303" transform="translate(170.36328125,236.21875)"/>
<path d="M0 0 C8.74110436 2.91370145 11.21779455 3.83304701 15.3125 11.4375 C16.9754896 17.63591577 16.12937 22.44789194 13 28 C8.8042128 32.71496289 6.46622981 33.92229503 0 35 C0 23.45 0 11.9 0 0 Z " fill="#FBAE90" transform="translate(295,179)"/>
<path d="M0 0 C0 11.55 0 23.1 0 35 C-6.79110651 33.86814891 -6.79110651 33.86814891 -9.75 31.1875 C-10.32234375 30.68605469 -10.8946875 30.18460938 -11.484375 29.66796875 C-15.5153239 25.23184715 -15.49116439 20.83851742 -15.37109375 15.046875 C-14.80817148 10.42498689 -13.30326792 7.27961684 -10 4 C-6.91853859 1.92605274 -3.78517118 0 0 0 Z " fill="#FBAE8F" transform="translate(90,179)"/>
<path d="M0 0 C0.99 0.103125 1.98 0.20625 3 0.3125 C5.37310654 3.87215981 5.26915041 5.53212224 5.25 9.75 C5.25515625 10.88308594 5.2603125 12.01617187 5.265625 13.18359375 C5.01398568 16.14775691 4.54596941 17.81563671 3 20.3125 C1.02 20.3125 -0.96 20.3125 -3 20.3125 C-5.32011034 16.64819875 -5.26783151 13.45814743 -5.25 9.1875 C-5.25515625 7.94742188 -5.2603125 6.70734375 -5.265625 5.4296875 C-4.90802602 1.23315824 -4.19526056 0.43700631 0 0 Z " fill="#040302" transform="translate(233,179.6875)"/>
<path d="M0 0 C3 -0.3125 3 -0.3125 6 0 C8.55948999 2.55948999 8.26068731 4.27207195 8.2734375 7.765625 C8.26570312 8.50296875 8.25796875 9.2403125 8.25 10 C8.25773438 10.73734375 8.26546875 11.4746875 8.2734375 12.234375 C8.2533196 17.7466804 8.2533196 17.7466804 6 20 C3.5625 20.4375 3.5625 20.4375 1 20 C-1.84420229 16.28222129 -2.38785061 13.50036812 -2.3125 8.875 C-2.30863281 7.84117187 -2.30476562 6.80734375 -2.30078125 5.7421875 C-2 3 -2 3 0 0 Z " fill="#060403" transform="translate(149,180)"/>
</svg>
