<?xml version="1.0" encoding="UTF-8"?>
<svg version="1.1" xmlns="http://www.w3.org/2000/svg" width="512" height="512">
<path d="M0 0 C4.18699165 1.23146813 6.75651565 4.61981685 9.8046875 7.62109375 C14.04014678 11.52643447 18.91306696 14.39714 23.82421875 17.37109375 C24.74372314 17.92829102 25.66322754 18.48548828 26.6105957 19.05957031 C28.38855329 20.13077899 30.16834621 21.19894891 31.95019531 22.26367188 C46.41203978 30.91341349 56.31136986 38.02324304 61.32421875 54.68359375 C64.90349333 69.49519709 60.93309907 83.8657 53.32421875 96.68359375 C52.62167969 97.56144531 51.91914063 98.43929687 51.1953125 99.34375 C49.15296106 101.62150969 49.15296106 101.62150969 48.32421875 104.68359375 C48.92234375 104.91046875 49.52046875 105.13734375 50.13671875 105.37109375 C53.0014073 107.08990688 53.85986464 108.68832398 55.32421875 111.68359375 C55.62972656 113.37355469 55.62972656 113.37355469 55.94140625 115.09765625 C57.76087661 119.81594379 60.45004804 120.91198692 64.82421875 122.87109375 C79.83313393 130.2077867 93.6139999 139.85915232 106.32421875 150.68359375 C107.32324219 151.53179687 108.32226562 152.38 109.3515625 153.25390625 C120.26464021 163.28375819 126.60409984 176.21603986 127.53125 190.98046875 C127.99228446 206.62148974 123.26826367 221.15815021 113.01171875 233.12109375 C106.36501024 239.99349695 98.4761448 245.67038292 89.32421875 248.68359375 C88.33421875 248.68359375 87.34421875 248.68359375 86.32421875 248.68359375 C86.55542419 249.41843994 86.78662964 250.15328613 87.02484131 250.91040039 C88.16118517 254.52226891 89.29742129 258.13417131 90.43359375 261.74609375 C90.64831455 262.42868759 90.86303535 263.11128143 91.08426285 263.81455994 C93.74710181 272.28005448 96.40840356 280.74602957 99.06689453 289.21289062 C99.31742647 290.01076744 99.56795841 290.80864426 99.82608223 291.63069916 C100.85349694 294.90278423 101.88090117 298.17487258 102.90816116 301.44700623 C105.8979347 310.96987305 108.8924818 320.49119444 111.89890289 330.00881958 C113.69880914 335.70730257 115.49434469 341.4071504 117.28673553 347.10800171 C118.33011562 350.42579474 119.37564302 353.74287003 120.42712402 357.05810547 C135.72350252 405.33881139 135.72350252 405.33881139 139.19921875 427.99609375 C139.49070801 429.78901855 139.49070801 429.78901855 139.78808594 431.61816406 C142.93960238 451.34590793 144.37754541 470.90240469 144.63671875 490.87109375 C144.66652832 492.13727539 144.69633789 493.40345703 144.72705078 494.70800781 C144.79827547 506.0160643 144.79827547 506.0160643 140.32421875 510.68359375 C137.13002203 512.81305823 136.14272879 512.97925404 132.44921875 512.99609375 C131.60617187 513.01285156 130.763125 513.02960937 129.89453125 513.046875 C126.49344094 512.56617379 125.01354264 511.88394966 122.32421875 509.68359375 C120.17258076 506.65557765 118.41086065 503.44355043 116.63671875 500.18359375 C116.11271484 499.23871094 115.58871094 498.29382813 115.04882812 497.3203125 C113.97365481 495.37327137 112.90480721 493.42272383 111.84228516 491.46875 C110.49524042 488.99736268 109.1235064 486.54215786 107.7421875 484.08984375 C102.4115999 474.46854909 97.98149757 464.51748568 93.76171875 454.37109375 C93.36255249 453.41674438 93.36255249 453.41674438 92.95532227 452.44311523 C88.16881636 440.9462762 88.16881636 440.9462762 87.32421875 434.68359375 C86.66421875 434.68359375 86.00421875 434.68359375 85.32421875 434.68359375 C85.26234375 435.59109375 85.20046875 436.49859375 85.13671875 437.43359375 C82.45848523 455.63090641 68.24980592 471.69096416 54.32421875 482.68359375 C33.44788975 498.00046557 3.42435163 502.82840037 -21.67578125 505.68359375 C-22.73152344 505.81378906 -23.78726563 505.94398438 -24.875 506.078125 C-87.89131923 512.38817032 -152.06927731 492.56660333 -200.98828125 452.68359375 C-215.47721337 440.27612439 -229.10798331 426.61080259 -239.67578125 410.68359375 C-240.36824951 409.64501221 -240.36824951 409.64501221 -241.07470703 408.58544922 C-256.52110096 385.0939476 -266.98251478 359.41486318 -271.67578125 331.68359375 C-271.85149658 330.67329102 -271.85149658 330.67329102 -272.03076172 329.64257812 C-280.20735683 280.51011061 -266.45143098 229.25700337 -237.73828125 189.05859375 C-200.29795496 138.75042716 -145.63949985 107.1377756 -83.67578125 97.68359375 C-82.93666504 97.5664502 -82.19754883 97.44930664 -81.43603516 97.32861328 C-63.06080254 94.55646992 -44.2029365 95.49815102 -25.67578125 95.68359375 C-26.1644165 94.73532715 -26.65305176 93.78706055 -27.15649414 92.81005859 C-27.79991074 91.54668635 -28.44304353 90.28316953 -29.0859375 89.01953125 C-29.40776001 88.3968335 -29.72958252 87.77413574 -30.06115723 87.13256836 C-35.21043417 76.96732909 -36.04867968 66.74922034 -32.84375 55.85546875 C-29.91114942 47.89134945 -25.76025981 40.38582754 -21.62109375 32.9921875 C-17.26607903 25.16265136 -13.86676469 17.36411743 -11.02124023 8.85229492 C-10.75641846 8.07861572 -10.49159668 7.30493652 -10.21875 6.5078125 C-9.87880005 5.4727356 -9.87880005 5.4727356 -9.53198242 4.41674805 C-7.63475781 0.57631534 -3.99463906 -0.12191897 0 0 Z M37.03076172 263.93164062 C36.34385254 264.28291016 35.65694336 264.63417969 34.94921875 264.99609375 C34.24039551 265.35638672 33.53157227 265.71667969 32.80126953 266.08789062 C19.72612242 272.96369027 8.7008877 281.48627585 3.95703125 295.95703125 C2.32221045 303.00088879 4.23627082 308.89911679 7.6328125 315.140625 C14.94438584 326.13331379 25.89901451 332.44726945 37.40234375 338.2734375 C47.7642429 343.52877257 56.87639814 348.62056 65.32421875 356.68359375 C66.71297075 352.51733775 65.52508327 349.16049756 64.55761719 345.00537109 C64.35775711 344.11896439 64.15789703 343.23255768 63.95198059 342.31929016 C63.28757847 339.38405587 62.61118001 336.45174806 61.93359375 333.51953125 C61.46820085 331.48604652 61.00313754 329.45248634 60.53839111 327.41885376 C59.56191067 323.15554079 58.57908741 318.89374761 57.59228516 314.6328125 C56.32575054 309.16017353 55.07860539 303.68332018 53.83660507 298.20506859 C52.88144137 294.00465481 51.91428331 289.80707238 50.94361115 285.61021805 C50.47856169 283.5912625 50.01771953 281.57133321 49.56108856 279.550457 C48.92263097 276.73159752 48.26774415 273.9170628 47.60839844 271.10302734 C47.42124771 270.26041855 47.23409698 269.41780975 47.04127502 268.54966736 C46.56773659 266.56805875 45.95859561 264.61971805 45.32421875 262.68359375 C41.6708056 261.46578937 40.38406921 262.30893757 37.03076172 263.93164062 Z " fill="#DAECFE" transform="translate(320.67578125,-0.68359375)"/>
<path d="M0 0 C4.18699165 1.23146813 6.75651565 4.61981685 9.8046875 7.62109375 C14.04014678 11.52643447 18.91306696 14.39714 23.82421875 17.37109375 C24.74372314 17.92829102 25.66322754 18.48548828 26.6105957 19.05957031 C28.38855329 20.13077899 30.16834621 21.19894891 31.95019531 22.26367188 C46.41203978 30.91341349 56.31136986 38.02324304 61.32421875 54.68359375 C64.90349333 69.49519709 60.93309907 83.8657 53.32421875 96.68359375 C52.62167969 97.56144531 51.91914063 98.43929687 51.1953125 99.34375 C49.15296106 101.62150969 49.15296106 101.62150969 48.32421875 104.68359375 C48.92234375 104.91046875 49.52046875 105.13734375 50.13671875 105.37109375 C53.0014073 107.08990688 53.85986464 108.68832398 55.32421875 111.68359375 C55.62972656 113.37355469 55.62972656 113.37355469 55.94140625 115.09765625 C57.76087661 119.81594379 60.45004804 120.91198692 64.82421875 122.87109375 C79.83313393 130.2077867 93.6139999 139.85915232 106.32421875 150.68359375 C107.32324219 151.53179687 108.32226562 152.38 109.3515625 153.25390625 C120.26464021 163.28375819 126.60409984 176.21603986 127.53125 190.98046875 C127.99228446 206.62148974 123.26826367 221.15815021 113.01171875 233.12109375 C106.36501024 239.99349695 98.4761448 245.67038292 89.32421875 248.68359375 C88.33421875 248.68359375 87.34421875 248.68359375 86.32421875 248.68359375 C86.55542419 249.41843994 86.78662964 250.15328613 87.02484131 250.91040039 C88.16118517 254.52226891 89.29742129 258.13417131 90.43359375 261.74609375 C90.64831455 262.42868759 90.86303535 263.11128143 91.08426285 263.81455994 C93.74710181 272.28005448 96.40840356 280.74602957 99.06689453 289.21289062 C99.31742647 290.01076744 99.56795841 290.80864426 99.82608223 291.63069916 C100.85349694 294.90278423 101.88090117 298.17487258 102.90816116 301.44700623 C105.8979347 310.96987305 108.8924818 320.49119444 111.89890289 330.00881958 C113.69880914 335.70730257 115.49434469 341.4071504 117.28673553 347.10800171 C118.33011562 350.42579474 119.37564302 353.74287003 120.42712402 357.05810547 C135.72350252 405.33881139 135.72350252 405.33881139 139.19921875 427.99609375 C139.39354492 429.19137695 139.58787109 430.38666016 139.78808594 431.61816406 C142.93960238 451.34590793 144.37754541 470.90240469 144.63671875 490.87109375 C144.68143311 492.77036621 144.68143311 492.77036621 144.72705078 494.70800781 C144.79827547 506.0160643 144.79827547 506.0160643 140.32421875 510.68359375 C137.13002203 512.81305823 136.14272879 512.97925404 132.44921875 512.99609375 C131.60617187 513.01285156 130.763125 513.02960937 129.89453125 513.046875 C126.49344094 512.56617379 125.01354264 511.88394966 122.32421875 509.68359375 C120.17258076 506.65557765 118.41086065 503.44355043 116.63671875 500.18359375 C116.11271484 499.23871094 115.58871094 498.29382813 115.04882812 497.3203125 C113.97365481 495.37327137 112.90480721 493.42272383 111.84228516 491.46875 C110.49524042 488.99736268 109.1235064 486.54215786 107.7421875 484.08984375 C88.27457004 448.9857111 78.18342344 410.16267854 69.68389893 371.21286011 C67.97485239 363.43994194 66.10514565 355.72246088 64.13671875 348.01171875 C60.10623736 332.04433544 56.42726948 316.00136792 52.77630615 299.94372559 C52.09059066 296.93197791 51.40132806 293.92104666 50.71209717 290.91010189 C47.11641341 275.19604338 43.58098087 259.47337377 40.26219177 243.69812012 C38.68841954 236.24295477 36.93860081 228.85741868 34.98828125 221.4921875 C34.32421875 218.68359375 34.32421875 218.68359375 34.32421875 215.68359375 C33.75703125 215.84085938 33.18984375 215.998125 32.60546875 216.16015625 C30.30441365 216.68813807 28.18171905 216.95363654 25.82421875 217.05859375 C25.07140625 217.10757813 24.31859375 217.1565625 23.54296875 217.20703125 C20.12323497 216.40026307 19.18257144 214.59214995 17.32421875 211.68359375 C16.05859375 208.34375 16.05859375 208.34375 15.07421875 204.74609375 C14.7390625 203.56144531 14.40390625 202.37679687 14.05859375 201.15625 C13.34854096 197.79860676 12.96373579 195.09395227 13.32421875 191.68359375 C13.82771347 191.05862503 14.33120819 190.43365631 14.84996033 189.78974915 C17.10180948 186.5727119 16.35570159 184.25665849 15.84695435 180.50497437 C14.92214646 175.51347378 13.57229627 170.67068609 12.1640625 165.796875 C11.70006798 164.14500435 11.70006798 164.14500435 11.22669983 162.45976257 C9.91404607 157.78685274 8.58216983 153.11949106 7.25073242 148.4519043 C6.27692557 145.02727481 5.313944 141.59972951 4.3515625 138.171875 C4.04846664 137.1238118 3.74537079 136.0757486 3.43309021 134.9959259 C0.02679821 122.84605632 0.02679821 122.84605632 2.32421875 117.24609375 C2.65421875 116.73046875 2.98421875 116.21484375 3.32421875 115.68359375 C2.44121094 115.28269531 1.55820312 114.88179688 0.6484375 114.46875 C-7.69336757 110.56151851 -15.09471645 106.2780893 -21.67578125 99.68359375 C-21.67578125 99.02359375 -21.67578125 98.36359375 -21.67578125 97.68359375 C-22.26101563 97.48765625 -22.84625 97.29171875 -23.44921875 97.08984375 C-26.566979 95.12073201 -27.75903018 92.41340275 -29.30078125 89.18359375 C-29.60636963 88.55501465 -29.91195801 87.92643555 -30.22680664 87.27880859 C-35.07117822 76.94748503 -36.06359526 66.79991929 -32.84375 55.85546875 C-29.91114942 47.89134945 -25.76025981 40.38582754 -21.62109375 32.9921875 C-17.26607903 25.16265136 -13.86676469 17.36411743 -11.02124023 8.85229492 C-10.75641846 8.07861572 -10.49159668 7.30493652 -10.21875 6.5078125 C-9.9921167 5.81776123 -9.7654834 5.12770996 -9.53198242 4.41674805 C-7.63475781 0.57631534 -3.99463906 -0.12191897 0 0 Z " fill="#FED064" transform="translate(320.67578125,-0.68359375)"/>
<path d="M0 0 C1.00423004 -0.00163147 1.00423004 -0.00163147 2.02874756 -0.0032959 C22.62550132 0.00050132 22.62550132 0.00050132 25.8125 3.1875 C25.02939453 3.35765625 24.24628906 3.5278125 23.43945312 3.703125 C-23.13624311 13.92639516 -68.49957213 31.09910355 -102.19140625 66.32421875 C-114.52709043 79.21882018 -114.52709043 79.21882018 -123.56640625 82.19921875 C-130.26530131 84.72503164 -135.82662211 90.94773059 -139.1875 97.1875 C-140.8286226 101.16821607 -141.31473883 104.44676631 -141.26049805 108.74145508 C-141.21458225 117.79968168 -143.67898602 124.45297939 -147.60229492 132.52514648 C-150.425163 138.36759233 -152.71143741 144.15405809 -154.5625 150.375 C-154.80718018 151.19589111 -155.05186035 152.01678223 -155.30395508 152.86254883 C-156.67055453 157.69573798 -157.58232384 162.45536696 -158.25488281 167.42919922 C-159.48765674 176.47932527 -159.48765674 176.47932527 -161.828125 178.84765625 C-163.8125 179.75 -163.8125 179.75 -165.9375 180.40625 C-173.66011864 183.0877148 -178.56630443 190.54159506 -182.03515625 197.52734375 C-186.55329781 207.95735867 -186.03165174 217.42857793 -182.44140625 228.07421875 C-179.05568358 236.4805146 -173.954984 242.46558633 -166.1875 247.1875 C-164.60903342 247.66232328 -163.02566407 248.12119651 -161.4375 248.5625 C-159.171875 249.49609375 -159.171875 249.49609375 -157.1875 251.1875 C-155.85752844 254.40159793 -154.96648522 257.49824861 -154.13305664 260.86425781 C-149.34312411 280.13645594 -139.52229034 298.68043151 -127.875 314.67578125 C-126.1875 317.1875 -126.1875 317.1875 -126.1875 319.1875 C-125.5275 319.1875 -124.8675 319.1875 -124.1875 319.1875 C-124.34476562 318.65125 -124.50203125 318.115 -124.6640625 317.5625 C-126.80782011 307.83559978 -125.28900385 298.6820971 -120.1875 290.1875 C-114.67750055 283.1900102 -108.09601625 277.92458099 -99.1875 276.1875 C-88.24053341 275.34648619 -79.65021461 276.3587674 -70.9375 283.3125 C-64.44416259 289.39753424 -60.15730101 296.96258709 -59.79272461 305.88696289 C-59.59720147 316.12902348 -61.33942546 323.58220239 -68.23828125 331.55859375 C-75.52271901 338.61013652 -82.66450308 341.37311446 -92.75 341.625 C-98.82245182 341.47103317 -103.60624124 340.53750369 -109.1875 338.1875 C-101.89391621 345.71020161 -94.51438988 352.79148313 -86.1875 359.1875 C-85.62691895 359.6191748 -85.06633789 360.05084961 -84.48876953 360.49560547 C-76.00891579 366.98507789 -67.30322397 372.8698983 -58.01855469 378.14648438 C-56.26785798 379.14181381 -54.52815444 380.15640522 -52.7890625 381.171875 C-41.11886705 387.72816458 -28.70072093 392.49315536 -16.1875 397.1875 C-15.1039624 397.59959717 -15.1039624 397.59959717 -13.99853516 398.02001953 C0.31807782 403.35584084 15.82724376 405.46175303 30.8125 408.1875 C30.8125 408.5175 30.8125 408.8475 30.8125 409.1875 C-30.16702974 418.01141128 -93.71954549 401.45761016 -143.28515625 365.125 C-161.9058105 351.20808297 -179.30009945 334.61068742 -192.1875 315.1875 C-192.87996826 314.14891846 -192.87996826 314.14891846 -193.58642578 313.08935547 C-209.03281971 289.59785385 -219.49423353 263.91876943 -224.1875 236.1875 C-224.30464355 235.51396484 -224.42178711 234.84042969 -224.54248047 234.14648438 C-232.71907558 185.01401686 -218.96314973 133.76090962 -190.25 93.5625 C-152.85879037 43.32033095 -98.12517646 11.52074123 -36.1875 2.1875 C-35.41116211 2.07035645 -34.63482422 1.95321289 -33.83496094 1.83251953 C-22.58678745 0.23344459 -11.34230992 0.00998707 0 0 Z " fill="#B5DCFE" transform="translate(273.1875,94.8125)"/>
<path d="M0 0 C4.18699165 1.23146813 6.75651565 4.61981685 9.8046875 7.62109375 C14.04014678 11.52643447 18.91306696 14.39714 23.82421875 17.37109375 C24.74372314 17.92829102 25.66322754 18.48548828 26.6105957 19.05957031 C28.38855329 20.13077899 30.16834621 21.19894891 31.95019531 22.26367188 C46.41203978 30.91341349 56.31136986 38.02324304 61.32421875 54.68359375 C64.90349333 69.49519709 60.93309907 83.8657 53.32421875 96.68359375 C52.62167969 97.56144531 51.91914063 98.43929687 51.1953125 99.34375 C49.15296106 101.62150969 49.15296106 101.62150969 48.32421875 104.68359375 C48.92234375 104.91046875 49.52046875 105.13734375 50.13671875 105.37109375 C53.49773656 107.38770443 54.83651392 110.04886182 55.95141602 113.78588867 C56.5742623 116.32754957 57.14406727 118.87630195 57.69921875 121.43359375 C59.36207655 128.7480273 61.16855687 135.95887217 63.38061523 143.12646484 C64.63825227 147.23361063 65.75047894 151.34801751 66.76171875 155.5234375 C67.01123291 156.52383057 67.26074707 157.52422363 67.51782227 158.55493164 C68.00433702 160.51935273 68.47180417 162.48861463 68.91772461 164.46264648 C70.2016484 169.98693836 70.2016484 169.98693836 74.328125 173.62890625 C75.31683594 173.97695312 76.30554688 174.325 77.32421875 174.68359375 C80.78648069 177.19665129 81.39403464 180.47500033 82.51171875 184.49609375 C82.85589844 185.69878906 83.20007813 186.90148437 83.5546875 188.140625 C84.55195827 192.73212037 85.13962757 196.15913378 82.88671875 200.37109375 C76.74461923 205.91396404 66.52144783 207.04964844 58.69921875 209.12109375 C56.38536194 209.73547102 54.07155954 210.35005324 51.7578125 210.96484375 C50.65034668 211.25875 49.54288086 211.55265625 48.40185547 211.85546875 C45.79685908 212.55641653 43.20143272 213.28033312 40.609375 214.02734375 C27.94161475 217.65993086 27.94161475 217.65993086 21.32421875 216.68359375 C17.74146213 213.09416533 16.39857308 209.58629352 15.07421875 204.74609375 C14.7390625 203.56144531 14.40390625 202.37679687 14.05859375 201.15625 C13.34854096 197.79860676 12.96373579 195.09395227 13.32421875 191.68359375 C13.82771347 191.05862503 14.33120819 190.43365631 14.84996033 189.78974915 C17.10180948 186.5727119 16.35570159 184.25665849 15.84695435 180.50497437 C14.92214646 175.51347378 13.57229627 170.67068609 12.1640625 165.796875 C11.70006798 164.14500435 11.70006798 164.14500435 11.22669983 162.45976257 C9.91404607 157.78685274 8.58216983 153.11949106 7.25073242 148.4519043 C6.27692557 145.02727481 5.313944 141.59972951 4.3515625 138.171875 C4.04846664 137.1238118 3.74537079 136.0757486 3.43309021 134.9959259 C0.02679821 122.84605632 0.02679821 122.84605632 2.32421875 117.24609375 C2.65421875 116.73046875 2.98421875 116.21484375 3.32421875 115.68359375 C2.44121094 115.28269531 1.55820312 114.88179688 0.6484375 114.46875 C-7.69336757 110.56151851 -15.09471645 106.2780893 -21.67578125 99.68359375 C-21.67578125 99.02359375 -21.67578125 98.36359375 -21.67578125 97.68359375 C-22.26101563 97.48765625 -22.84625 97.29171875 -23.44921875 97.08984375 C-26.566979 95.12073201 -27.75903018 92.41340275 -29.30078125 89.18359375 C-29.60636963 88.55501465 -29.91195801 87.92643555 -30.22680664 87.27880859 C-35.07117822 76.94748503 -36.06359526 66.79991929 -32.84375 55.85546875 C-29.91114942 47.89134945 -25.76025981 40.38582754 -21.62109375 32.9921875 C-17.26607903 25.16265136 -13.86676469 17.36411743 -11.02124023 8.85229492 C-10.75641846 8.07861572 -10.49159668 7.30493652 -10.21875 6.5078125 C-9.9921167 5.81776123 -9.7654834 5.12770996 -9.53198242 4.41674805 C-7.63475781 0.57631534 -3.99463906 -0.12191897 0 0 Z " fill="#E29A73" transform="translate(320.67578125,-0.68359375)"/>
<path d="M0 0 C6.375 27.625 12.75 55.25 19.125 82.875 C19.31061996 83.67934982 19.49623993 84.48369965 19.68748474 85.31242371 C20.06254155 86.93767665 20.43759241 88.56293096 20.81263733 90.18818665 C21.74921949 94.2468279 22.68590443 98.30544538 23.62280273 102.36401367 C25.70338571 111.37749873 27.78133916 120.39158246 29.85606384 129.40641785 C31.35437536 135.91442395 32.85997433 142.42072874 34.36756897 148.92658997 C35.44157615 153.5670239 36.50322652 158.21006537 37.55511475 162.8555603 C51.08858521 226.94445124 51.08858521 226.94445124 84 282 C85.07197055 294.28372816 85.07197055 294.28372816 82.1875 298.6875 C79.84065092 301.16845474 78.15553229 302.84919324 74.6953125 303.30078125 C73.84710938 303.30464844 72.99890625 303.30851562 72.125 303.3125 C71.28195312 303.32925781 70.43890625 303.34601563 69.5703125 303.36328125 C66.16922219 302.88258004 64.68932389 302.20035591 62 300 C59.84836201 296.9719839 58.0866419 293.75995668 56.3125 290.5 C55.78849609 289.55511719 55.26449219 288.61023438 54.72460938 287.63671875 C53.64943606 285.68967762 52.58058846 283.73913008 51.51806641 281.78515625 C50.17102167 279.31376893 48.79928765 276.85856411 47.41796875 274.40625 C27.95035129 239.30211735 17.85920469 200.47908479 9.35968018 161.52926636 C7.65063364 153.75634819 5.7809269 146.03886713 3.8125 138.328125 C-0.21798139 122.36074169 -3.89694927 106.31777417 -7.5479126 90.26013184 C-8.23362802 87.24838447 -8.92289048 84.2374535 -9.61212158 81.22650909 C-13.20820562 65.51069457 -16.7443503 49.7863691 -20.06202698 34.0090332 C-21.62881731 26.58552025 -23.37618391 19.23540977 -25.3359375 11.90625 C-26 9 -26 9 -26 5 C-22.60956594 3.9606132 -19.21199194 2.94682907 -15.8125 1.9375 C-14.37293945 1.49567383 -14.37293945 1.49567383 -12.90429688 1.04492188 C-11.50727539 0.6340332 -11.50727539 0.6340332 -10.08203125 0.21484375 C-8.80162964 -0.17006226 -8.80162964 -0.17006226 -7.49536133 -0.56274414 C-4.70204515 -1.05220988 -2.72333951 -0.71868866 0 0 Z " fill="#FEC250" transform="translate(381,209)"/>
<path d="M0 0 C3.6944405 2.06036105 5.36028596 3.40740648 6.93359375 7.32421875 C7.74376987 10.19971431 8.39338646 13.07485741 9 16 C9.45364173 18.04271422 9.91214655 20.08435331 10.375 22.125 C10.62378906 23.22199219 10.87257813 24.31898437 11.12890625 25.44921875 C12.25173794 30.02614255 13.5771959 34.53287953 14.95483398 39.03808594 C16.24433048 43.2910954 17.39912519 47.55119449 18.4453125 51.87109375 C18.69369873 52.8669751 18.94208496 53.86285645 19.19799805 54.88891602 C19.68287428 56.8468299 20.14860606 58.80960625 20.59301758 60.77709961 C21.8769788 66.30253624 21.8769788 66.30253624 26.00390625 69.9453125 C26.99261719 70.29335937 27.98132813 70.64140625 29 71 C32.46226194 73.51305754 33.06981589 76.79140658 34.1875 80.8125 C34.53167969 82.01519531 34.87585938 83.21789062 35.23046875 84.45703125 C36.22773952 89.04852662 36.81540882 92.47554003 34.5625 96.6875 C28.42040048 102.23037029 18.19722908 103.36605469 10.375 105.4375 C8.06114319 106.05187727 5.74734079 106.66645949 3.43359375 107.28125 C2.32612793 107.57515625 1.21866211 107.8690625 0.07763672 108.171875 C-2.52735967 108.87282278 -5.12278603 109.59673937 -7.71484375 110.34375 C-20.382604 113.97633711 -20.382604 113.97633711 -27 113 C-30.58275662 109.41057158 -31.92564567 105.90269977 -33.25 101.0625 C-33.58515625 99.87785156 -33.9203125 98.69320312 -34.265625 97.47265625 C-34.97567779 94.11501301 -35.36048296 91.41035852 -35 88 C-34.49650528 87.37503128 -33.99301056 86.75006256 -33.47425842 86.1061554 C-31.22240927 82.88911815 -31.96851716 80.57306474 -32.4772644 76.82138062 C-33.40207229 71.82988003 -34.75192248 66.98709234 -36.16015625 62.11328125 C-36.62415077 60.4614106 -36.62415077 60.4614106 -37.09751892 58.77616882 C-38.41017268 54.10325899 -39.74204892 49.43589731 -41.07348633 44.76831055 C-42.04729318 41.34368106 -43.01027475 37.91613576 -43.97265625 34.48828125 C-44.27575211 33.44021805 -44.57884796 32.39215485 -44.89112854 31.31233215 C-46.36193889 26.0661131 -47.56311673 21.45446825 -47 16 C-43.90817371 10.73691171 -40.83382867 9.14431918 -35.05639648 7.4909668 C-33.76004272 7.15512573 -33.76004272 7.15512573 -32.4375 6.8125 C-31.5494165 6.5647583 -30.66133301 6.3170166 -29.74633789 6.06176758 C-27.17000149 5.35001158 -24.58780048 4.66872248 -22 4 C-20.98292969 3.73461426 -20.98292969 3.73461426 -19.9453125 3.46386719 C-17.37420603 2.79764164 -14.79944681 2.15481883 -12.21484375 1.54296875 C-4.18486598 -0.42557959 -4.18486598 -0.42557959 0 0 Z " fill="#487B9E" transform="translate(369,103)"/>
<path d="M0 0 C4.98321143 3.84033816 8.2792044 7.75774891 11.1875 13.3125 C11.59871094 14.03695313 12.00992188 14.76140625 12.43359375 15.5078125 C16.55283425 23.91733463 16.64163849 34.41433624 14.421875 43.41796875 C10.21557126 54.45117022 2.20435732 63.18990723 -8.28125 68.58203125 C-17.46047579 72.40220904 -27.16396102 72.83676892 -36.625 69.6875 C-46.83411608 65.39997107 -55.34763917 59.01708325 -60.125 48.8125 C-64.51695699 37.78548353 -65.41073535 27.49457234 -60.8125 16.3125 C-55.5176797 5.14585976 -47.23157912 -2.09225745 -35.8125 -6.6875 C-23.35170397 -10.78852148 -10.43199335 -7.03422432 0 0 Z " fill="#FE73C7" transform="translate(150.8125,276.6875)"/>
<path d="M0 0 C5.02793053 0.58395256 8.91260283 2.87251033 13.25 5.3125 C14.43057983 5.97366821 14.43057983 5.97366821 15.63500977 6.64819336 C28.22200518 13.84273559 40.11207623 22.43026826 51 32 C51.86109375 32.73089844 52.7221875 33.46179688 53.609375 34.21484375 C64.2719658 43.92426356 70.30833136 56.98550322 71.20703125 71.296875 C71.66806571 86.93789599 66.94404492 101.47455646 56.6875 113.4375 C50.33815689 120.0024405 42.0471173 126.71723942 33 129 C31.35 128.67 29.7 128.34 28 128 C21.565 107.21 21.565 107.21 15 86 C17.35856889 84.82071555 19.72934685 83.66450045 22.125 82.5625 C25.22547632 81.16681716 25.22547632 81.16681716 27 78 C27.28665376 71.44791411 25.39887534 64.04161197 23 58 C20.68377108 55.56499011 19.01244047 54.40421082 15.93310547 53.17480469 C13.41157007 51.64239393 13.21274508 50.5936278 12.5078125 47.765625 C12.28061523 46.89180176 12.05341797 46.01797852 11.81933594 45.11767578 C11.59020508 44.17134277 11.36107422 43.22500977 11.125 42.25 C10.61247542 40.25247677 10.09943936 38.25508472 9.5859375 36.2578125 C9.32651367 35.22688477 9.06708984 34.19595703 8.79980469 33.13378906 C7.51817307 28.11210913 6.13000376 23.12035727 4.75 18.125 C3.09456118 12.09950624 1.49238252 6.06808364 0 0 Z " fill="#DAECFE" transform="translate(377,119)"/>
<path d="M0 0 C8.91957377 5.46777124 14.16423722 12.94709322 17 23 C18.26290891 33.23620909 16.21810386 41.83665407 10.390625 50.3515625 C4.81941862 57.17501252 -1.46100172 60.95064041 -10 63 C-18.72926852 63.80376562 -26.46602662 63.76064066 -34 59 C-35.04414063 58.36384766 -35.04414063 58.36384766 -36.109375 57.71484375 C-43.20337688 52.92772594 -47.80640432 46.26586735 -50 38 C-51.17569131 27.67015096 -50.7830177 18.30179583 -44.3515625 9.828125 C-33.04734734 -3.69744249 -16.17592417 -9.22383493 0 0 Z " fill="#EB625F" transform="translate(181,177)"/>
<path d="M0 0 C8.19555874 5.97088527 13.21348953 12.21806577 16 22 C16.96455279 31.70644701 16.70299123 39.73066271 11 48 C10.278125 49.0725 9.55625 50.145 8.8125 51.25 C1.90654909 58.00248534 -6.16482631 62.00834887 -15.8125 62.3125 C-27.13089902 62.06098002 -34.48769507 57.66128614 -42.3125 49.625 C-47.76749062 41.13945904 -49.87106627 33.04793342 -49 23 C-46.53854421 13.1682423 -40.95129933 5.53167116 -32.3515625 0.25390625 C-21.62707593 -5.46463227 -10.84644904 -5.77037261 0 0 Z " fill="#79C2A4" transform="translate(292,405)"/>
<path d="M0 0 C7.20053588 4.86487818 12.24981731 11.74945192 15 20 C15.93396112 30.86468697 15.69082031 39.85357966 9 49 C2.80744036 56.15977848 -4.19774145 60.40426008 -13.65234375 61.375 C-21.33483919 61.62059426 -27.44577824 61.12864363 -34 57 C-34.69609375 56.5875 -35.3921875 56.175 -36.109375 55.75 C-43.51001826 50.85333378 -47.62927066 43.43164371 -50 35 C-51.13264506 25.81961373 -49.77614786 17.95284155 -45 10 C-34.13461515 -3.79862562 -15.85649061 -9.30947271 0 0 Z " fill="#2F82D4" transform="translate(198,375)"/>
<path d="M0 0 C0.64324219 0.4125 1.28648437 0.825 1.94921875 1.25 C2.64402344 1.6625 3.33882813 2.075 4.0546875 2.5 C10.83976696 6.98095304 14.35262157 13.25850706 17.32421875 20.6875 C19.14135558 31.04517992 18.17518175 40.21659865 12.03125 48.98828125 C6.3527759 55.77229898 0.27042157 59.47626573 -8.05078125 62.25 C-16.55452491 62.91674597 -23.7019315 62.81282547 -31.05078125 58.25 C-31.74816406 57.82589844 -32.44554687 57.40179688 -33.1640625 56.96484375 C-40.27893798 52.15459837 -44.80546333 45.52328854 -47.05078125 37.25 C-48.36920352 25.35884532 -46.71763858 16.89038974 -39.48046875 7.1328125 C-30.03031814 -3.50431354 -12.64231112 -6.93521067 0 0 Z " fill="#FEC251" transform="translate(270.05078125,134.75)"/>
<path d="M0 0 C4.50394348 1.35634304 7.49791606 4.8982854 10.7734375 8.140625 C13.19645355 10.53104442 15.69389467 12.6421217 18.38671875 14.71875 C18.05986084 15.31187988 17.73300293 15.90500977 17.39624023 16.51611328 C9.67124927 30.50206899 9.67124927 30.50206899 2.26171875 44.65625 C1.74351562 45.67589844 1.2253125 46.69554687 0.69140625 47.74609375 C-3.52991625 57.36413692 -4.08168896 67.7625618 -0.61328125 77.71875 C5.14066849 91.76034893 13.24627232 100.08009796 26.38671875 107.71875 C23.82867147 109.42411485 22.33085455 110.16208626 19.48046875 110.97265625 C18.36478516 111.29459961 18.36478516 111.29459961 17.2265625 111.62304688 C16.06833984 111.94885742 16.06833984 111.94885742 14.88671875 112.28125 C13.35536574 112.71969247 11.82411174 113.15848092 10.29296875 113.59765625 C9.61556641 113.7891626 8.93816406 113.98066895 8.24023438 114.17797852 C6.61076602 114.65338321 4.99701657 115.18198406 3.38671875 115.71875 C-5.9655127 112.19935764 -14.54682932 106.79962326 -21.61328125 99.71875 C-21.61328125 99.05875 -21.61328125 98.39875 -21.61328125 97.71875 C-22.19851563 97.5228125 -22.78375 97.326875 -23.38671875 97.125 C-26.504479 95.15588826 -27.69653018 92.448559 -29.23828125 89.21875 C-29.54386963 88.5901709 -29.84945801 87.9615918 -30.16430664 87.31396484 C-35.00867822 76.98264128 -36.00109526 66.83507554 -32.78125 55.890625 C-29.84864942 47.9265057 -25.69775981 40.42098379 -21.55859375 33.02734375 C-17.20357903 25.19780761 -13.80426469 17.39927368 -10.95874023 8.88745117 C-10.69391846 8.11377197 -10.42909668 7.34009277 -10.15625 6.54296875 C-9.9296167 5.85291748 -9.7029834 5.16286621 -9.46948242 4.4519043 C-7.582716 0.63264145 -3.97530761 -0.05878459 0 0 Z " fill="#DD8858" transform="translate(320.61328125,-0.71875)"/>
<path d="M0 0 C9.3438161 4.34970749 14.86552793 9.04351922 20 18 C20.41765625 18.72832031 20.8353125 19.45664062 21.265625 20.20703125 C25.34509008 28.63888338 25.45638293 39.0927325 23.234375 48.10546875 C19.84988061 56.98305125 14.26531754 63.38713327 7.0625 69.4375 C6.43472656 69.97246094 5.80695313 70.50742187 5.16015625 71.05859375 C3 72 3 72 0.0625 71.41796875 C-7.83469994 67.76148459 -14.25722781 60.80504931 -18 53 C-18.31710938 52.34902344 -18.63421875 51.69804687 -18.9609375 51.02734375 C-22.5055019 42.32852745 -22.31134197 31.8960978 -19.375 23.0625 C-15.6584307 14.30849007 -9.57223541 7.69432102 -2 2 C-1.34 2 -0.68 2 0 2 C0 1.34 0 0.68 0 0 Z " fill="#FE94D5" transform="translate(142,272)"/>
<path d="M0 0 C-0.0721875 1.0413208 -0.144375 2.0826416 -0.21875 3.15551758 C-0.20760831 9.51367887 1.77770118 15.44112587 3.5 21.51171875 C3.85979921 22.81080395 4.2185045 24.11019257 4.57617188 25.40986633 C5.51457071 28.81167413 6.46399804 32.21028775 7.41699219 35.60803223 C8.94414761 41.05507843 10.46002923 46.50519244 11.96508789 51.95838356 C12.49118229 53.85493127 13.02579389 55.74910971 13.56054688 57.64323425 C13.88087891 58.79825943 14.20121094 59.95328461 14.53125 61.14331055 C14.81548828 62.15620651 15.09972656 63.16910248 15.39257812 64.21269226 C16 67 16 67 16 72 C7.09 74.31 -1.82 76.62 -11 79 C-14.77165772 67.19520117 -18.22926586 55.3305398 -21.50415039 43.37866211 C-22.32053845 40.40825227 -23.14951502 37.44152044 -23.97851562 34.47460938 C-24.50337977 32.56531721 -25.02749602 30.65581926 -25.55078125 28.74609375 C-25.79758133 27.86996933 -26.04438141 26.99384491 -26.29866028 26.09117126 C-27.59654239 21.29171653 -28.4378694 17.01944951 -28 12 C-24.85412209 6.56381767 -21.53022788 5.04863469 -15.59765625 3.33984375 C-14.69917969 3.10394531 -13.80070312 2.86804688 -12.875 2.625 C-11.96878906 2.36589844 -11.06257813 2.10679688 -10.12890625 1.83984375 C-3.55803571 0 -3.55803571 0 0 0 Z " fill="#3F6D8E" transform="translate(350,107)"/>
<path d="M0 0 C8.00542607 3.75764897 12.74636889 9.76987851 16.4375 17.75 C19.81474169 27.23564404 18.77239472 36.25831805 14.5546875 45.265625 C10.95154862 51.60280394 6.92213834 56.29867772 0 59 C-8.24766921 52.76842771 -12.73832935 45.78501196 -16 36 C-17.03774253 25.69669916 -15.37669291 17.05703036 -9.25 8.578125 C-6.43338257 5.25160269 -3.53968355 2.54826234 0 0 Z " fill="#F77C69" transform="translate(180,177)"/>
<path d="M0 0 C8.02283914 3.85096279 12.5447073 9.81641203 16 18 C18.21550099 27.40807815 17.64513645 36.42436349 13 45 C9.36877166 49.85052153 5.69921502 54.60373914 0 57 C0 56.34 0 55.68 0 55 C-0.5878125 54.73960937 -1.175625 54.47921875 -1.78125 54.2109375 C-7.75883206 50.94852476 -11.17041991 45.38569093 -13.4375 39.125 C-16.3306266 29.14308701 -15.4311183 21.39628017 -11 12 C-8.15519449 6.94785376 -4.57394382 3.51023595 0 0 Z " fill="#FED064" transform="translate(271,136)"/>
<path d="M0 0 C7.63878683 4.94388488 13.20259933 11.20456907 16 20 C17.15294259 30.74232089 16.66602856 40.01769486 10 49 C7.18538612 51.94275891 4.24746981 54.54635615 1 57 C-6.66593767 52.03854288 -12.14870057 45.80127131 -15 37 C-16.00636025 26.29598647 -15.1456065 16.86176035 -8.625 8.125 C-6.02083073 5.00110268 -3.35401517 2.33764693 0 0 Z " fill="#5291D9" transform="translate(197,375)"/>
<path d="M0 0 C6.5235383 3.61408568 12.1671477 9.03432834 15 16.0625 C17.23316924 24.43688464 17.60118537 34.72493367 13.8125 42.625 C10.87878369 47.55596386 7.24314399 53.37842801 2 56 C-3.17545063 55.16073774 -6.8041115 50.89427744 -10 47 C-15.3172996 38.4252556 -16.32292196 29.37697163 -14.5390625 19.4296875 C-12.08013572 11.12719356 -6.77358883 5.16082959 0 0 Z " fill="#95D6A4" transform="translate(292,406)"/>
<path d="M0 0 C1.093125 0.433125 2.18625 0.86625 3.3125 1.3125 C4.23482422 1.67794922 4.23482422 1.67794922 5.17578125 2.05078125 C8.65275514 3.85999893 9.78513514 5.42151769 11.16796875 9.14453125 C11.50441406 10.35496094 11.84085937 11.56539062 12.1875 12.8125 C12.53167969 14.01519531 12.87585938 15.21789062 13.23046875 16.45703125 C14.22773952 21.04852662 14.81540882 24.47554003 12.5625 28.6875 C9.02219088 31.88241311 5.54288508 32.77611772 1 34 C0.08089844 34.27972656 -0.83820313 34.55945313 -1.78515625 34.84765625 C-11.84957896 37.82406737 -11.84957896 37.82406737 -17 37 C-23.64674503 31.51363618 -25.29935253 23.72627932 -26.31640625 15.4140625 C-26.41887362 11.73889964 -26.07560079 10.11340119 -24 7 C-21.67749023 6.12451172 -21.67749023 6.12451172 -18.80859375 5.4296875 C-17.78185547 5.17316406 -16.75511719 4.91664063 -15.69726562 4.65234375 C-14.62154297 4.39582031 -13.54582031 4.13929688 -12.4375 3.875 C-10.31051029 3.35436371 -8.1841684 2.83107117 -6.05859375 2.3046875 C-5.11298584 2.07765137 -4.16737793 1.85061523 -3.19311523 1.61669922 C-1.04158318 1.20468089 -1.04158318 1.20468089 0 0 Z " fill="#5995B7" transform="translate(391,171)"/>
</svg>
