<?xml version="1.0" encoding="UTF-8"?>
<svg version="1.1" xmlns="http://www.w3.org/2000/svg" width="512" height="512">
<path d="M0 0 C1.01790619 0.00215515 2.03581238 0.0043103 3.08456421 0.00653076 C17.69363523 0.05620146 32.02575853 0.30709809 46.375 3.3125 C47.34985352 3.51117676 48.32470703 3.70985352 49.32910156 3.91455078 C97.7109774 14.03517194 141.69928269 35.9516877 177.375 70.3125 C178.3640332 71.26068604 178.3640332 71.26068604 179.37304688 72.22802734 C188.86130305 81.37247479 197.6012044 90.66984009 205.375 101.3125 C206.23306152 102.46355017 207.09113451 103.61459177 207.94921875 104.765625 C213.98736829 112.95680614 219.34595521 121.47054105 224.375 130.3125 C224.73948242 130.94430176 225.10396484 131.57610352 225.47949219 132.22705078 C247.00981855 169.84336237 256.83759735 212.56515288 256.75 255.625 C256.74918427 257.13927582 256.74918427 257.13927582 256.74835205 258.68414307 C256.70758601 275.19373539 255.80029309 291.11032001 252.375 307.3125 C252.15537598 308.35438477 251.93575195 309.39626953 251.70947266 310.46972656 C242.71140931 351.72199434 223.99081216 390.29861405 196.375 422.3125 C195.74078125 423.05757813 195.1065625 423.80265625 194.453125 424.5703125 C182.64198485 438.07529833 169.89139772 450.74668743 155.375 461.3125 C154.22505169 462.16899066 153.07531411 463.02576433 151.92578125 463.8828125 C143.73410474 469.9234414 135.21854922 475.28255071 126.375 480.3125 C125.74319824 480.67698242 125.11139648 481.04146484 124.46044922 481.41699219 C115.49470974 486.54868344 106.26644836 490.76035031 96.6875 494.625 C95.67896973 495.03355225 94.67043945 495.44210449 93.63134766 495.86303711 C85.92526645 498.89572479 78.42686236 501.0119679 70.375 503.3125 C70.375 440.2825 70.375 377.2525 70.375 312.3125 C88.855 312.3125 107.335 312.3125 126.375 312.3125 C126.705 307.0325 127.035 301.7525 127.375 296.3125 C127.80281096 292.42336664 128.25623876 288.5613198 128.78515625 284.6875 C128.90209839 283.79933594 129.01904053 282.91117187 129.13952637 281.99609375 C129.56622189 278.76743559 130.00235968 275.54003087 130.4375 272.3125 C131.8915625 261.4225 131.8915625 261.4225 133.375 250.3125 C112.585 249.9825 91.795 249.6525 70.375 249.3125 C70.313125 237.4634375 70.313125 237.4634375 70.25 225.375 C70.23179199 222.8987915 70.21358398 220.42258301 70.19482422 217.87133789 C70.18897691 215.88427954 70.18388192 213.89721878 70.1796875 211.91015625 C70.16945557 210.8982019 70.15922363 209.88624756 70.14868164 208.84362793 C70.14621355 198.69608069 71.35470581 190.06439913 78.375 182.3125 C86.03549004 176.603419 96.0153018 176.00492964 105.22265625 176.1171875 C106.01957886 176.11920166 106.81650146 176.12121582 107.63757324 176.12329102 C110.57094201 176.13363405 113.50422774 176.16155505 116.4375 176.1875 C123.016875 176.22875 129.59625 176.27 136.375 176.3125 C136.375 157.8325 136.375 139.3525 136.375 120.3125 C129.6925 119.9825 123.01 119.6525 116.125 119.3125 C114.04155273 119.20808594 111.95810547 119.10367188 109.81152344 118.99609375 C80.59509439 117.56016201 52.32590214 118.16921913 29.0625 138.6484375 C10.97874047 156.57448982 6.19787562 180.8262236 5.9609375 205.3671875 C5.94157135 206.63474884 5.9222052 207.90231018 5.9022522 209.20828247 C5.85314352 212.5256157 5.81165653 215.84292021 5.77410889 219.16040039 C5.73359722 222.56666265 5.68282162 225.97277238 5.6328125 229.37890625 C5.53598965 236.02337428 5.45587789 242.66774289 5.375 249.3125 C-12.775 249.3125 -30.925 249.3125 -49.625 249.3125 C-49.625 270.1025 -49.625 290.8925 -49.625 312.3125 C-31.475 312.3125 -13.325 312.3125 5.375 312.3125 C5.375 378.3125 5.375 444.3125 5.375 512.3125 C-28.28140516 512.3125 -28.28140516 512.3125 -44.625 509.3125 C-45.52959961 509.15152832 -46.43419922 508.99055664 -47.36621094 508.82470703 C-90.97715853 500.85717519 -132.06117058 481.2653241 -165.625 452.3125 C-166.37007813 451.67828125 -167.11515625 451.0440625 -167.8828125 450.390625 C-181.38779833 438.57948485 -194.05918743 425.82889772 -204.625 411.3125 C-205.48149066 410.16255169 -206.33826433 409.01281411 -207.1953125 407.86328125 C-213.23534209 399.67315742 -218.61867614 391.16870382 -223.625 382.3125 C-224.0271875 381.60528809 -224.429375 380.89807617 -224.84375 380.16943359 C-237.8691741 357.03404164 -246.61801461 331.86287591 -251.9375 305.875 C-252.08485596 305.15610596 -252.23221191 304.43721191 -252.3840332 303.6965332 C-255.35789088 288.05024391 -255.99800362 272.57681954 -255.9375 256.6875 C-255.93534485 255.66959381 -255.9331897 254.65168762 -255.93096924 253.60293579 C-255.88129854 238.99386477 -255.63040191 224.66174147 -252.625 210.3125 C-252.42632324 209.33764648 -252.22764648 208.36279297 -252.02294922 207.35839844 C-241.90232806 158.9765226 -219.9858123 114.98821731 -185.625 79.3125 C-184.99287598 78.65314453 -184.36075195 77.99378906 -183.70947266 77.31445312 C-174.56502521 67.82619695 -165.26765991 59.0862956 -154.625 51.3125 C-153.47394983 50.45443848 -152.32290823 49.59636549 -151.171875 48.73828125 C-142.98224019 42.70072604 -134.47961724 37.31792698 -125.625 32.3125 C-124.91778809 31.9103125 -124.21057617 31.508125 -123.48193359 31.09375 C-100.34654164 18.0683259 -75.17537591 9.31948539 -49.1875 4 C-48.46860596 3.85264404 -47.74971191 3.70528809 -47.0090332 3.5534668 C-31.36274391 0.57960912 -15.88931954 -0.06050362 0 0 Z " fill="#000000" transform="translate(255.625,-0.3125)"/>
</svg>
