<?xml version="1.0" encoding="UTF-8"?>
<svg version="1.1" xmlns="http://www.w3.org/2000/svg" width="512" height="512">
<path d="M0 0 C8.09039366 5.75573679 14.90741188 12.45325331 21.85539246 19.49523926 C23.0945424 20.73999883 24.33436703 21.98408708 25.5748291 23.22753906 C28.8052679 26.4693191 32.02658676 29.72001042 35.24595642 32.97277832 C38.54575186 36.30350839 41.85427766 39.62554249 45.16203308 42.94836426 C51.62688545 49.44519106 58.08211663 55.95148562 64.53117371 62.46398926 C64.53703995 61.76321259 64.54290619 61.06243591 64.5489502 60.34042358 C64.60697634 53.71981161 64.67910929 47.09951886 64.76688862 40.47923088 C64.81151947 37.07606269 64.850791 33.67301219 64.87760925 30.26965332 C64.908716 26.35240358 64.96350263 22.4356535 65.01945496 18.51867676 C65.02584488 17.30283905 65.0322348 16.08700134 65.03881836 14.83432007 C65.22343891 4.19470968 65.22343891 4.19470968 68.53117371 -0.53601074 C73.43141794 -4.95818237 76.01168094 -5.6630673 82.56364441 -5.69714355 C83.28742279 -5.70210846 84.01120117 -5.70707336 84.75691223 -5.71218872 C87.15693607 -5.72682117 89.55689379 -5.73361462 91.95695496 -5.73913574 C93.6236369 -5.74488693 95.29031883 -5.75064467 96.95700073 -5.75640869 C100.45495411 -5.76692219 103.95288448 -5.77276236 107.45085144 -5.77624512 C111.92996229 -5.78172626 116.4087686 -5.80574454 120.887784 -5.83421707 C124.33220299 -5.85285594 127.77654887 -5.85804974 131.22101402 -5.85958099 C132.87201284 -5.86260596 134.52301041 -5.87062925 136.17395973 -5.88376617 C138.48638058 -5.90085082 140.79806078 -5.89894069 143.11051941 -5.89245605 C144.42575089 -5.89610168 145.74098236 -5.89974731 147.09606934 -5.90350342 C152.06693143 -5.37171305 154.52799729 -3.67851722 157.78117371 0.02648926 C160.51924141 3.84022642 160.59886125 5.52589063 160.28564453 10.18515015 C160.20857112 11.40527864 160.13149771 12.62540714 160.05208874 13.88250923 C160.00841337 14.54423393 159.96473799 15.20595864 159.91973913 15.88773561 C158.5657899 36.68496331 157.81181415 57.50446938 157.34367371 78.33898926 C157.32320874 79.23404521 157.30274377 80.12910116 157.28165865 81.05128002 C154.52922803 137.98736613 154.52922803 137.98736613 178.68692017 187.27542114 C189.38512654 198.36902805 202.11779359 207.58742952 215.358078 215.39416504 C221.1341573 218.89345571 224.51249681 222.44908988 227.53117371 228.46398926 C228.25433777 229.85037598 228.25433777 229.85037598 228.99211121 231.26477051 C233.27757459 243.04063784 233.62040979 258.07867537 228.92179871 269.79211426 C222.22733016 282.65452012 212.91029638 291.03955221 199.53117371 296.46398926 C192.32539638 298.69181095 183.79180852 299.88420086 176.53117371 297.46398926 C176.53486088 298.29721805 176.53854805 299.13044683 176.54234695 299.98892498 C176.63085878 320.30566537 176.69696137 340.62237232 176.73842239 360.93926525 C176.7590079 370.76455314 176.78705143 380.58971197 176.83293152 390.41491699 C176.8729225 398.98309031 176.89863565 407.55117011 176.90752769 416.11943418 C176.91272175 420.65219635 176.92484517 425.18469109 176.95409393 429.71736717 C176.98145728 433.99292756 176.98957694 438.26811303 176.98360443 442.54375267 C176.98469539 444.10410609 176.99252389 445.66447343 177.00799561 447.22475052 C177.17697923 465.16207841 172.32194039 478.98679819 160.01554871 492.13977051 C151.08088982 500.49845296 139.05797013 506.55962534 126.67362976 506.60443115 C125.24795937 506.61299637 125.24795937 506.61299637 123.79348755 506.62173462 C122.7626857 506.62285248 121.73188385 506.62397034 120.66984558 506.62512207 C119.57499344 506.63008698 118.4801413 506.63505188 117.35211182 506.64016724 C113.73470937 506.65475858 110.11735073 506.66158456 106.49992371 506.66711426 C103.98556009 506.6728666 101.47119648 506.67862433 98.95683289 506.68438721 C94.36078193 506.69354637 89.76474352 506.69985128 85.16868448 506.70288396 C78.41025623 506.70736872 71.65202981 506.7249434 64.89366293 506.75388455 C59.03157943 506.77811392 53.16956329 506.7858285 47.30743408 506.78755951 C44.81632384 506.79058924 42.32521452 506.7986285 39.83413696 506.81174469 C36.3534353 506.82876879 32.87322805 506.82693399 29.39250183 506.82043457 C27.84629906 506.83425674 27.84629906 506.83425674 26.26885986 506.84835815 C17.52347147 506.79711447 17.52347147 506.79711447 13.53117371 503.46398926 C9.96339323 499.40068372 8.40521857 497.11372951 8.41091919 491.7437439 C8.40885719 490.25031464 8.40885719 490.25031464 8.40675354 488.72671509 C8.41034882 487.63051849 8.41394409 486.5343219 8.41764832 485.40490723 C8.41750229 484.25369385 8.41735626 483.10248047 8.41720581 481.91638184 C8.41790466 478.09629457 8.42569581 474.27625555 8.43351746 470.45617676 C8.43538173 467.81344632 8.43680559 465.17071553 8.43780518 462.52798462 C8.44091622 456.27358303 8.44912657 450.01919887 8.45915467 443.76480496 C8.47141789 435.94708849 8.47690007 428.1293692 8.48234558 420.31164551 C8.4920921 406.36241317 8.51212316 392.41321888 8.53117371 378.46398926 C-13.24882629 378.46398926 -35.02882629 378.46398926 -57.46882629 378.46398926 C-57.42242004 386.91250488 -57.37601379 395.36102051 -57.32820129 404.06555176 C-57.30516586 410.09619516 -57.28466063 416.12680553 -57.26781082 422.15746498 C-57.24564378 429.97051335 -57.21749991 437.78339093 -57.16706848 445.59631348 C-57.12289312 452.44330914 -57.09969245 459.2901198 -57.08931732 466.13724899 C-57.08192293 468.75035894 -57.06748361 471.3634587 -57.04590607 473.97649002 C-57.01689653 477.63481816 -57.01286945 481.29238113 -57.01472473 484.95080566 C-57.00034363 486.03262115 -56.98596252 487.11443665 -56.97114563 488.22903442 C-57.00459553 494.31912169 -57.44204528 497.80586723 -61.46882629 502.46398926 C-61.98445129 503.06211426 -62.50007629 503.66023926 -63.03132629 504.27648926 C-65.80528805 506.56802289 -68.59913642 506.59312994 -72.0320282 506.61116028 C-72.96816452 506.61831558 -73.90430084 506.62547089 -74.86880493 506.63284302 C-75.89422897 506.63553192 -76.91965302 506.63822083 -77.97615051 506.64099121 C-79.59871513 506.65084801 -79.59871513 506.65084801 -81.25405884 506.66090393 C-84.84387786 506.68065604 -88.43365488 506.69230743 -92.02351379 506.70227051 C-93.25121616 506.70634604 -94.47891853 506.71042156 -95.74382401 506.71462059 C-101.57815635 506.73334209 -107.41247224 506.74790107 -113.24682891 506.75623256 C-119.28937017 506.76500579 -125.33165873 506.7842106 -131.37409973 506.82067871 C-137.86799583 506.85924127 -144.36166448 506.87793331 -150.85567093 506.88243675 C-153.32343417 506.88728831 -155.79119424 506.89886109 -158.25889206 506.91747475 C-179.43990493 507.06723543 -195.09195311 504.98909646 -211.14460754 489.94445801 C-217.77887759 482.86418661 -221.68950414 474.68356866 -224.46882629 465.46398926 C-224.6463314 464.89261356 -224.8238365 464.32123787 -225.00672054 463.73254776 C-225.62252447 460.70945783 -225.5914401 457.84284331 -225.58908081 454.75689697 C-225.58993524 454.08377669 -225.59078966 453.4106564 -225.59166998 452.71713853 C-225.59331623 450.46313195 -225.58781741 448.20919991 -225.58235168 445.9552002 C-225.5820696 444.33886721 -225.58222796 442.72253409 -225.58279419 441.10620117 C-225.58308134 436.71813702 -225.57719782 432.33010015 -225.57022023 427.94204235 C-225.56397309 423.35628078 -225.56338182 418.77051859 -225.56219482 414.18475342 C-225.55908553 405.50088541 -225.55087754 396.81702997 -225.54084533 388.13316751 C-225.52967174 378.24692841 -225.5241706 368.36068871 -225.5191499 358.47444487 C-225.50869461 338.13761931 -225.49110292 317.80080508 -225.46882629 297.46398926 C-226.45882629 297.79398926 -227.44882629 298.12398926 -228.46882629 298.46398926 C-240.83477221 299.68415849 -253.21528173 295.89876671 -263.10163879 288.49133301 C-268.98525105 283.51221637 -273.09492917 278.38047835 -276.46882629 271.46398926 C-276.88132629 270.68023926 -277.29382629 269.89648926 -277.71882629 269.08898926 C-282.398563 258.68957436 -282.13862785 244.74107849 -278.96882629 233.90148926 C-274.71651388 223.75383557 -267.19836178 215.7479628 -259.48104858 208.09526062 C-258.61076662 207.22029869 -257.74048467 206.34533676 -256.84383053 205.44386083 C-254.45608011 203.04630035 -252.06189734 200.65553163 -249.66457593 198.26756489 C-247.06946537 195.6792948 -244.48306757 193.08234137 -241.89549255 190.48654175 C-236.83722102 185.41498472 -231.77093905 180.3515051 -226.70166297 175.29095008 C-222.58027558 171.17635785 -218.46184999 167.05882249 -214.34548759 162.93920326 C-213.75801808 162.35127404 -213.17054856 161.76334483 -212.56527693 161.15759957 C-211.37161311 159.96297651 -210.17795599 158.76834675 -208.98430549 157.57371036 C-197.81231069 146.39317725 -186.63116784 135.2218292 -175.44683462 124.05364058 C-165.8612988 114.48151353 -156.2836653 104.90153871 -146.71174622 95.3157959 C-135.57842787 84.16640625 -124.44023773 73.02192075 -113.29427952 61.88516599 C-112.10484034 60.6966824 -110.91540739 59.50819257 -109.72598076 58.31969643 C-109.14085158 57.73503008 -108.55572241 57.15036373 -107.95286204 56.54798022 C-103.84000694 52.43770982 -99.73063173 48.32398015 -95.62260628 44.20888329 C-90.61427007 39.19211495 -85.60058625 34.18076467 -80.58006758 29.17618682 C-78.02126225 26.62524007 -75.46486636 24.07200112 -72.91497231 21.51214409 C-70.14597873 18.73249569 -67.3653714 15.96465106 -64.58358765 13.19779968 C-63.78648819 12.39400806 -62.98938873 11.59021644 -62.16813475 10.7620675 C-45.93223193 -5.30558902 -20.80072026 -12.94142478 0 0 Z " fill="#000000" transform="translate(280.4688262939453,5.5360107421875)"/>
<path d="M0 0 C4.14428235 1.74280328 7.41824274 4.60264016 10.85894775 7.42738342 C11.54843305 7.99002087 12.23791835 8.55265831 12.94829714 9.13234538 C38.24640446 29.84871627 62.76739278 51.42434914 86.73657262 73.65886807 C87.74397654 74.5931873 88.75186388 75.52698557 89.76023829 76.46025729 C136.50686167 119.72555724 180.66324507 161.98401401 183.89618778 229.36004728 C184.37109678 242.3650901 183.78587115 255.27749845 182.875 268.25 C182.8096789 269.22458743 182.7443578 270.19917485 182.67705727 271.20329523 C181.29221963 291.63180247 179.04307227 311.91068927 175.34716797 332.05566406 C175.22523213 332.7422828 175.10329629 333.42890154 174.97766542 334.13632691 C173.10167758 344.48130488 170.52063001 355.71753619 162 362.625 C156.06901247 366.70255392 150.21401349 367.28962688 143.24072266 367.22705078 C142.38153229 367.22734283 141.52234192 367.22763489 140.63711548 367.22793579 C137.8126598 367.22654853 134.98847179 367.21101584 132.1640625 367.1953125 C130.19965763 367.19158022 128.2352509 367.18873426 126.27084351 367.18673706 C121.11202819 367.17911753 115.95332631 367.15948345 110.79455566 367.1373291 C105.52581313 367.11683447 100.25705219 367.10772761 94.98828125 367.09765625 C84.65880446 367.07623599 74.32941168 367.04212032 64 367 C63.99853344 366.39739035 63.99706688 365.79478069 63.99555588 365.17391014 C63.95847974 350.5008099 63.89945438 335.82791103 63.81609726 321.1550045 C63.77631347 314.05922448 63.74391772 306.96355525 63.72900391 299.86767578 C63.71459201 293.02052779 63.67947333 286.17373561 63.63169098 279.32674026 C63.61684671 276.71369027 63.60895725 274.10059126 63.60811615 271.48749924 C63.60575405 267.82902102 63.57873274 264.17149754 63.54589844 260.51318359 C63.5509288 259.4313681 63.55595917 258.34955261 63.56114197 257.23495483 C63.47712855 251.18963724 63.07644627 247.5812565 59 243 C56.48635244 241.17380913 56.48635244 241.17380913 54 240 C53.34 239.67 52.68 239.34 52 239 C50.64522899 238.90229173 49.28583025 238.86499941 47.92755127 238.85955811 C46.64906815 238.85099289 46.64906815 238.85099289 45.34475708 238.84225464 C44.40759857 238.84113678 43.47044006 238.84001892 42.50488281 238.83886719 C41.51936432 238.83390228 40.53384583 238.82893738 39.51846313 238.82382202 C36.24667674 238.80917541 32.97493885 238.80239366 29.703125 238.796875 C27.43349201 238.79112489 25.16385903 238.78536714 22.89422607 238.77960205 C18.12935153 238.76908446 13.3644939 238.76324699 8.59960938 238.75976562 C2.49517831 238.75428424 -3.60902932 238.73026685 -9.71339035 238.70179367 C-14.40428315 238.68316404 -19.09512222 238.67796147 -23.78604889 238.67642975 C-26.03630035 238.67340262 -28.28655085 238.66537209 -30.53676605 238.65224457 C-33.68711794 238.63518026 -36.83692527 238.63706565 -39.98730469 238.64355469 C-40.91636627 238.6343399 -41.84542786 238.62512512 -42.80264282 238.6156311 C-47.9569914 238.64887023 -51.54895332 239.10558467 -56 242 C-59.60940753 245.99961375 -61.11858262 248.38640373 -61.15821838 253.72024536 C-61.1680072 254.71586487 -61.17779602 255.71148437 -61.18788147 256.73727417 C-61.19363693 257.83347076 -61.1993924 258.92966736 -61.20532227 260.05908203 C-61.21522186 261.21029541 -61.22512146 262.36150879 -61.23532104 263.54760742 C-61.26700733 267.36765458 -61.29172165 271.1877142 -61.31640625 275.0078125 C-61.33696962 277.65054657 -61.35796592 280.29327731 -61.37937927 282.93600464 C-61.42932409 289.19037258 -61.47425626 295.44476616 -61.51740164 301.6991843 C-61.56675874 308.81883547 -61.62168252 315.93844026 -61.67708123 323.05804658 C-61.79092872 337.70532048 -61.89776173 352.35264053 -62 367 C-73.46592332 367.09282018 -84.93175674 367.16382612 -96.39797974 367.20724869 C-101.72264917 367.22809298 -107.04706089 367.2563531 -112.37158203 367.30175781 C-117.51334149 367.34532794 -122.65485358 367.36916085 -127.79678345 367.37950897 C-129.75513602 367.38688029 -131.71347559 367.40127477 -133.67172241 367.42292023 C-136.4220672 367.45210268 -139.17139945 367.45594982 -141.921875 367.45410156 C-142.72532852 367.46848267 -143.52878204 367.48286377 -144.35658264 367.49768066 C-152.34918014 367.43984274 -158.0850085 364.27476154 -164 359 C-169.51897843 350.82532832 -171.65358382 341.65569395 -173.37890625 332.08740234 C-173.51231352 331.37046774 -173.64572079 330.65353314 -173.7831707 329.91487324 C-177.53677541 309.55277527 -179.59354776 289.01908859 -181 268.375 C-181.0693148 267.4049737 -181.13862961 266.4349474 -181.21004486 265.43552637 C-184.81665538 213.88698998 -177.49588106 172.59214423 -143.09643555 132.62866211 C-124.971756 111.83781097 -105.23149741 92.65289803 -85 73.9375 C-83.97444828 72.98707215 -82.94890763 72.03663236 -81.92337799 71.08618069 C-55.37264991 46.50313299 -28.06641845 22.8397749 0 0 Z " fill="#E6EFEE" transform="translate(255,115)"/>
<path d="M0 0 C1.01900391 -0.01546875 1.01900391 -0.01546875 2.05859375 -0.03125 C10.38291755 1.73490918 15.69633996 7.06253137 21.47003174 12.90632629 C22.33159087 13.76235103 23.19315 14.61837576 24.08081698 15.50034064 C26.45669802 17.86500343 28.82334328 20.23825637 31.18641663 22.615677 C33.74222756 25.18262904 36.30957833 27.73799556 38.87545776 30.2948761 C43.89467663 35.30018216 48.90311502 40.31614248 53.90784124 45.33593515 C59.7391285 51.18410623 65.58046053 57.02220131 71.42206439 62.86006423 C81.84580728 73.27793219 92.25950553 83.70578432 102.66796875 94.13891602 C112.76295249 104.25782251 122.86631732 114.36826715 132.97851562 124.4699707 C143.99643626 135.47647703 155.00959049 146.48771241 166.01458812 157.50714129 C167.18848193 158.68256091 168.36237847 159.85797781 169.53627777 161.03339195 C170.11381818 161.61169017 170.69135858 162.18998839 171.28640021 162.7858108 C175.35265938 166.85680858 179.42220162 170.92450661 183.49295807 174.99100685 C188.45468774 179.94780531 193.41090897 184.91003589 198.36025622 189.8791993 C200.88461382 192.41341509 203.41127509 194.94521113 205.9445076 197.47055817 C208.69216006 200.20983253 211.42805816 202.96065809 214.16290283 205.71272278 C214.96289365 206.50670355 215.76288447 207.30068432 216.58711743 208.11872512 C227.1377237 218.79055834 227.1377237 218.79055834 227.125 226.4375 C226.87196218 231.80026933 225.25600264 235.59980499 221.5625 239.5 C216.80002191 243.2381757 211.98684143 243.95345126 206.0546875 244.03125 C199.31253039 242.59405036 194.44324386 236.65078251 189.78883362 231.93992615 C189.02502174 231.17500085 188.26120986 230.41007556 187.47425216 229.62197071 C184.920199 227.0618534 182.37337301 224.49466585 179.82641602 221.92749023 C177.99500763 220.08896824 176.16312727 218.25091628 174.33081055 216.41329956 C170.38766543 212.4575777 166.44798671 208.49843107 162.51043892 204.53713799 C156.81184735 198.80454421 151.10579543 193.07942105 145.39752506 187.35646666 C136.12835522 178.06342126 126.86220177 168.7673757 117.59936523 159.46801758 C117.04534945 158.91182155 116.49133367 158.35562553 115.92052954 157.78257508 C108.05593686 149.88675181 100.19433515 141.98795717 92.3339228 134.08797259 C91.50335391 133.25322376 91.50335391 133.25322376 90.65600586 132.40161133 C90.10297185 131.84579026 89.54993784 131.28996919 88.98014522 130.71730506 C79.7561183 121.44719611 70.52436796 112.18482328 61.28626007 102.92874676 C55.5913069 97.22209471 49.90295431 91.50901688 44.22294687 85.78748799 C39.87067019 81.40453451 35.50807156 77.03199248 31.14156342 72.66321945 C29.35263687 70.86999506 27.56715839 69.0733233 25.78539085 67.27298546 C23.35378862 64.81702421 20.91016061 62.3736855 18.46315002 59.93309021 C17.40846294 58.85887972 17.40846294 58.85887972 16.33246905 57.762968 C11.15346046 52.63664557 6.98760444 49.98930063 -0.375 48.9375 C-8.47628973 49.2815284 -15.09786711 57.8783264 -20.43389893 63.26934814 C-21.1974528 64.0326043 -21.96100667 64.79586046 -22.74769855 65.58224559 C-25.28872532 68.12465426 -27.82254357 70.67412443 -30.35644531 73.22363281 C-32.18317852 75.05420672 -34.01036936 76.88432405 -35.83798218 78.71401978 C-39.76431592 82.64610815 -43.68708446 86.58172379 -47.60752106 90.51969147 C-53.2790655 96.21641062 -58.95713943 101.90658637 -64.63698778 107.59502491 C-73.85787017 116.83001918 -83.07500529 126.06874309 -92.2890625 135.31054688 C-92.83974359 135.86288359 -93.39042469 136.41522031 -93.95779309 136.9842945 C-97.86779326 140.90609877 -101.77765994 144.82803611 -105.6875 148.75 C-110.16071098 153.23707519 -114.63398837 157.72408416 -119.10742188 162.2109375 C-119.65863965 162.76381153 -120.20985743 163.31668556 -120.77777877 163.88631335 C-129.96376483 173.0996563 -139.15366735 182.30908309 -148.34637904 191.51571536 C-154.0136362 197.1919369 -159.67730746 202.87169224 -165.33641407 208.55604002 C-169.66719959 212.90564426 -174.0030274 217.25018873 -178.34074783 221.59287643 C-180.12110759 223.37699053 -181.89973252 225.1628377 -183.67651749 226.95051193 C-186.0961218 229.38448091 -188.52176312 231.81226812 -190.94903564 234.23858643 C-191.6556437 234.95238441 -192.36225176 235.66618239 -193.09027219 236.40161061 C-194.06668546 237.37390083 -194.06668546 237.37390083 -195.06282425 238.36583328 C-195.90157683 239.20735124 -195.90157683 239.20735124 -196.75727391 240.06586957 C-201.07952249 243.75505655 -205.09266513 243.99639478 -210.61328125 243.87109375 C-215.12068648 243.27883442 -218.18596844 241.65207295 -221.4375 238.5 C-224.81253901 234.10193216 -226.22904507 229.37635255 -225.85356009 223.84132981 C-224.45694401 215.9820351 -217.35359467 209.98958305 -211.94888306 204.63043213 C-210.66968965 203.34421876 -210.66968965 203.34421876 -209.36465394 202.03202128 C-207.01189155 199.66940618 -204.65263967 197.31364213 -202.29030037 194.96062636 C-199.7381342 192.41527286 -197.19464684 189.8612712 -194.65000916 187.30839539 C-189.67021861 182.3152895 -184.68238144 177.3302981 -179.69157816 172.34820232 C-175.63494336 168.29835155 -171.58125701 164.24557131 -167.52964401 160.19069672 C-166.95229202 159.61288503 -166.37494003 159.03507334 -165.78009253 158.43975221 C-164.60712062 157.26582109 -163.43415544 156.09188327 -162.2611969 154.9179388 C-151.27145344 143.91964809 -140.27254641 132.93055853 -129.27046697 121.94460997 C-119.83492332 112.52247245 -110.40727783 103.09249218 -100.98535156 93.65673828 C-90.03628504 82.69161036 -79.08235952 71.73137433 -68.12065542 60.77887893 C-66.95142651 59.61060564 -65.78220385 58.4423261 -64.61298752 57.27404022 C-64.0377484 56.69926393 -63.46250927 56.12448763 -62.86983866 55.53229387 C-58.82069824 51.48574139 -54.77504462 47.43572302 -50.73073196 43.38434601 C-45.80131144 38.44650424 -40.86656622 33.51405875 -35.92495729 28.58841357 C-33.40489279 26.07622276 -30.88726683 23.56171269 -28.37610817 21.04061699 C-25.65221436 18.30610776 -22.91676405 15.58334951 -20.18008423 12.8616333 C-18.99597267 11.6674835 -18.99597267 11.6674835 -17.78793967 10.44920945 C-7.11811259 -0.10764632 -7.11811259 -0.10764632 0 0 Z " fill="#FC9D00" transform="translate(255.4375,29.5)"/>
<path d="M0 0 C11.22 0 22.44 0 34 0 C34 34.65 34 69.3 34 105 C31.69 103.02 29.38 101.04 27 99 C24.81814269 97.65544081 22.62126048 96.33496327 20.41015625 95.0390625 C11.25143362 88.91120147 2.05646076 81.38693466 -0.41555786 70.10314178 C-4.14113492 47.36521496 -1.46167221 22.79125935 0 0 Z " fill="#C86C35" transform="translate(377,30)"/>
</svg>
