<?xml version="1.0" encoding="UTF-8"?>
<svg version="1.1" xmlns="http://www.w3.org/2000/svg" width="512" height="512">
<path d="M0 0 C1.01545898 0.19867676 2.03091797 0.39735352 3.07714844 0.60205078 C52.9758035 10.58327711 96.53871388 34.88580573 133 70 C133.7940625 70.7528125 134.588125 71.505625 135.40625 72.28125 C140.75597303 77.46114055 145.38660506 83.16405541 150 89 C151.19109375 90.48306641 151.19109375 90.48306641 152.40625 91.99609375 C176.9776499 123.13801039 193.32468106 159.51240285 201.25 198.3125 C201.40114258 199.05121338 201.55228516 199.78992676 201.70800781 200.55102539 C202.18439803 203.02841582 202.60252786 205.50866222 203 208 C203.26707764 209.67364624 203.26707764 209.67364624 203.53955078 211.38110352 C205.19998488 223.01972268 205.3987437 234.56896253 205.375 246.3125 C205.37418427 247.83293915 205.37418427 247.83293915 205.37335205 249.38409424 C205.33347417 265.58121221 204.46747801 281.12508365 201 297 C200.78037598 298.02625488 200.56075195 299.05250977 200.33447266 300.10986328 C191.83138831 338.85817193 174.61772522 375.56726438 149 406 C148.57138672 406.51739746 148.14277344 407.03479492 147.70117188 407.56787109 C137.18164284 420.2564129 126.03816903 431.86528878 113 442 C111.52660156 443.18142578 111.52660156 443.18142578 110.0234375 444.38671875 C70.29759115 476.0035908 18.37047678 496.93437939 -32.79296875 497.203125 C-33.69337387 497.21018463 -34.59377899 497.21724426 -35.52146912 497.22451782 C-72.98691069 497.45161655 -72.98691069 497.45161655 -90 494 C-91.01545898 493.80132324 -92.03091797 493.60264648 -93.07714844 493.39794922 C-142.9758035 483.41672289 -186.53871388 459.11419427 -223 424 C-223.7940625 423.2471875 -224.588125 422.494375 -225.40625 421.71875 C-230.75597303 416.53885945 -235.38660506 410.83594459 -240 405 C-240.7940625 404.01128906 -241.588125 403.02257812 -242.40625 402.00390625 C-265.32205725 372.96029611 -281.22147176 339.14314413 -289.6875 303.1875 C-289.87787842 302.39625732 -290.06825684 301.60501465 -290.2644043 300.78979492 C-294.22851721 283.10947098 -295.555362 265.38707345 -295.4375 247.3125 C-295.43445862 246.31385925 -295.43141724 245.31521851 -295.42828369 244.28631592 C-295.35621635 228.21658083 -294.43972751 212.74786814 -291 197 C-290.78037598 195.97374512 -290.56075195 194.94749023 -290.33447266 193.89013672 C-279.82149525 145.98280374 -255.85138923 104.15003587 -222 69 C-221.2471875 68.2059375 -220.494375 67.411875 -219.71875 66.59375 C-214.53885945 61.24402697 -208.83594459 56.61339494 -203 52 C-202.01128906 51.2059375 -201.02257812 50.411875 -200.00390625 49.59375 C-167.66655102 24.07913264 -130.33332447 7.86607287 -90 0 C-89.17274414 -0.16661133 -88.34548828 -0.33322266 -87.49316406 -0.50488281 C-59.91781494 -5.80488028 -27.50199116 -5.57960557 0 0 Z M-177.63671875 122.90625 C-194.09395119 142.73299929 -199.32655517 166.60414398 -199.2746582 191.95581055 C-199.27976913 193.27332809 -199.28488007 194.59084564 -199.29014587 195.94828796 C-199.30337943 199.51889774 -199.30413203 203.08940066 -199.30158257 206.66003013 C-199.30050163 209.66371192 -199.30542481 212.66737307 -199.310188 215.67105037 C-199.32123021 222.77152046 -199.32175126 229.87193762 -199.31567383 236.97241211 C-199.30964516 244.24327846 -199.32192908 251.51395075 -199.3432439 258.78478402 C-199.36099057 265.07492016 -199.3668407 271.36499529 -199.36360615 277.65515548 C-199.36181302 281.39082589 -199.3642277 285.12635801 -199.37832069 288.86200523 C-199.48718092 320.4415161 -197.25654789 351.14802845 -174 375 C-154.85889396 392.92024703 -130.64096133 399.12721799 -104.93676758 399.17700195 C-103.51007424 399.18327599 -102.08338251 399.18992361 -100.6566925 399.19691467 C-95.98598345 399.21786325 -91.31527445 399.22831533 -86.64453125 399.23828125 C-85.02691825 399.24233364 -83.40930541 399.2464507 -81.79169273 399.25063133 C-74.18095523 399.26967073 -66.57022728 399.28389874 -58.95947057 399.2922433 C-50.22589745 399.30198098 -41.49258011 399.3282144 -32.75909692 399.36874419 C-25.97738098 399.39911568 -19.19573743 399.41373228 -12.41395491 399.41702431 C-8.3790677 399.41935289 -4.34445401 399.42802049 -0.30964088 399.45348549 C31.3913167 399.64304667 60.81833329 396.97085364 85 374 C103.15796511 353.98588734 109.13709167 329.234645 109.16113281 302.70947266 C109.16609772 301.39122498 109.17106262 300.07297729 109.17617798 298.71478271 C109.18922449 295.11498956 109.19573254 291.515215 109.20018864 287.91540194 C109.20313397 285.65718499 109.20724158 283.39897296 109.21169281 281.14075851 C109.22535183 274.04901138 109.23502438 266.95727567 109.2388947 259.8655163 C109.24336157 251.72909026 109.26085213 243.59283337 109.2898953 235.45645869 C109.31165879 229.13589512 109.32160684 222.8153786 109.32293582 216.49477804 C109.3239741 212.73500433 109.32966876 208.97538992 109.34775543 205.21565628 C109.49084284 173.64799631 107.183804 142.77736525 84 119 C64.85889396 101.07975297 40.64096133 94.87278201 14.93676758 94.82299805 C13.51007424 94.81672401 12.08338251 94.81007639 10.6566925 94.80308533 C5.98598345 94.78213675 1.31527445 94.77168467 -3.35546875 94.76171875 C-4.97308175 94.75766636 -6.59069459 94.7535493 -8.20830727 94.74936867 C-15.81904477 94.73032927 -23.42977272 94.71610126 -31.04052943 94.7077567 C-39.77410255 94.69801902 -48.50741989 94.6717856 -57.24090308 94.63125581 C-64.02261902 94.60088432 -70.80426257 94.58626772 -77.58604509 94.58297569 C-81.6209323 94.58064711 -85.65554599 94.57197951 -89.69035912 94.54651451 C-122.24475269 94.35185006 -154.27930828 97.16119313 -177.63671875 122.90625 Z " fill="#000000" transform="translate(301,9)"/>
<path d="M0 0 C2.30004893 -0.00067619 4.60009779 -0.00164883 6.90014648 -0.00289917 C11.68701874 -0.00436132 16.47387215 -0.00226984 21.26074219 0.00244141 C27.3385315 0.00813774 33.41627663 0.00485072 39.49406433 -0.00113106 C44.23352378 -0.00477705 48.97297308 -0.00357971 53.71243286 -0.00100327 C55.95110072 -0.00034512 58.18976956 -0.00112259 60.42843628 -0.00348282 C71.16449304 -0.01232311 81.88027535 0.05435659 92.60546875 0.57470703 C93.40062393 0.61290495 94.19577911 0.65110287 95.01502991 0.6904583 C112.18842055 1.63047677 128.5733349 6.36795428 140.44921875 19.44140625 C157.06530083 40.60310783 155.87399255 66.34488498 155.828125 91.8828125 C155.82947557 94.55306218 155.83141738 97.22330638 155.83392334 99.89355469 C155.83753709 105.46421325 155.83283272 111.03481835 155.82324219 116.60546875 C155.81236267 122.99765178 155.8158901 129.38970711 155.826895 135.78188705 C155.83604255 141.32216338 155.83721708 146.86240181 155.83201766 152.40268326 C155.82893855 155.68884939 155.8291885 158.97494418 155.83509064 162.2611084 C155.90738055 213.80725071 155.90738055 213.80725071 138.125 233.3828125 C125.5039028 245.25811759 109.44703874 248.88187726 92.60546875 249.69091797 C91.7433226 249.73274641 90.88117645 249.77457485 89.99290466 249.81767082 C79.0401162 250.30157089 68.08628259 250.2771815 57.125 250.265625 C54.82495107 250.26630119 52.52490221 250.26727383 50.22485352 250.26852417 C45.43798126 250.26998632 40.65112785 250.26789484 35.86425781 250.26318359 C29.7864685 250.25748726 23.70872337 250.26077428 17.63093567 250.26675606 C12.89147622 250.27040205 8.15202692 250.26920471 3.41256714 250.26662827 C1.17389928 250.26597012 -1.06476956 250.26674759 -3.30343628 250.26910782 C-14.0439026 250.27795174 -24.76602577 250.21202877 -35.49609375 249.70263672 C-36.69196861 249.64769641 -36.69196861 249.64769641 -37.91200256 249.59164619 C-52.61803749 248.79937099 -67.17971859 245.02008139 -78.4375 235.1328125 C-79.32695312 234.38257813 -79.32695312 234.38257813 -80.234375 233.6171875 C-93.66643545 221.37380497 -97.27970772 203.50407085 -98.4375 186.1328125 C-98.79204559 176.88796594 -98.71973844 167.63276911 -98.703125 158.3828125 C-98.70447557 155.71256282 -98.70641738 153.04231862 -98.70892334 150.37207031 C-98.71253709 144.80141175 -98.70783272 139.23080665 -98.69824219 133.66015625 C-98.68736267 127.26797322 -98.6908901 120.87591789 -98.701895 114.48373795 C-98.71104255 108.94346162 -98.71221708 103.40322319 -98.70701766 97.86294174 C-98.70393855 94.57677561 -98.7041885 91.29068082 -98.71009064 88.0045166 C-98.78262174 36.28639721 -98.78262174 36.28639721 -80.875 16.8203125 C-68.48511882 5.09047065 -52.0571735 1.37725318 -35.52734375 0.57861328 C-34.22904884 0.51544765 -34.22904884 0.51544765 -32.90452576 0.45100594 C-21.93941866 -0.03503988 -10.97367732 -0.01156957 0 0 Z M98.75 33.5703125 C95.19202716 37.73822354 94.0817292 40.39537999 94.25 46.04296875 C94.99801699 51.04533238 97.53622729 54.22587383 101.25 57.5078125 C105.3978368 59.54260037 108.94411792 60.34047356 113.5625 60.1328125 C118.29287887 58.49537366 121.28399045 55.87968056 124.5625 52.1328125 C126.42330151 46.55040798 126.50075348 41.08149281 123.9375 35.7578125 C120.37062411 31.81547599 117.28056183 29.60137482 112.125 28.1953125 C106.4808111 28.09629164 102.97025474 29.91275839 98.75 33.5703125 Z M-22.4375 62.1328125 C-23.17484375 62.68582031 -23.9121875 63.23882812 -24.671875 63.80859375 C-41.14006514 77.081955 -49.8469473 97.60938208 -52.4375 118.1328125 C-53.84921454 137.87367317 -48.68491611 158.06712387 -36.3125 173.7578125 C-35.02931015 175.22361013 -33.73858443 176.68287519 -32.4375 178.1328125 C-31.9940625 178.72835937 -31.550625 179.32390625 -31.09375 179.9375 C-19.9547639 194.67628039 0.38696927 202.82441185 17.96875 205.6875 C41.59132798 208.61464553 62.83004039 201.31775671 81.3515625 186.97265625 C97.86588983 172.88690647 107.01287381 153.44383897 109.5625 132.1328125 C110.50766335 117.31919459 108.09331865 103.49385697 101.5625 90.1328125 C101.14355469 89.23304688 100.72460938 88.33328125 100.29296875 87.40625 C90.83769252 68.49569754 74.24292182 55.26209772 54.5625 48.1328125 C27.25441188 39.39187774 -0.03477254 44.8410898 -22.4375 62.1328125 Z " fill="#000000" transform="translate(227.4375,130.8671875)"/>
<path d="M0 0 C10.49832908 8.7789177 17.09539976 20.97420841 18.9375 34.5 C19.9809513 51.07482263 16.08222576 65.22464528 5.36328125 78.04296875 C-5.28157007 88.82495181 -18.55054576 94.54121442 -33.6875 94.75 C-48.81073373 94.60672726 -62.26173525 89.16339414 -73.0625 78.5 C-84.00999362 65.2152079 -88.07043472 51.68986846 -87.0625 34.5 C-84.88099662 20.31163942 -78.03270153 7.45560828 -66.41821289 -1.19897461 C-45.7857752 -15.744043 -20.23641916 -14.81093852 0 0 Z " fill="#000000" transform="translate(290.0625,214.5)"/>
</svg>
