<?xml version="1.0" encoding="UTF-8"?>
<svg version="1.1" xmlns="http://www.w3.org/2000/svg" width="512" height="512">
<path d="M0 0 C0.99422974 0.00215515 1.98845947 0.0043103 3.01281738 0.00653076 C17.48109955 0.05686686 31.66189071 0.35398296 45.875 3.3125 C46.85130371 3.51117676 47.82760742 3.70985352 48.83349609 3.91455078 C97.21339984 14.03634541 141.2005519 35.95291013 176.875 70.3125 C177.8640332 71.26068604 177.8640332 71.26068604 178.87304688 72.22802734 C188.36130305 81.37247479 197.1012044 90.66984009 204.875 101.3125 C205.73306152 102.46355017 206.59113451 103.61459177 207.44921875 104.765625 C213.48736829 112.95680614 218.84595521 121.47054105 223.875 130.3125 C224.23948242 130.94430176 224.60396484 131.57610352 224.97949219 132.22705078 C246.4740329 169.78084014 256.35126533 212.44304389 256.1875 255.4375 C256.18476578 256.9278476 256.18476578 256.9278476 256.18197632 258.44830322 C256.13719978 272.942192 255.67610213 287.05386097 252.875 301.3125 C252.71402832 302.20807617 252.55305664 303.10365234 252.38720703 304.02636719 C244.49797508 347.63313051 224.80850867 388.77106217 195.875 422.3125 C195.24078125 423.05757813 194.6065625 423.80265625 193.953125 424.5703125 C182.14198485 438.07529833 169.39139772 450.74668743 154.875 461.3125 C153.72505169 462.16899066 152.57531411 463.02576433 151.42578125 463.8828125 C143.23410474 469.9234414 134.71854922 475.28255071 125.875 480.3125 C125.24319824 480.67698242 124.61139648 481.04146484 123.96044922 481.41699219 C97.93166464 496.31500327 68.51361377 505.96041257 38.875 510.3125 C37.67254639 510.48910156 36.47009277 510.66570312 35.23120117 510.84765625 C23.51493596 512.45161689 11.87584274 512.71324553 0.0625 512.6875 C-0.92433777 512.68662384 -1.91117554 512.68574768 -2.92791748 512.68484497 C-67.88219852 512.49532667 -130.29571624 487.41579016 -177.125 442.3125 C-177.78435547 441.68037598 -178.44371094 441.04825195 -179.12304688 440.39697266 C-188.61130305 431.25252521 -197.3512044 421.95515991 -205.125 411.3125 C-205.98306152 410.16144983 -206.84113451 409.01040823 -207.69921875 407.859375 C-213.73736829 399.66819386 -219.09595521 391.15445895 -224.125 382.3125 C-224.48948242 381.68069824 -224.85396484 381.04889648 -225.22949219 380.39794922 C-240.15973018 354.31285999 -249.63885054 324.97664886 -254.125 295.3125 C-254.38990234 293.62882324 -254.38990234 293.62882324 -254.66015625 291.91113281 C-256.3170586 280.29802257 -256.52373513 268.78070055 -256.5 257.0625 C-256.49945618 256.05048523 -256.49891235 255.03847046 -256.49835205 253.99578857 C-256.4576051 237.46132605 -255.53386907 221.54185136 -252.125 205.3125 C-251.91601074 204.29720215 -251.70702148 203.2819043 -251.49169922 202.23583984 C-242.71380189 160.92383315 -223.71113066 122.2919774 -196.125 90.3125 C-195.49078125 89.56742187 -194.8565625 88.82234375 -194.203125 88.0546875 C-182.39198485 74.54970167 -169.64139772 61.87831257 -155.125 51.3125 C-153.97505169 50.45600934 -152.82531411 49.59923567 -151.67578125 48.7421875 C-143.48410474 42.7015586 -134.96854922 37.34244929 -126.125 32.3125 C-125.49319824 31.94801758 -124.86139648 31.58353516 -124.21044922 31.20800781 C-98.17975097 16.30890142 -68.76448404 6.66904478 -39.125 2.3125 C-37.32675781 2.04651001 -37.32675781 2.04651001 -35.4921875 1.77514648 C-23.66616559 0.14661384 -11.92341476 -0.04652724 0 0 Z M-129.9375 136.5 C-135.07787617 144.35043844 -135.81921569 153.17541097 -134.046875 162.19921875 C-131.68932932 170.16093021 -127.12546148 176.78278963 -120.125 181.3125 C-111.64890473 185.84961812 -103.74661885 187.69048481 -94.25 185.1875 C-84.4329665 181.95488047 -78.10802439 176.36752493 -73.125 167.3125 C-69.99583887 159.57915229 -69.71493135 150.92873234 -72.15234375 142.94921875 C-76.17050912 134.18939563 -82.11837942 127.90650443 -90.875 123.8125 C-106.38088968 118.41914707 -119.98371737 124.35401525 -129.9375 136.5 Z M21.875 226.3125 C17.63372558 230.77115857 17.63372558 230.77115857 15.875 236.3125 C15.215 236.3125 14.555 236.3125 13.875 236.3125 C13.875 228.0625 13.875 219.8125 13.875 211.3125 C-3.615 211.3125 -21.105 211.3125 -39.125 211.3125 C-39.125 270.3825 -39.125 329.4525 -39.125 390.3125 C-20.975 390.3125 -2.825 390.3125 15.875 390.3125 C15.91238281 383.02800781 15.94976562 375.74351562 15.98828125 368.23828125 C16.01858297 363.60349267 16.04974533 358.96874147 16.08398438 354.33398438 C16.1381624 346.98919637 16.18927804 339.64448229 16.22143555 332.29956055 C16.24758295 326.37312184 16.28806558 320.44693359 16.33818626 314.52065086 C16.35477791 312.26785604 16.36633985 310.01501797 16.37261391 307.76217079 C16.47113217 275.61758458 16.47113217 275.61758458 25.875 264.3125 C33.87144646 257.18973935 42.2910633 255.86200645 52.69140625 256.06640625 C59.5072451 256.59327477 65.24349939 258.61228199 70.3046875 263.30859375 C77.29024229 272.22299576 78.01661998 282.98067833 78.08032227 293.81591797 C78.09022186 294.86042618 78.10012146 295.90493439 78.11032104 296.98109436 C78.14182568 300.42226927 78.1666498 303.86345798 78.19140625 307.3046875 C78.2119853 309.69508211 78.23298203 312.08547317 78.25437927 314.4758606 C78.30950163 320.75908519 78.35895424 327.0423421 78.40722656 333.32562256 C78.46635908 340.86895268 78.53253285 348.41222391 78.59752655 355.95550537 C78.69541227 367.40780087 78.78435312 378.86013461 78.875 390.3125 C97.025 390.3125 115.175 390.3125 133.875 390.3125 C133.96531626 369.00397212 133.96531626 369.00397212 134.0257616 347.6954174 C134.04229988 340.066581 134.06319897 332.43784443 134.10131836 324.80908203 C134.13477019 318.11115353 134.15191335 311.41335534 134.15963173 304.71533966 C134.16512375 302.17521723 134.17584625 299.6350999 134.19219017 297.09502411 C134.35360261 270.9405399 133.73951409 242.55157732 114.89453125 222.1875 C99.96658034 208.32789374 80.02853874 206.47453564 60.58349609 207.13330078 C45.23123194 208.14903558 32.40361777 215.41639121 21.875 226.3125 Z M-130.125 211.3125 C-130.125 270.3825 -130.125 329.4525 -130.125 390.3125 C-111.975 390.3125 -93.825 390.3125 -75.125 390.3125 C-75.125 331.2425 -75.125 272.1725 -75.125 211.3125 C-93.275 211.3125 -111.425 211.3125 -130.125 211.3125 Z " fill="#000000" transform="translate(256.125,-0.3125)"/>
</svg>
