<?xml version="1.0" encoding="UTF-8"?>
<svg version="1.1" xmlns="http://www.w3.org/2000/svg" width="512" height="512">
<path d="M0 0 C1.20207633 -0.00384115 2.40415266 -0.00768229 3.64265555 -0.01163983 C5.61830677 -0.01034011 5.61830677 -0.01034011 7.63387012 -0.00901413 C9.04999062 -0.0115987 10.46611039 -0.01461212 11.88222915 -0.01801753 C15.77377133 -0.02608 19.66529505 -0.02787668 23.55684459 -0.028615 C27.75399289 -0.03046686 31.95113165 -0.03801488 36.14827442 -0.04475021 C45.32604172 -0.05832875 54.50380464 -0.06435752 63.68158031 -0.06876087 C69.41303109 -0.07152412 75.14448019 -0.07576163 80.87592983 -0.08026505 C96.74693381 -0.09245712 112.61793644 -0.10275653 128.48894501 -0.10614014 C130.01244557 -0.10646949 130.01244557 -0.10646949 131.56672393 -0.10680549 C132.58481095 -0.10702377 133.60289796 -0.10724204 134.6518361 -0.10746694 C136.7148426 -0.1079104 138.7778491 -0.10835696 140.8408556 -0.10880661 C141.86417647 -0.10902804 142.88749734 -0.10924947 143.94182793 -0.10947761 C160.52141508 -0.1134252 177.10095826 -0.13087832 193.68052842 -0.15416613 C210.70550358 -0.1778864 227.73045669 -0.1903423 244.75544864 -0.19150805 C254.31313904 -0.19242444 263.87077216 -0.19816754 273.42844677 -0.21632767 C281.56741186 -0.23173775 289.70630197 -0.23684375 297.84527888 -0.22858956 C301.99638021 -0.22468627 306.14733058 -0.22559694 310.29841328 -0.23964691 C314.10267789 -0.25240504 317.90667838 -0.25117167 321.71094272 -0.2390562 C323.73039386 -0.23618089 325.74984964 -0.24802046 327.7692644 -0.26047826 C340.04801277 -0.19388782 350.85090978 2.49187823 360.08328724 11.01814651 C368.48987179 20.14171056 371.57151605 30.16374538 371.34891224 42.49861526 C370.43779958 53.22437189 366.03659176 61.66135807 358.12625599 68.87752151 C350.33563371 75.10070784 342.04896184 78.24845455 332.08901691 78.26564884 C330.28867756 78.27233561 330.28867756 78.27233561 328.45196772 78.27915746 C327.13691327 78.2789731 325.82185882 78.27878873 324.46695423 78.27859879 C323.05297161 78.28189953 321.63898993 78.28562555 320.22500944 78.28974026 C316.33926134 78.29974452 312.45352868 78.30347452 308.56776953 78.30612957 C304.37669724 78.31003733 300.18563714 78.31961538 295.99457264 78.32834244 C285.87266697 78.34809407 275.75076033 78.35817165 265.62884021 78.36707023 C260.85973372 78.37145547 256.09062833 78.37682169 251.32152271 78.3820591 C235.46339365 78.39907048 219.60526527 78.41356385 203.74712849 78.42080784 C199.63294442 78.42271767 195.51876035 78.42463801 191.4045763 78.42659378 C189.87077539 78.42731939 189.87077539 78.42731939 188.30598861 78.42805966 C171.74781343 78.436357 155.18971056 78.46168932 138.63156694 78.49417446 C121.62352778 78.5272696 104.61552534 78.54525884 87.60745382 78.54845208 C78.06138372 78.55061496 68.51541905 78.55933101 58.96938038 78.58491325 C50.83817257 78.60665384 42.70709581 78.61465419 34.57586223 78.60494647 C30.43041902 78.60041142 26.28524602 78.6022414 22.13984013 78.62170792 C18.33720357 78.63940982 14.53503293 78.63828562 10.73239094 78.62281062 C8.72111159 78.61933326 6.70982695 78.63540822 4.6986165 78.6524151 C-8.51990185 78.55952526 -19.39007803 75.63872998 -28.85811901 66.24861526 C-37.82835765 56.59709268 -39.44626963 47.47799893 -39.23702526 34.63142776 C-38.78676551 23.80727298 -32.8565626 15.64288138 -25.20968151 8.38142776 C-17.9983795 2.31895122 -9.27930823 0.01114673 0 0 Z " fill="#6097EA" transform="translate(38.95968151092529,216.86857223510742)"/>
<path d="M0 0 C1.22783445 -0.00644889 2.4556689 -0.01289778 3.72071046 -0.0195421 C5.07499621 -0.01660011 6.42928156 -0.0134647 7.78356647 -0.01015663 C9.22871253 -0.01389447 10.67385656 -0.01849653 12.1189974 -0.02388728 C16.08618019 -0.03611646 20.05327864 -0.0358569 24.02047598 -0.03349853 C28.30079772 -0.03309033 32.58109242 -0.04412983 36.86140156 -0.05361366 C45.24638278 -0.07022476 53.63133588 -0.07572328 62.01633217 -0.07683842 C68.83341435 -0.07778895 75.65048725 -0.0818995 82.46756649 -0.08823967 C101.79987248 -0.10585326 121.13215627 -0.11507849 140.46447035 -0.11357872 C141.50662342 -0.11349881 142.54877649 -0.1134189 143.62250996 -0.11333656 C144.66593732 -0.1132548 145.70936468 -0.11317304 146.78441105 -0.1130888 C163.68983664 -0.11227612 180.59517308 -0.13140894 197.50057288 -0.1596133 C214.86346284 -0.18835203 232.22630934 -0.20215301 249.58922368 -0.20042574 C259.33529888 -0.19976213 269.08128065 -0.20524178 278.8273344 -0.22678185 C287.12656545 -0.24500676 295.42566073 -0.2493303 303.72490313 -0.235763 C307.95718452 -0.22923964 312.18920555 -0.22909311 316.42146206 -0.2464695 C320.30106057 -0.26223372 324.18019302 -0.2593028 328.0597804 -0.24190123 C329.45817454 -0.23883864 330.85660375 -0.24243571 332.25495651 -0.25362138 C344.32973072 -0.34376007 354.82832284 1.70916416 363.81074238 10.25726891 C372.27472752 19.54605075 375.16110387 29.54270472 375.02167988 41.90961266 C374.33381874 52.82622371 369.3494813 61.15699359 361.49824238 68.56976891 C354.50196442 74.50242352 347.02677847 77.37598125 337.89881516 77.39148998 C336.68192959 77.39594783 335.46504403 77.40040567 334.21128315 77.4049986 C332.85897377 77.40490931 331.5066644 77.40471946 330.15435505 77.40443993 C328.71918611 77.4077396 327.28401809 77.41146539 325.84885126 77.41558141 C321.89997474 77.42559783 317.95111342 77.42931763 314.002226 77.43197072 C309.74505253 77.43587486 305.48789108 77.44545316 301.23072529 77.45418358 C290.94675002 77.47394544 280.66277378 77.4840141 270.37878427 77.49291137 C265.53520112 77.49729494 260.69161906 77.5026616 255.84803677 77.50790024 C239.74546091 77.52491266 223.64288574 77.53940648 207.54030228 77.54664898 C203.36165014 77.54855886 199.18299801 77.55047919 195.00434589 77.55243492 C193.44648019 77.55316053 193.44648019 77.55316053 191.85714246 77.5539008 C175.03565881 77.56219978 158.2142463 77.58753443 141.39279371 77.6200156 C124.12037298 77.65309547 106.8479884 77.6710986 89.57553583 77.67429322 C79.87860869 77.67645751 70.18178528 77.68519433 60.48488903 77.71075439 C52.22587402 77.7324741 43.96698794 77.74050557 35.7079476 77.73078761 C31.49592703 77.72624652 27.28417239 77.72811789 23.07218838 77.74754906 C19.21102191 77.7652075 15.35031485 77.7641616 11.48914332 77.74865177 C10.09741532 77.74627973 8.70565529 77.75057823 7.31397616 77.76248042 C-4.9016259 77.86042412 -14.48008466 75.63444519 -23.89238262 67.60101891 C-32.84932348 58.46128334 -35.65134778 48.60972574 -35.62089825 36.17743492 C-35.35833706 25.7840349 -31.63313487 17.72704936 -24.43535137 10.22992516 C-17.3778622 4.03160858 -9.49042111 0.01263744 0 0 Z " fill="#67BCEE" transform="translate(35.18925762176514,63.74273109436035)"/>
<path d="M0 0 C1.91449379 -0.00570808 3.82898418 -0.01267403 5.74346924 -0.02079773 C10.92537713 -0.03869663 16.10711537 -0.03756679 21.28904486 -0.03185534 C25.6228844 -0.02875853 29.95669158 -0.03486149 34.29052651 -0.04089409 C44.51890718 -0.05492721 54.74720431 -0.05338833 64.97558594 -0.04199219 C75.5099014 -0.03051418 86.04396218 -0.04458417 96.57824409 -0.07138866 C105.63926254 -0.09357691 114.70020122 -0.10017593 123.76124489 -0.09431225 C129.16565878 -0.09094872 134.56990947 -0.09331754 139.97430038 -0.11056328 C145.05846962 -0.12607995 150.1422629 -0.1220245 155.22641754 -0.10325813 C157.08592026 -0.09958521 158.94545113 -0.10264266 160.80492783 -0.11314392 C174.36683594 -0.18385119 185.12967017 0.89871475 195.86376953 10.06030273 C204.82071039 19.2000383 207.62273469 29.0515959 207.59228516 41.48388672 C207.32972397 51.87728674 203.60452178 59.93427228 196.40673828 67.43139648 C188.5754562 74.3093051 180.41861696 77.71198343 170.00302124 77.6782074 C169.19781811 77.68344408 168.39261499 77.68868075 167.56301177 77.69407612 C164.87333734 77.70904008 162.18385377 77.70978048 159.49414062 77.71044922 C157.56200847 77.71807328 155.62987934 77.7265012 153.69775391 77.735672 C148.45366319 77.75760314 143.20963079 77.76641438 137.9654994 77.77149844 C134.68586126 77.77514451 131.40623832 77.78138597 128.12660599 77.78849983 C116.6752175 77.81299226 105.22387428 77.82604519 93.77246094 77.82958984 C83.11493442 77.83322202 72.45769643 77.86309525 61.80025804 77.90499443 C52.63823191 77.93974567 43.47630114 77.95513914 34.31420958 77.95583588 C28.84762112 77.95662722 23.38132647 77.96530003 17.91480637 77.99383354 C12.76825867 78.02009597 7.62224662 78.02217373 2.47566223 78.0061779 C0.59399366 78.00436975 -1.28770629 78.01099646 -3.16930771 78.02699661 C-17.07578093 78.13797427 -28.34355387 76.75312995 -38.86669922 66.65014648 C-47.97888132 56.27488964 -49.69921075 45.86199857 -49.03027344 32.55541992 C-48.16284001 22.78070975 -42.82514876 14.64692981 -35.47998047 8.39624023 C-24.19588082 0.02077496 -13.47722145 -0.03626343 0 0 Z " fill="#5568E6" transform="translate(48.83935546875,370.595947265625)"/>
<path d="M0 0 C7.28603821 5.95691018 13.63876948 14.62085604 14.69995117 24.22460938 C15.43805385 37.85397701 13.82890314 48.34219113 4.68359375 59.01171875 C-3.31103576 67.09139751 -12.14246605 70.48437947 -23.39453125 70.67578125 C-35.12663484 70.6129624 -43.99232079 66.51508949 -52.58203125 58.67578125 C-60.43184808 50.67558479 -62.82391684 40.77825027 -62.83422852 29.92578125 C-62.64440879 19.28689108 -59.03519049 10.83999765 -51.51953125 3.23828125 C-36.76177803 -9.32046901 -16.21689872 -11.33925787 0 0 Z " fill="#6FE2F1" transform="translate(497.51953125,70.76171875)"/>
</svg>
