<?xml version="1.0" encoding="UTF-8"?>
<svg version="1.1" xmlns="http://www.w3.org/2000/svg" width="512" height="512">
<path d="M0 0 C1.9487395 -0.0037944 3.89747629 -0.00930359 5.84620667 -0.01637268 C11.08163556 -0.03019567 16.31673098 -0.01925232 21.55214095 -0.00266147 C27.06237581 0.01131313 32.57259372 0.00471518 38.08283997 0.00120544 C47.328067 -0.00148627 56.57316343 0.01189146 65.81835938 0.03515625 C76.47260814 0.06178298 87.12663906 0.06350161 97.78090972 0.05176789 C108.07948068 0.04095189 118.37797367 0.04720558 128.67653847 0.06132317 C133.03779276 0.0670475 137.39898931 0.06702854 141.76024437 0.06225777 C146.90278369 0.05745027 152.04508742 0.0677443 157.18758202 0.08921242 C159.06314296 0.09472856 160.93872679 0.09529384 162.81428909 0.09025955 C193.57410463 0.0181098 220.46170138 10.06196316 242.64770508 31.93920898 C247.70859007 37.06444607 252.04716131 42.3545291 255.83520508 48.50170898 C256.41657227 49.40018555 256.99793945 50.29866211 257.59692383 51.22436523 C270.13106219 71.42580733 276.25339594 97.1663585 271.64770508 120.68920898 C267.6306626 137.14612494 258.82085107 152.54016706 244.02416992 161.61206055 C242.02568822 162.75106059 240.00701701 163.8271616 237.96020508 164.87670898 C237.33686279 165.19865234 236.71352051 165.5205957 236.07128906 165.85229492 C226.48198337 170.4715858 216.6033144 171.9512608 206.05302429 171.88938904 C204.93037778 171.89477458 203.80773127 171.90016011 202.65106517 171.90570885 C198.92286129 171.9199139 195.19501623 171.91290297 191.46679688 171.90576172 C188.78002822 171.91146922 186.09328452 171.91833533 183.40652466 171.92655945 C176.88592004 171.94368846 170.36541204 171.94459969 163.84479078 171.93934654 C158.54008532 171.93529218 153.23540824 171.93676338 147.93070412 171.9420948 C146.79480269 171.94321744 146.79480269 171.94321744 145.63595376 171.94436275 C144.09716313 171.94589435 142.55837251 171.9474327 141.01958189 171.94897772 C126.61354883 171.96268169 112.20757019 171.95728013 97.80153839 171.9457925 C84.649766 171.93586474 71.49813439 171.94879661 58.34638371 171.9727267 C44.81175825 171.99716609 31.27719822 172.00671355 17.74255115 172.00007397 C10.1560763 171.99659217 2.56970962 171.99874464 -5.01674843 172.016325 C-11.47560326 172.03110781 -17.93427377 172.03160376 -24.39312521 172.01425409 C-27.68220768 172.0057908 -30.97089715 172.00568052 -34.25997353 172.01890564 C-56.87377291 172.10285237 -75.85256922 170.15572687 -93.02026367 153.68139648 C-93.72795898 152.96209961 -94.4356543 152.24280273 -95.16479492 151.50170898 C-95.73842773 150.92678711 -96.31206055 150.35186523 -96.90307617 149.75952148 C-110.49240831 135.08163819 -112.96981268 116.49032925 -112.34399414 97.39819336 C-110.94645186 74.80903579 -100.76101284 53.48585621 -86.16479492 36.50170898 C-85.64788086 35.84041992 -85.1309668 35.17913086 -84.59838867 34.49780273 C-64.05038849 9.0059228 -31.36227688 -0.17689311 0 0 Z " fill="#070E44" transform="translate(133.164794921875,319.498291015625)"/>
<path d="M0 0 C3.43115526 2.90328522 6.73536676 5.91127409 10 9 C10.82371094 9.75925781 11.64742187 10.51851562 12.49609375 11.30078125 C35.42502522 33.1565958 48.05874096 64.90221441 49.203125 96.33203125 C49.83655105 132.17836826 37.55899877 165.3066112 12.72265625 191.25 C-9.25994697 213.45337542 -39.30777878 228.87483238 -71 230 C-72.80210937 230.07734375 -72.80210937 230.07734375 -74.640625 230.15625 C-91.8494445 230.65329284 -108.89462359 228.1250414 -125 222 C-125.97912354 221.6289917 -125.97912354 221.6289917 -126.97802734 221.25048828 C-142.89375124 215.06815515 -156.49679421 206.41674871 -168.59960938 194.38134766 C-169.85933344 193.13875373 -171.1542777 191.93210933 -172.453125 190.73046875 C-188.96421654 175.17194018 -199.47878159 153.75369514 -205 132 C-205.17644043 131.32356445 -205.35288086 130.64712891 -205.53466797 129.95019531 C-213.38363258 98.50766316 -206.97911293 62.77182866 -190.62231445 35.0378418 C-171.66287744 4.06222607 -142.20271985 -16.28881803 -107.0625 -24.75 C-70.35320509 -33.0688389 -29.17351476 -23.83577389 0 0 Z " fill="#070E44" transform="translate(293,48)"/>
<path d="M0 0 C0.77687627 -0.00367669 1.55375253 -0.00735338 2.3541705 -0.01114148 C4.96009396 -0.02216327 7.56597751 -0.0260197 10.17192078 -0.02983093 C12.03977586 -0.03609703 13.9076297 -0.04274396 15.77548218 -0.04974365 C21.91502516 -0.07078003 28.05456836 -0.08114994 34.19413757 -0.09111023 C36.31116944 -0.09515882 38.42820117 -0.09927577 40.54523277 -0.10346031 C50.49834812 -0.12251598 60.45145606 -0.13674271 70.40458614 -0.14507228 C81.87079616 -0.15482759 93.33681226 -0.18110092 104.80295402 -0.22157317 C113.67793189 -0.25181686 122.55285447 -0.26654921 131.42788285 -0.26985329 C136.72185922 -0.27219559 142.01562853 -0.28104785 147.30954933 -0.30631447 C152.29924547 -0.32974297 157.28860042 -0.33376948 162.27833748 -0.32355309 C164.09907929 -0.32306109 165.91983874 -0.3292811 167.74052811 -0.34310913 C187.66939449 -0.48586357 204.9761723 3.55958455 220.0735321 17.59761047 C230.63554849 28.06933809 238.49547547 42.46586348 238.70195007 57.4811554 C238.70323914 58.34031555 238.7045282 59.19947571 238.70585632 60.08467102 C238.73034851 60.93996399 238.7548407 61.79525696 238.78007507 62.6764679 C238.80743448 68.65449857 237.81848737 73.21221702 234.33085632 78.14717102 C232.07695007 80.20576477 232.07695007 80.20576477 229.76835632 81.58467102 C228.62173523 82.29429993 228.62173523 82.29429993 227.45195007 83.01826477 C224.13838785 84.78183656 221.52250176 85.27316279 217.82983875 85.2813921 C216.43840459 85.28807886 216.43840459 85.28807886 215.01886064 85.29490072 C213.99806387 85.29471635 212.97726711 85.29453199 211.92553711 85.29434204 C210.84239343 85.29801873 209.75924976 85.30169542 208.64328355 85.30548352 C204.99527248 85.31654156 201.34728987 85.3203678 197.69926453 85.32417297 C195.09114491 85.330436 192.48302618 85.33708266 189.87490845 85.34408569 C182.03475172 85.36384794 174.19459371 85.37391614 166.35441831 85.38281348 C162.662051 85.3871969 158.96968513 85.39256358 155.27731895 85.39780235 C143.00244221 85.41481462 130.72756636 85.42930861 118.45267963 85.43655109 C115.26729646 85.43846098 112.0819133 85.44038131 108.89653015 85.44233704 C108.10482161 85.44282078 107.31311307 85.44330452 106.49741336 85.44380292 C93.67337544 85.45210252 80.84943082 85.47743825 68.02543364 85.50991771 C54.85839366 85.54299403 41.69140109 85.56100038 28.52431935 85.56419533 C21.13185954 85.56635994 13.73953578 85.5751012 6.34711647 85.60065651 C-0.60745372 85.62464269 -7.5617754 85.62818557 -14.5163784 85.61789513 C-17.06893223 85.61739874 -19.62149795 85.62374928 -22.17401505 85.63745117 C-25.65927349 85.65511315 -29.14364753 85.64809089 -32.62890625 85.63491821 C-33.63854941 85.64588746 -34.64819256 85.6568567 -35.68843096 85.66815835 C-42.84844463 85.60284335 -48.17126653 84.10483548 -53.69258118 79.43623352 C-54.1385968 78.8870929 -54.58461243 78.33795227 -55.04414368 77.77217102 C-55.50562805 77.22818665 -55.96711243 76.68420227 -56.44258118 76.12373352 C-61.54225068 67.90579476 -60.38820917 57.66314731 -58.54414368 48.58467102 C-54.11174175 31.41429161 -42.74083902 16.94188941 -27.68476868 7.75263977 C-18.73874076 2.98992284 -10.10390229 -0.00256872 0 0 Z " fill="#2574E1" transform="translate(123.66914367675781,362.8528289794922)"/>
<path d="M0 0 C1.6412039 1.37674451 3.26657003 2.77260469 4.875 4.1875 C6.01775391 5.18716797 6.01775391 5.18716797 7.18359375 6.20703125 C16.52564453 14.93383432 23.33070056 26.29212794 27.875 38.1875 C28.4628125 39.59515625 28.4628125 39.59515625 29.0625 41.03125 C36.34742583 61.46951415 32.90188079 86.83677278 23.875 106.1875 C13.98818909 125.22821893 -1.4506004 138.76257146 -21.125 147.1875 C-22.1871875 147.67476562 -23.249375 148.16203125 -24.34375 148.6640625 C-40.84723861 155.0860722 -64.90254503 155.14536705 -81.47265625 148.80078125 C-92.00781588 144.14728293 -101.50672493 138.9722286 -110.125 131.1875 C-110.88167969 130.52363281 -111.63835937 129.85976562 -112.41796875 129.17578125 C-127.17281248 115.43676153 -137.22617676 94.13956231 -138.23291016 74.03222656 C-138.89422317 48.73028293 -132.21320798 27.46688229 -114.75 8.625 C-113.88375 7.820625 -113.0175 7.01625 -112.125 6.1875 C-111.45339844 5.52234375 -110.78179687 4.8571875 -110.08984375 4.171875 C-80.26500901 -24.34357675 -32.27573225 -25.06466726 0 0 Z " fill="#2574E1" transform="translate(266.125,81.8125)"/>
<path d="M0 0 C4.51876621 4.7633112 5.89694672 9.21911341 6.16015625 15.75 C5.88075975 23.14469416 3.76688334 27.72220361 -1.43115234 32.86962891 C-1.97484467 33.40923248 -2.51853699 33.94883606 -3.07870483 34.50479126 C-3.7029686 35.12116959 -3.7029686 35.12116959 -4.33984375 35.75 C-3.6604776 35.75364563 -2.98111145 35.75729126 -2.28115845 35.76104736 C4.82510918 35.80303702 11.93074084 35.8724979 19.03662109 35.95751953 C21.68434267 35.98564895 24.33214697 36.00690316 26.97998047 36.02099609 C30.79827989 36.04253596 34.61559305 36.08924647 38.43359375 36.140625 C39.60691254 36.14185364 40.78023132 36.14308228 41.98910522 36.14434814 C49.79957293 36.28180867 57.56307887 37.05607756 63.60067749 42.49957275 C69.00810159 48.35238634 70.12670798 53.90480563 69.97265625 61.7421875 C69.35184173 67.71752727 67.05257144 71.32593901 62.91015625 75.5625 C54.98749454 80.89506077 47.94828765 81.21140779 38.62890625 81.26171875 C36.78141785 81.28864555 36.78141785 81.28864555 34.89660645 81.31611633 C30.98449061 81.37005461 27.07249567 81.40406326 23.16015625 81.4375 C20.49865232 81.46906893 17.83723395 81.50517831 15.17578125 81.54101562 C8.67068134 81.62577187 2.16556547 81.69419145 -4.33984375 81.75 C-3.85700928 82.21833252 -3.3741748 82.68666504 -2.87670898 83.16918945 C-2.24450439 83.79011475 -1.6122998 84.41104004 -0.9609375 85.05078125 C-0.33372803 85.66348877 0.29348145 86.27619629 0.93969727 86.9074707 C5.81566212 92.12939588 6.21306221 97.98989306 6 104.81640625 C5.26129999 111.19300063 2.80920132 115.11722767 -2.15234375 119.125 C-8.19770023 123.21090392 -13.46888466 124.01662658 -20.6171875 123.52734375 C-29.49521514 120.99258406 -35.76722454 113.78144351 -42.078125 107.4453125 C-43.0904745 106.43753389 -44.1031919 105.43012473 -45.11625671 104.42306519 C-47.22651308 102.32169371 -49.33106888 100.2148118 -51.43188477 98.10400391 C-54.11429519 95.41007574 -56.8122906 92.73238665 -59.51498127 90.05882454 C-61.6059325 87.98627707 -63.68743294 85.90443465 -65.76634789 83.8198204 C-66.75716618 82.82884959 -67.75105953 81.8409428 -68.74816322 80.85629654 C-79.56569934 70.15506234 -79.56569934 70.15506234 -80.7734375 61.72265625 C-80.77472656 60.76230469 -80.77601563 59.80195313 -80.77734375 58.8125 C-80.79667969 57.85472656 -80.81601562 56.89695313 -80.8359375 55.91015625 C-79.32225475 46.26787797 -72.52229349 40.35525229 -65.87890625 33.79296875 C-64.84458777 32.75849501 -63.81093822 31.72335204 -62.77792358 30.68757629 C-60.6206001 28.52887494 -58.45652895 26.37725606 -56.28710938 24.23071289 C-53.51575466 21.48779435 -50.76030052 18.72952844 -48.0095005 15.96601391 C-45.88064208 13.83018173 -43.74444786 11.70181188 -41.60590744 9.57567787 C-40.58723989 8.56150455 -39.57062515 7.54526475 -38.55617142 6.52687645 C-37.13545845 5.10323344 -35.70390786 3.69043107 -34.27197266 2.27807617 C-33.46241119 1.47391769 -32.65284973 0.66975922 -31.8187561 -0.1587677 C-22.34548518 -8.15050251 -9.4372431 -8.06138219 0 0 Z " fill="#060D43" transform="translate(421.33984375,197.25)"/>
</svg>
