<?xml version="1.0" encoding="UTF-8"?>
<svg version="1.1" xmlns="http://www.w3.org/2000/svg" width="512" height="512">
<path d="M0 0 C0.92106411 0.85827991 1.84212822 1.71655981 2.79110336 2.6008482 C3.30685999 3.0812181 3.82261662 3.561588 4.35400224 4.05651456 C11.10253375 10.38818594 17.62472702 16.95188607 24.15822983 23.50360394 C25.59819007 24.94384693 27.03837189 26.38386842 28.47875595 27.82368755 C32.35206385 31.69671091 36.22230116 35.57278906 40.09195614 39.4494617 C44.15001974 43.51381638 48.21095371 47.57530113 52.27157211 51.63710308 C59.94428274 59.31291016 67.61444276 66.99126066 75.28366876 74.67054921 C84.02181351 83.4199077 92.76282978 92.16639503 101.50407743 100.91265333 C119.47042158 118.88942366 137.43319238 136.86976098 155.39358139 154.85248089 C159.60198333 153.21022109 162.40716277 150.10240967 165.51534653 146.95103741 C166.12565255 146.34032353 166.73595858 145.72960966 167.36475873 145.1003893 C169.41137029 143.05004331 171.45074026 140.99264217 173.49026108 138.93524456 C174.95523278 137.46479808 176.4206678 135.99481308 177.88653183 134.52525616 C181.04429178 131.3577781 184.19896611 128.18726926 187.35136795 125.01445866 C192.3383274 119.9957047 197.3334213 114.98510116 202.32992172 109.9758482 C214.74214043 97.52952882 227.14509582 85.07398916 239.54311752 72.61352825 C249.17262752 62.93554372 258.80531303 53.26077418 268.4486115 43.59652597 C273.41366081 38.61996475 278.37168705 33.63654322 283.32454252 28.64784753 C286.41215164 25.54101041 289.5060338 22.44047922 292.60167694 19.34164906 C294.03293254 17.90638318 295.46160899 16.46853988 296.8874588 15.02790356 C298.83934448 13.05651457 300.80039116 11.09469663 302.76388168 9.1348753 C303.32149272 8.5671615 303.87910375 7.9994477 304.45361209 7.41453046 C312.15145885 -0.21524199 320.19293219 -4.55264547 331.20608139 -4.52251911 C341.17340751 -4.46913895 347.36078368 -1.76001777 354.60451889 4.99310589 C361.76659947 12.43666562 363.80375712 19.54123892 363.75930405 29.80755901 C363.43432687 42.79472046 354.91654975 51.64104834 346.12690353 60.37985516 C345.06293168 61.44956533 345.06293168 61.44956533 343.97746545 62.54088581 C341.61722308 64.91138518 339.24996109 67.2747419 336.88259506 69.63812542 C335.18164218 71.34342876 333.48110669 73.04914851 331.78095627 74.75525188 C327.65181396 78.89637233 323.5179854 83.03276869 319.38167711 87.16673078 C316.01788346 90.52873671 312.65587052 93.89251355 309.29509544 97.25753689 C308.81559403 97.73763349 308.33609262 98.21773009 307.84206087 98.71237507 C306.8677625 99.68788526 305.89346529 100.6633966 304.91916922 101.63890909 C295.79612877 110.7728088 286.66659857 119.90020026 277.53507528 129.02561818 C269.19293823 137.36258569 260.859045 145.70773864 252.52900251 154.05678917 C243.9610827 162.64410879 235.38759227 171.22583018 226.80809003 179.8015784 C221.9972605 184.61049937 217.18863536 189.42157501 212.38585091 194.23853207 C207.86912378 198.76784718 203.34517946 203.28982826 198.8156414 207.80633068 C197.15747631 209.46213274 195.50184966 211.1204815 193.84900284 212.78159237 C191.58663555 215.05445115 189.31514521 217.31779659 187.04121017 219.57907391 C186.39449346 220.2331649 185.74777675 220.8872559 185.08146256 221.56116784 C175.89835874 230.63758904 167.46955977 235.28573456 154.436306 235.21600628 C140.92870435 234.86743301 131.7486208 225.51790737 122.67002487 216.39634991 C121.94786323 215.67871938 121.22570158 214.96108884 120.48165625 214.22171193 C118.08664105 211.83925829 115.69873052 209.44981519 113.31081772 207.06024456 C111.58565391 205.34107096 109.86008253 203.62230626 108.1341362 201.90391827 C103.94830374 197.73387271 99.76721852 193.55910651 95.58871416 189.38172098 C92.19032547 185.98428602 88.79035508 182.58844199 85.38928413 179.19369221 C75.72887352 169.55086912 66.07264039 159.90389068 56.42177109 150.25151821 C55.90272483 149.73239205 55.38367858 149.21326588 54.84890366 148.67840862 C54.32921883 148.15864204 53.80953401 147.63887545 53.27410116 147.10335837 C44.84805122 138.67649517 36.41206221 130.25966034 27.97152678 121.84730848 C19.28739314 113.1919417 10.61077894 104.52909899 1.94187945 95.8584736 C-2.9182568 90.997675 -7.78138988 86.13996698 -12.6526432 81.29030704 C-17.23296427 76.73016165 -21.80278604 72.15966359 -26.3657589 67.58215809 C-28.03842264 65.90740677 -29.71448496 64.23604162 -31.39423752 62.56840038 C-33.69350687 60.28463483 -35.97998788 57.98875865 -38.26381302 55.6895628 C-38.92500379 55.03865915 -39.58619457 54.3877555 -40.26742142 53.7171275 C-48.37047189 45.49376756 -53.27567783 36.83540043 -53.70407486 25.20013714 C-53.37024875 15.89306525 -49.62771264 7.2489121 -42.79391861 0.85248089 C-30.41437628 -8.83380223 -12.54587516 -10.3369837 0 0 Z " fill="#000000" transform="translate(99.60641860961914,215.1475191116333)"/>
<path d="M0 0 C6.21574861 3.85034356 11.59039323 8.49708633 16.71853065 13.67891228 C17.33381536 14.29248813 17.94910006 14.90606398 18.58302975 15.53823304 C20.62206196 17.57399839 22.65391188 19.6167775 24.68581581 21.65965569 C26.15452757 23.12893217 27.62368101 24.59776726 29.09324074 26.06619561 C33.06613855 30.03852129 37.03285398 34.01696857 40.99846458 37.99656737 C45.14952706 42.16016037 49.30628097 46.31806344 53.46242714 50.47658074 C61.32498308 58.34534462 69.18242826 66.21919136 77.0380373 74.09488988 C85.98451547 83.06374838 94.93669575 92.02690613 103.8893528 100.98959625 C122.29920033 119.42033025 140.70189739 137.85818997 159.09987831 156.30076897 C163.30828025 154.65850917 166.11345969 151.55069775 169.22164345 148.39932549 C169.83194947 147.78861162 170.4422555 147.17789774 171.07105565 146.54867738 C173.11766721 144.49833139 175.15703718 142.44093026 177.196558 140.38353264 C178.6615297 138.91308617 180.12696472 137.44310117 181.59282875 135.97354424 C184.7505887 132.80606618 187.90526303 129.63555734 191.05766487 126.46274674 C196.04462432 121.44399278 201.03971822 116.43338924 206.03621864 111.42413628 C218.44843735 98.9778169 230.85139274 86.52227724 243.24941444 74.06181633 C252.87892444 64.3838318 262.51160995 54.70906226 272.15490842 45.04481405 C277.11995773 40.06825283 282.07798397 35.08483131 287.03083944 30.09613562 C290.11844856 26.98929849 293.21233073 23.8887673 296.30797386 20.78993714 C297.73922946 19.35467127 299.16790591 17.91682797 300.59375572 16.47619164 C302.5456414 14.50480265 304.50668809 12.54298471 306.4701786 10.58316338 C307.02778964 10.01544958 307.58540067 9.44773579 308.15990901 8.86281854 C315.85775577 1.23304609 323.89922911 -3.10435739 334.91237831 -3.07423103 C344.87970443 -3.02085086 351.0670806 -0.31172969 358.31081581 6.44139397 C365.47289639 13.8849537 367.51005404 20.989527 367.46560097 31.2558471 C367.14062379 44.24300854 358.62284667 53.08933643 349.83320045 61.82814324 C348.7692286 62.89785341 348.7692286 62.89785341 347.68376237 63.98917389 C345.32352 66.35967326 342.95625801 68.72302999 340.58889198 71.0864135 C338.8879391 72.79171684 337.18740361 74.4974366 335.48725319 76.20353997 C331.35811089 80.34466041 327.22428232 84.48105678 323.08797403 88.61501886 C319.72418038 91.9770248 316.36216744 95.34080163 313.00139236 98.70582497 C312.52189095 99.18592157 312.04238954 99.66601817 311.54835779 100.16066315 C310.57405942 101.13617334 309.59976221 102.11168469 308.62546615 103.08719717 C299.50242569 112.22109688 290.37289549 121.34848834 281.24137221 130.47390626 C272.89923515 138.81087378 264.56534192 147.15602672 256.23529943 155.50507726 C247.66737962 164.09239687 239.09388919 172.67411826 230.51438695 181.24986649 C225.70355743 186.05878745 220.89493228 190.86986309 216.09214783 195.68682015 C211.5754207 200.21613526 207.05147638 204.73811634 202.52193832 209.25461876 C200.86377323 210.91042082 199.20814658 212.56876958 197.55529976 214.22988045 C195.29293247 216.50273924 193.02144213 218.76608468 190.7475071 221.02736199 C190.10079038 221.68145299 189.45407367 222.33554398 188.78775948 223.00945592 C179.60465566 232.08587713 171.17585669 236.73402264 158.14260292 236.66429436 C144.66760729 236.31656251 135.49980016 227.01424345 126.4455204 217.90710747 C125.7308203 217.19623291 125.01612019 216.48535836 124.27976251 215.75294214 C121.91004541 213.39346154 119.5474487 211.02698409 117.18483925 208.66038811 C115.47776536 206.95766574 113.77027542 205.25536041 112.06240273 203.55343926 C107.92109211 199.42409555 103.78449346 195.29007769 99.65033647 191.15357275 C96.28882307 187.79027068 92.92553683 184.42875127 89.56100655 181.06846726 C89.08075671 180.58881262 88.60050688 180.10915797 88.10570402 179.61496834 C87.12986963 178.64034578 86.15403409 177.66572438 85.17819741 176.69110411 C76.046234 167.56999426 66.920772 158.44240151 57.79728869 149.31281053 C49.45971086 140.97005983 41.11393934 132.63556116 32.76428172 124.30490179 C24.17580963 115.73582077 15.59292614 107.16117874 7.01602197 98.58051878 C2.20658925 93.76917668 -2.60500318 88.96004401 -7.42246819 84.15674317 C-11.95014561 79.64164114 -16.4705075 75.11934053 -20.98537254 70.59142792 C-22.64159425 68.9328407 -24.30036958 67.27679887 -25.9618969 65.62352669 C-28.23285196 63.36304168 -30.49432274 61.09346464 -32.75369835 58.82141411 C-33.41002007 58.17246668 -34.06634179 57.52351925 -34.74255204 56.85490674 C-43.41832895 48.07672075 -47.3301675 39.76661049 -47.26364708 27.34569085 C-47.00769069 17.43505949 -42.91620048 11.05153386 -35.90012169 4.30076897 C-26.52423304 -3.72988348 -11.11192225 -6.28210905 0 0 Z " fill="#000000" transform="translate(95.90012168884277,65.69923102855682)"/>
</svg>
