<?xml version="1.0" encoding="UTF-8"?>
<svg version="1.1" xmlns="http://www.w3.org/2000/svg" width="512" height="512">
<path d="M0 0 C1.61408609 -0.00576172 1.61408609 -0.00576172 3.26077998 -0.01163983 C5.0252968 -0.01034011 5.0252968 -0.01034011 6.82546043 -0.00901413 C8.07970546 -0.01198525 9.33395049 -0.01495637 10.62620294 -0.01801753 C14.10535829 -0.02607461 17.58449299 -0.02787638 21.06365657 -0.028615 C24.81705766 -0.03046783 28.57044809 -0.03801637 32.323843 -0.04475021 C40.53063387 -0.05832536 48.73741984 -0.06435711 56.94422007 -0.06876087 C62.07063367 -0.07152495 67.19704539 -0.07576263 72.32345772 -0.08026505 C86.5225373 -0.09245715 100.72161537 -0.10275625 114.92070007 -0.10614014 C115.82928155 -0.1063597 116.73786303 -0.10657927 117.67397728 -0.10680549 C118.58471071 -0.10702377 119.49544413 -0.10724204 120.43377554 -0.10746694 C122.27921144 -0.1079104 124.12464734 -0.10835696 125.97008324 -0.10880661 C127.34317788 -0.10913875 127.34317788 -0.10913875 128.7440118 -0.10947761 C143.57049713 -0.11342404 158.39693326 -0.13087361 173.22339959 -0.15416613 C188.45279008 -0.1778981 203.68215591 -0.19034284 218.91156518 -0.19150805 C227.45933358 -0.19242383 236.00703788 -0.19815152 244.55478859 -0.21632767 C251.83477717 -0.23175364 259.11468185 -0.23683445 266.39468367 -0.22858956 C270.10643279 -0.22469174 273.81801311 -0.22556993 277.52974129 -0.23964691 C281.56105248 -0.25479553 285.59198587 -0.24649361 289.623312 -0.23606491 C290.78627222 -0.24412132 291.94923244 -0.25217772 293.14743388 -0.26047826 C305.27097157 -0.18729704 315.2846091 2.38531136 324.35533714 10.63142776 C325.09783714 11.45642776 325.84033714 12.28142776 326.60533714 13.13142776 C327.28596214 13.87392776 327.96658714 14.61642776 328.66783714 15.38142776 C333.51140034 22.25616263 335.72656935 29.19231787 335.73955822 37.54311085 C335.74191045 38.18770104 335.74426268 38.83229123 335.74668619 39.49641445 C335.75336478 41.66517947 335.75291831 43.83388441 335.75250816 46.00265884 C335.7558075 47.56982131 335.75953322 49.13698293 335.76364964 50.70414346 C335.77366987 55.01787022 335.77738648 59.33158307 335.78003895 63.64531982 C335.78394196 68.29513444 335.79352033 72.94493805 335.80225182 77.59474564 C335.82201674 88.82793245 335.83208265 100.06112016 335.84097961 111.29432002 C335.84536262 116.58419981 335.85072941 121.8740786 335.85596848 127.1639576 C335.87298108 144.74887414 335.88747513 162.33379006 335.89471722 179.91871357 C335.89662711 184.48237547 335.89854744 189.04603737 335.90050316 193.60969925 C335.9009869 194.74397606 335.90147064 195.87825286 335.90196904 197.0469017 C335.91026886 215.42034881 335.93560485 233.79373081 335.96808384 252.16714949 C336.00115724 271.03062756 336.01916625 289.89407253 336.02236146 308.75757974 C336.02452633 319.34876476 336.03327171 329.93985483 336.05882263 340.53101158 C336.08053347 349.55125795 336.08857815 358.57138632 336.07885585 367.59165586 C336.07431223 372.19251906 336.076201 376.7931388 336.09561729 381.39396858 C336.11325738 385.61040359 336.11224447 389.82641769 336.09672 394.04285722 C336.09434521 395.56378981 336.09866084 397.0847516 336.11054865 398.60563958 C336.20910947 412.05410366 333.74344606 422.56308031 324.48033714 432.69392776 C317.45479349 439.47928189 308.20794835 443.06490271 298.50377464 443.16267776 C286.35795666 442.59378699 277.54774212 437.80710887 267.48033714 431.31892776 C265.35287129 429.96844944 263.22526311 428.61819529 261.09752464 427.26814651 C260.01954613 426.58027054 258.94156761 425.89239456 257.83092308 425.18367386 C252.77579501 421.96740028 247.68992835 418.80083131 242.60533714 415.63142776 C240.60517237 414.38169144 238.60517274 413.13169078 236.60533714 411.88142776 C235.61533714 411.26267776 234.62533714 410.64392776 233.60533714 410.00642776 C210.33450381 395.46215693 187.06367048 380.9178861 163.79283714 366.37361526 C162.90596214 365.82544144 162.01908714 365.27726761 161.10533714 364.71248245 C159.49897387 363.69658318 157.91297831 362.64731749 156.35533714 361.55818558 C153.3441507 359.48656914 151.41346162 358.18617875 147.72252464 357.93611526 C142.97921027 359.75498017 138.95128241 362.45559609 134.73033714 365.25642776 C132.75186369 366.54265095 130.77267208 367.82777001 128.79283714 369.11189651 C127.26143089 370.11035599 127.26143089 370.11035599 125.69908714 371.12898636 C120.74629421 374.33470034 115.73920733 377.45184087 110.73033714 380.56892776 C108.71205019 381.82794972 106.69382134 383.08706482 104.67564964 384.34627151 C103.67308128 384.97130569 102.67051292 385.59633987 101.63756371 386.24031448 C96.62443173 389.36686201 91.61506471 392.49942938 86.60533714 395.63142776 C84.60535543 396.88145703 82.60535543 398.13145702 80.60533714 399.38142776 C79.61533714 400.00017776 78.62533714 400.61892776 77.60533714 401.25642776 C74.60533714 403.13142776 71.60533714 405.00642776 68.60533714 406.88142776 C67.61453148 407.50074173 66.62372581 408.12005569 65.60289574 408.75813675 C63.61125335 410.00279158 61.6193928 411.24709739 59.6273098 412.49104691 C54.49755529 415.69493925 49.37221643 418.90558226 44.25377464 422.12752151 C38.38538548 425.81895685 32.50157472 429.48466045 26.60533714 433.13142776 C25.86477074 433.59258987 25.12420433 434.05375198 24.36119652 434.5288887 C12.63245498 441.78710992 3.43542372 444.41654688 -10.39466286 442.13142776 C-20.08424202 439.80368516 -27.83590259 433.35936229 -33.33216286 425.13142776 C-38.35304503 415.78076754 -38.82758316 407.10515739 -38.78234291 396.6589241 C-38.78651979 395.08744342 -38.79199925 393.51596576 -38.79866272 391.94449365 C-38.81308962 387.64200443 -38.80888125 383.33970721 -38.80149591 379.0372076 C-38.7967597 374.39087702 -38.80927811 369.74458771 -38.81951332 365.09827042 C-38.83669788 356.00180814 -38.83754202 346.90541496 -38.83230042 337.80894066 C-38.82825678 330.41412389 -38.82970458 323.01932752 -38.83504868 315.62451172 C-38.83617131 314.04498581 -38.83617131 314.04498581 -38.83731662 312.43355029 C-38.83884812 310.29425014 -38.84038647 308.15494999 -38.84193159 306.01564984 C-38.85565544 285.95952818 -38.85021979 265.90344554 -38.83874638 245.84732477 C-38.82881454 227.50652053 -38.84175404 209.16581718 -38.86568057 190.82502849 C-38.89007417 171.9839832 -38.89967877 153.14298488 -38.89302784 134.30192411 C-38.88953615 123.72759211 -38.89176439 113.15333769 -38.90927887 102.57901764 C-38.92400409 93.57717805 -38.92463207 84.57547069 -38.90720796 75.57363369 C-38.89869819 70.98287152 -38.89654786 66.39234551 -38.91185951 61.80159569 C-38.92571726 57.59459658 -38.92092961 53.38803573 -38.90162028 49.18106191 C-38.89786328 47.66364989 -38.90077358 46.14620267 -38.91123193 44.62882204 C-38.99348492 31.77533509 -36.95711491 21.19868382 -27.95716286 11.50642776 C-27.11153786 10.72267776 -26.26591286 9.93892776 -25.39466286 9.13142776 C-24.67278786 8.45080276 -23.95091286 7.77017776 -23.20716286 7.06892776 C-16.26864767 2.28906175 -8.38008344 0.011259 0 0 Z " fill="#FECA27" transform="translate(107.39466285705566,25.868572235107422)"/>
<path d="M0 0 C1.61408609 -0.00576172 1.61408609 -0.00576172 3.26077998 -0.01163983 C5.0252968 -0.01034011 5.0252968 -0.01034011 6.82546043 -0.00901413 C8.07970546 -0.01198525 9.33395049 -0.01495637 10.62620294 -0.01801753 C14.10535829 -0.02607461 17.58449299 -0.02787638 21.06365657 -0.028615 C24.81705766 -0.03046783 28.57044809 -0.03801637 32.323843 -0.04475021 C40.53063387 -0.05832536 48.73741984 -0.06435711 56.94422007 -0.06876087 C62.07063367 -0.07152495 67.19704539 -0.07576263 72.32345772 -0.08026505 C86.5225373 -0.09245715 100.72161537 -0.10275625 114.92070007 -0.10614014 C115.82928155 -0.1063597 116.73786303 -0.10657927 117.67397728 -0.10680549 C118.58471071 -0.10702377 119.49544413 -0.10724204 120.43377554 -0.10746694 C122.27921144 -0.1079104 124.12464734 -0.10835696 125.97008324 -0.10880661 C127.34317788 -0.10913875 127.34317788 -0.10913875 128.7440118 -0.10947761 C143.57049713 -0.11342404 158.39693326 -0.13087361 173.22339959 -0.15416613 C188.45279008 -0.1778981 203.68215591 -0.19034284 218.91156518 -0.19150805 C227.45933358 -0.19242383 236.00703788 -0.19815152 244.55478859 -0.21632767 C251.83477717 -0.23175364 259.11468185 -0.23683445 266.39468367 -0.22858956 C270.10643279 -0.22469174 273.81801311 -0.22556993 277.52974129 -0.23964691 C281.56105248 -0.25479553 285.59198587 -0.24649361 289.623312 -0.23606491 C290.78627222 -0.24412132 291.94923244 -0.25217772 293.14743388 -0.26047826 C305.27097157 -0.18729704 315.2846091 2.38531136 324.35533714 10.63142776 C325.09783714 11.45642776 325.84033714 12.28142776 326.60533714 13.13142776 C327.28596214 13.87392776 327.96658714 14.61642776 328.66783714 15.38142776 C333.07022716 21.62998133 335.72374506 28.42710866 335.73955822 36.08345795 C335.74401606 37.08622308 335.74847391 38.08898821 335.75306684 39.12214017 C335.75279029 40.77153093 335.75279029 40.77153093 335.75250816 42.45424271 C335.75618485 43.62399541 335.75986154 44.79374811 335.76364964 45.99894786 C335.77276775 49.24672358 335.77738425 52.4944696 335.78003895 55.74225593 C335.78394593 59.24476514 335.79352389 62.74725978 335.80225182 66.24975967 C335.82200362 74.70796959 335.83208015 83.16618068 335.84097961 91.62440789 C335.84536402 95.60816089 335.85073038 99.59191257 335.85596848 103.57566452 C335.87297837 116.81907882 335.88747293 130.06249229 335.89471722 143.30591583 C335.89662708 146.74173102 335.89854742 150.1775462 335.90050316 153.61336136 C335.9009869 154.46730731 335.90147064 155.32125326 335.90196904 156.20107636 C335.91027088 170.0370588 335.93561145 183.87295483 335.96808384 197.70889953 C336.00115443 211.91558243 336.01916592 226.12222141 336.02236146 240.32894301 C336.0245264 248.30488937 336.03327284 256.28070966 336.05882263 264.2566185 C336.08052953 271.04852085 336.08858009 277.84026651 336.07885585 284.63219962 C336.07431125 288.09654688 336.07620617 291.56057082 336.09561729 295.02487373 C336.11326534 298.78374894 336.1062637 302.54180297 336.09308434 306.30067825 C336.1095382 307.93668468 336.1095382 307.93668468 336.12632447 309.60574174 C336.07258635 315.95091549 335.31884574 320.86288739 331.60533714 326.13142776 C326.77970966 330.72165878 322.65488894 331.55080209 316.17955589 331.47517776 C312.11504757 330.93242096 309.29341163 329.19740131 306.60533714 326.13142776 C302.88869803 320.4736842 303.18271673 315.17280023 303.22006798 308.64162064 C303.21483228 307.47817635 303.20959659 306.31473206 303.20420223 305.11603189 C303.19266351 301.89529382 303.1944748 298.67488294 303.20191538 295.45414305 C303.20665917 291.9776696 303.19408864 288.50125403 303.1835537 285.02479935 C303.16758584 279.00402902 303.16230199 272.98332597 303.16408157 266.96253586 C303.16646523 258.25534201 303.15047568 249.54825572 303.12962902 240.84108999 C303.0961118 226.71098907 303.07444327 212.58089778 303.06163597 198.4507637 C303.06086648 197.60534674 303.06009699 196.75992977 303.05930419 195.88889411 C303.05620158 192.46292392 303.05311877 189.03695371 303.05006414 185.61098348 C303.04152709 176.17085578 303.03062786 166.73073139 303.01866722 157.29060745 C303.0175992 156.44500786 303.01653118 155.59940826 303.0154308 154.72818443 C302.99735952 140.64575514 302.97138178 126.56334887 302.94053608 112.48094201 C302.92195334 103.79129571 302.91106456 95.10170101 302.91001416 86.41203454 C302.90891347 80.4643831 302.90099244 74.5167671 302.88763051 68.56913063 C302.88018816 65.13396556 302.87613731 61.698878 302.88074875 58.26370621 C302.88412278 54.54682273 302.87542878 50.83016183 302.86362267 47.11330032 C302.86959431 45.47063395 302.86959431 45.47063395 302.87568659 43.7947824 C302.87007119 42.80521615 302.86445579 41.81564991 302.85867023 40.7960968 C302.85769208 39.50802773 302.85769208 39.50802773 302.85669416 38.19393706 C302.79317669 35.90835287 302.79317669 35.90835287 300.60533714 34.13142776 C298.31578739 33.82804773 298.31578739 33.82804773 295.61714745 33.87974548 C294.55544649 33.87452999 293.49374554 33.86931449 292.39987183 33.86394095 C290.63638429 33.87063312 290.63638429 33.87063312 288.83727074 33.87746048 C287.5955731 33.8743405 286.35387547 33.87122052 285.07455063 33.86800599 C281.61677591 33.86138592 278.15921695 33.86379963 274.70145512 33.86997843 C270.97680144 33.87448709 267.25216719 33.86752707 263.52751732 33.86201859 C256.22651838 33.85310591 248.92556046 33.85505491 241.62455988 33.86084387 C235.69307969 33.865353 229.76161103 33.86597651 223.83012962 33.86379623 C222.98726823 33.86348977 222.14440684 33.8631833 221.2760042 33.86286755 C219.56397072 33.86222813 217.85193725 33.8615797 216.13990378 33.86092237 C200.07043884 33.85521358 184.00099669 33.86178555 167.93153548 33.8725231 C154.130734 33.88145911 140.32996615 33.87990722 126.52916527 33.87068558 C110.51883515 33.85999261 94.50852502 33.85576296 78.49819183 33.8619101 C76.79230945 33.86254723 75.08642706 33.86317597 73.38054466 33.86379623 C72.12141748 33.86425906 72.12141748 33.86425906 70.83685338 33.86473124 C64.90963982 33.8664611 58.98243889 33.86353681 53.05522728 33.85883713 C45.83603433 33.85323909 38.6168849 33.85472196 31.39769697 33.86539862 C27.71142588 33.87066991 24.02522745 33.87268744 20.33895683 33.86610031 C16.3503976 33.85908059 12.36195845 33.86743854 8.37340355 33.87746048 C7.19774519 33.87299904 6.02208683 33.86853759 4.81080246 33.86394095 C3.74910151 33.86915645 2.68740055 33.87437194 1.59352684 33.87974548 C0.21107245 33.88023254 0.21107245 33.88023254 -1.1993103 33.88072944 C-3.60261717 33.92450594 -3.60261717 33.92450594 -5.39466286 36.13142776 C-5.69926111 38.88259427 -5.69926111 38.88259427 -5.64634514 42.16598129 C-5.65416838 44.10861398 -5.65416838 44.10861398 -5.66214967 46.09049177 C-5.65782486 47.54135283 -5.65331152 48.99221333 -5.64863014 50.44307327 C-5.65093245 51.97367645 -5.65410742 53.50427852 -5.65808463 55.03487825 C-5.66647294 59.25651201 -5.66228916 63.47805593 -5.65611219 67.6996901 C-5.65160512 72.24643596 -5.65856275 76.79316587 -5.66407204 81.3399086 C-5.67298642 90.25315752 -5.67103495 99.16637284 -5.66524675 108.0796231 C-5.66073829 115.3206948 -5.66011382 122.56175705 -5.66229439 129.80282974 C-5.66260085 130.83164034 -5.66290732 131.86045093 -5.66322307 132.9204376 C-5.66386249 135.01015008 -5.66451092 137.09986255 -5.66516826 139.18957502 C-5.67087754 158.80569163 -5.66430429 178.42178958 -5.65356752 198.03790313 C-5.64463147 214.88598189 -5.64618335 231.7340331 -5.65540504 248.58211136 C-5.66609713 268.12586722 -5.67032816 287.6696067 -5.66418052 307.21336508 C-5.66354339 309.29558531 -5.66291465 311.37780555 -5.66229439 313.46002579 C-5.66198584 314.4846393 -5.66167729 315.50925281 -5.66135938 316.56491521 C-5.65962925 323.80108439 -5.66255438 331.03724322 -5.66725349 338.2734108 C-5.67285056 347.0864351 -5.67137073 355.89942375 -5.66069201 364.71244395 C-5.6554194 369.21286776 -5.65340543 373.71323204 -5.65999031 378.21365547 C-5.6659192 382.3278291 -5.66272573 386.44188763 -5.65203521 390.55605072 C-5.6497881 392.04995895 -5.65096652 393.54387677 -5.65578678 395.03777891 C-5.66180719 397.05747083 -5.65447868 399.07718972 -5.64634514 401.09687424 C-5.64585808 402.78462377 -5.64585808 402.78462377 -5.64536119 404.50646925 C-5.66060699 407.28993498 -5.66060699 407.28993498 -3.39466286 409.13142776 C2.91709342 409.01999701 6.90244773 406.4521833 12.04283714 403.00642776 C13.73489279 401.90516387 15.42763389 400.80495262 17.12096214 399.70564651 C18.01234886 399.1221846 18.90373558 398.53872269 19.82213402 397.93758011 C24.60530516 394.83355378 29.45156128 391.83118969 34.29283714 388.81892776 C36.33858684 387.54186717 38.38415817 386.26452079 40.42955589 384.98689651 C41.45097679 384.34929398 42.47239769 383.71169144 43.52477074 383.05476761 C48.55280201 379.91553553 53.57899055 376.77335625 58.60533714 373.63142776 C60.605328 372.38141313 62.605328 371.13141314 64.60533714 369.88142776 C65.59533714 369.26267776 66.58533714 368.64392776 67.60533714 368.00642776 C70.60533714 366.13142776 73.60533714 364.25642776 76.60533714 362.38142776 C77.59606224 361.76219437 78.58678734 361.14296097 79.60753441 360.50496292 C81.60010039 359.25967003 83.59277553 358.01455178 85.58556175 356.76961136 C90.70022828 353.57404302 95.81274692 350.37511715 100.92174339 347.17049026 C106.80905181 343.47915428 112.70268337 339.79817845 118.60533714 336.13142776 C119.39956078 335.63787796 120.19378441 335.14432816 121.01207542 334.6358223 C123.08016684 333.35570507 125.1536214 332.08499222 127.23033714 330.81892776 C128.33635277 330.14216995 129.44236839 329.46541214 130.58189964 328.76814651 C136.57786787 325.52226707 141.66443586 324.76772996 148.35533714 324.75642776 C149.10299339 324.73193558 149.85064964 324.70744339 150.62096214 324.68220901 C160.42797292 324.63183053 168.24399024 329.18110055 176.23033714 334.44392776 C177.89516789 335.51767259 179.56055969 336.59054787 181.22643089 337.66267776 C182.09896507 338.22728714 182.97149925 338.79189651 183.87047386 339.37361526 C188.64821118 342.44446946 193.47243859 345.44066533 198.29283714 348.44392776 C200.33850406 349.72112096 202.38407618 350.99846602 204.42955589 352.27595901 C205.45097679 352.91356155 206.47239769 353.55116409 207.52477074 354.20808792 C212.55280201 357.34732 217.57899055 360.48949928 222.60533714 363.63142776 C224.605328 364.8814424 226.605328 366.13144239 228.60533714 367.38142776 C240.60533714 374.88142776 240.60533714 374.88142776 243.60802269 376.75813675 C245.59903426 378.00249871 247.59008217 379.24680252 249.58116722 380.49104691 C255.77827617 384.36379594 261.97404181 388.23868217 268.16856956 392.11555862 C271.19763036 394.00940213 274.2295082 395.89867158 277.26158714 397.78767776 C280.46481233 399.7851946 283.65471521 401.79940769 286.82408714 403.85017776 C287.4251931 404.23439896 288.02629906 404.61862015 288.64562035 405.01448441 C290.14095511 405.97170255 291.62941265 406.93964293 293.11705589 407.90877151 C295.89356575 409.27305344 297.55279842 409.55264691 300.60533714 409.13142776 C303.04750457 406.68926033 302.84561867 405.36058806 302.88179588 402.02736282 C302.88030037 400.98832809 302.88030037 400.98832809 302.87877464 399.92830276 C302.89907545 398.45824323 302.91992644 396.98819121 302.94127464 395.51814651 C302.96381226 393.2031408 302.98031936 390.88843242 302.98619652 388.5733223 C302.99576804 386.33693608 303.02961086 384.10188676 303.06627464 381.86580276 C303.06122917 381.18120987 303.0561837 380.49661697 303.05098534 379.79127884 C303.15228643 374.79791182 304.5151316 371.99861955 307.60533714 368.13142776 C311.33536402 364.76530595 313.84593473 363.26421285 318.91783714 362.88142776 C324.78665851 363.27931396 328.08346236 365.31319141 331.91783714 369.63142776 C335.67480891 374.1279609 335.78675929 378.23622498 335.84361839 383.91267776 C335.85169014 384.68140213 335.85976189 385.4501265 335.86807823 386.24214554 C335.88190816 387.87286002 335.8926352 389.50360331 335.90050316 391.13435745 C335.91196033 392.78483572 335.93231158 394.4352788 335.9620266 396.08552933 C336.22090103 410.4725844 334.58915435 421.63814876 324.48033714 432.69392776 C317.45479349 439.47928189 308.20794835 443.06490271 298.50377464 443.16267776 C286.35795666 442.59378699 277.54774212 437.80710887 267.48033714 431.31892776 C265.35287129 429.96844944 263.22526311 428.61819529 261.09752464 427.26814651 C260.01954613 426.58027054 258.94156761 425.89239456 257.83092308 425.18367386 C252.77579501 421.96740028 247.68992835 418.80083131 242.60533714 415.63142776 C240.60517237 414.38169144 238.60517274 413.13169078 236.60533714 411.88142776 C235.61533714 411.26267776 234.62533714 410.64392776 233.60533714 410.00642776 C210.33450381 395.46215693 187.06367048 380.9178861 163.79283714 366.37361526 C162.90596214 365.82544144 162.01908714 365.27726761 161.10533714 364.71248245 C159.49897387 363.69658318 157.91297831 362.64731749 156.35533714 361.55818558 C153.3441507 359.48656914 151.41346162 358.18617875 147.72252464 357.93611526 C142.97921027 359.75498017 138.95128241 362.45559609 134.73033714 365.25642776 C132.75186369 366.54265095 130.77267208 367.82777001 128.79283714 369.11189651 C127.26143089 370.11035599 127.26143089 370.11035599 125.69908714 371.12898636 C120.74629421 374.33470034 115.73920733 377.45184087 110.73033714 380.56892776 C108.71205019 381.82794972 106.69382134 383.08706482 104.67564964 384.34627151 C103.67308128 384.97130569 102.67051292 385.59633987 101.63756371 386.24031448 C96.62443173 389.36686201 91.61506471 392.49942938 86.60533714 395.63142776 C84.60535543 396.88145703 82.60535543 398.13145702 80.60533714 399.38142776 C79.61533714 400.00017776 78.62533714 400.61892776 77.60533714 401.25642776 C74.60533714 403.13142776 71.60533714 405.00642776 68.60533714 406.88142776 C67.61453148 407.50074173 66.62372581 408.12005569 65.60289574 408.75813675 C63.61125335 410.00279158 61.6193928 411.24709739 59.6273098 412.49104691 C54.49755529 415.69493925 49.37221643 418.90558226 44.25377464 422.12752151 C38.38538548 425.81895685 32.50157472 429.48466045 26.60533714 433.13142776 C25.86477074 433.59258987 25.12420433 434.05375198 24.36119652 434.5288887 C12.63245498 441.78710992 3.43542372 444.41654688 -10.39466286 442.13142776 C-20.08424202 439.80368516 -27.83590259 433.35936229 -33.33216286 425.13142776 C-38.35304503 415.78076754 -38.82758316 407.10515739 -38.78234291 396.6589241 C-38.78651979 395.08744342 -38.79199925 393.51596576 -38.79866272 391.94449365 C-38.81308962 387.64200443 -38.80888125 383.33970721 -38.80149591 379.0372076 C-38.7967597 374.39087702 -38.80927811 369.74458771 -38.81951332 365.09827042 C-38.83669788 356.00180814 -38.83754202 346.90541496 -38.83230042 337.80894066 C-38.82825678 330.41412389 -38.82970458 323.01932752 -38.83504868 315.62451172 C-38.83617131 314.04498581 -38.83617131 314.04498581 -38.83731662 312.43355029 C-38.83884812 310.29425014 -38.84038647 308.15494999 -38.84193159 306.01564984 C-38.85565544 285.95952818 -38.85021979 265.90344554 -38.83874638 245.84732477 C-38.82881454 227.50652053 -38.84175404 209.16581718 -38.86568057 190.82502849 C-38.89007417 171.9839832 -38.89967877 153.14298488 -38.89302784 134.30192411 C-38.88953615 123.72759211 -38.89176439 113.15333769 -38.90927887 102.57901764 C-38.92400409 93.57717805 -38.92463207 84.57547069 -38.90720796 75.57363369 C-38.89869819 70.98287152 -38.89654786 66.39234551 -38.91185951 61.80159569 C-38.92571726 57.59459658 -38.92092961 53.38803573 -38.90162028 49.18106191 C-38.89786328 47.66364989 -38.90077358 46.14620267 -38.91123193 44.62882204 C-38.99348492 31.77533509 -36.95711491 21.19868382 -27.95716286 11.50642776 C-27.11153786 10.72267776 -26.26591286 9.93892776 -25.39466286 9.13142776 C-24.67278786 8.45080276 -23.95091286 7.77017776 -23.20716286 7.06892776 C-16.26864767 2.28906175 -8.38008344 0.011259 0 0 Z " fill="#1D372A" transform="translate(107.39466285705566,25.868572235107422)"/>
<path d="M0 0 C0.9590625 -0.01546875 0.9590625 -0.01546875 1.9375 -0.03125 C4.99012613 0.75503249 6.67988503 2.39201182 9 4.5 C10.43406677 7.00415039 10.43406677 7.00415039 11.58374023 9.84765625 C12.02447372 10.91556396 12.46520721 11.98347168 12.91929626 13.08374023 C13.60699852 14.80572632 13.60699852 14.80572632 14.30859375 16.5625 C15.05606887 18.37072614 15.80356522 20.17894384 16.55230045 21.98664856 C18.12385763 25.79307902 19.67177615 29.60917736 21.2175293 33.42614746 C22.49183151 36.57250603 23.77267526 39.71571951 25.07325745 42.85131836 C26.04585927 45.19955882 27.00268086 47.55441236 27.9417572 49.91625977 C29.77370976 54.32360267 31.30380343 57.78273965 34.64672852 61.22680664 C39.50337568 63.0708121 43.94114453 63.0064778 49.09375 62.93359375 C51.27994863 62.94319739 53.46614654 62.95296811 55.65234375 62.96289062 C59.08227669 62.95428506 62.51202288 62.93742239 65.94189453 62.9152832 C69.26371853 62.90075766 72.58446427 62.91601725 75.90625 62.93359375 C76.92827515 62.91711288 77.95030029 62.90063202 79.0032959 62.88365173 C83.54380353 62.91545394 86.96284619 62.9435175 90.64257812 65.79711914 C93 68.5 93 68.5 93.8125 72.3125 C93.30617711 77.85105244 89.98495931 80.91931193 86 84.5 C82.68734827 87.23411617 79.3215804 89.87925492 75.91015625 92.48828125 C71.70782132 95.70397172 67.60055249 99.03100349 63.5 102.375 C62.84201416 102.91020264 62.18402832 103.44540527 61.50610352 103.99682617 C60.25767993 105.01382999 59.01078126 106.03270941 57.765625 107.05371094 C56.59236213 108.01477416 55.41528482 108.97120023 54.234375 109.92285156 C51.17076769 112.33036119 51.17076769 112.33036119 49 115.5 C49.41032691 122.95419359 51.35034707 129.60207273 53.59765625 136.69140625 C54.32370318 139.04097377 55.04961043 141.39058445 55.77539062 143.74023438 C56.91969624 147.41022637 58.067687 151.0790246 59.21899414 154.74682617 C60.33388663 158.30881117 61.43509555 161.8748178 62.53515625 165.44140625 C62.88199966 166.53119278 63.22884308 167.62097931 63.5861969 168.74378967 C67.49757297 181.46633612 67.49757297 181.46633612 65.22265625 187.59375 C62.85984722 190.45776094 60.68271131 192.01370296 57.0625 192.5 C50.33147192 191.9712122 45.27587834 187.21430561 40.16650391 183.19970703 C37.7557907 181.30840826 35.32344895 179.44749537 32.88671875 177.58984375 C31.99404297 176.90921875 31.10136719 176.22859375 30.18164062 175.52734375 C26.59326523 172.79455964 23.00465508 170.06210656 19.41162109 167.33544922 C17.91552153 166.19678992 16.42295036 165.05345886 14.93603516 163.90283203 C13.22205044 162.58066684 11.49082564 161.28648855 9.75 160 C8.83734375 159.3090625 7.9246875 158.618125 6.984375 157.90625 C2.84102048 155.953884 -0.50593084 155.5334725 -5 156.5 C-8.14444795 158.14674389 -10.69791478 160.31023393 -13.375 162.625 C-14.94327855 163.91263749 -16.51366267 165.19771399 -18.0859375 166.48046875 C-18.88999023 167.14481934 -19.69404297 167.80916992 -20.52246094 168.49365234 C-26.81533218 173.58971224 -33.43998118 178.26453637 -39.99121094 183.02001953 C-41.71859932 184.29267733 -43.41356599 185.60913301 -45.1015625 186.93359375 C-49.62349976 190.41254548 -53.15091001 192.64360122 -59.015625 192.11328125 C-61.80661608 191.25071117 -63.5767889 189.73279758 -65.18359375 187.30859375 C-68.33413769 180.32915909 -64.78237651 173.3738023 -62.41796875 166.6640625 C-60.96326337 162.49003311 -59.77332851 158.26698706 -58.625 154 C-57.22060938 148.78549649 -55.74076997 143.60784082 -54.12890625 138.453125 C-53.80776855 137.42380859 -53.48663086 136.39449219 -53.15576172 135.33398438 C-52.52262528 133.31739853 -51.88260263 131.30295846 -51.23486328 129.29101562 C-48.94421135 122.51252785 -48.94421135 122.51252785 -49 115.5 C-52.11264573 110.98089954 -55.87248655 107.78455329 -60.25 104.5 C-61.48712019 103.5500535 -62.72272595 102.5981324 -63.95703125 101.64453125 C-64.60881348 101.14131348 -65.2605957 100.6380957 -65.93212891 100.11962891 C-69.65245853 97.20573673 -73.29389541 94.19639155 -76.9375 91.1875 C-77.63456055 90.61322266 -78.33162109 90.03894531 -79.04980469 89.44726562 C-81.03835941 87.80425679 -83.0205382 86.15394809 -85 84.5 C-86.00184326 83.66782959 -86.00184326 83.66782959 -87.02392578 82.81884766 C-87.65669434 82.28694824 -88.28946289 81.75504883 -88.94140625 81.20703125 C-89.50674072 80.73370361 -90.0720752 80.26037598 -90.65454102 79.77270508 C-93.42620454 77.15091558 -93.25427157 74.33004206 -93.5234375 70.66796875 C-92.64322534 67.02231392 -90.97668655 65.75482229 -88 63.5 C-84.26282538 62.7830207 -80.57992957 62.87397739 -76.78515625 62.93359375 C-75.69665878 62.92795914 -74.60816132 62.92232452 -73.48667908 62.91651917 C-70.0115144 62.90006601 -66.53762056 62.91561364 -63.0625 62.9375 C-59.59106825 62.95410281 -56.12047741 62.9631739 -52.64903259 62.94776917 C-50.490959 62.93850285 -48.33270775 62.94760735 -46.17481995 62.97740173 C-41.92695851 62.96195338 -38.62577717 62.73648028 -34.63085938 61.22680664 C-30.5069319 56.9524798 -28.73240535 51.90479914 -26.55859375 46.4375 C-25.80967645 44.6293213 -25.06074373 42.82114881 -24.31090641 41.01335144 C-23.00436022 37.84849188 -21.72269745 34.67357286 -20.4375 31.5 C-18.8995161 27.71170028 -17.35559933 23.9260887 -15.79103088 20.14868164 C-14.81989512 17.79939535 -13.86211597 15.44453285 -12.91929626 13.08374023 C-12.25819603 11.48187866 -12.25819603 11.48187866 -11.58374023 9.84765625 C-11.20434799 8.90929932 -10.82495575 7.97094238 -10.43406677 7.00415039 C-8.09156818 2.91370713 -4.87631654 -0.07865027 0 0 Z " fill="#FFFEFD" transform="translate(256,106.5)"/>
</svg>
