<?xml version="1.0" encoding="UTF-8"?>
<svg version="1.1" xmlns="http://www.w3.org/2000/svg" width="512" height="512">
<path d="M0 0 C1.73852539 1.28637695 1.73852539 1.28637695 3 3 C3.55939644 8.80677829 2.56961451 12.97496675 0.25 18.3125 C-2.234589 24.44786863 -3.98613496 30.51519511 -5.3125 37 C-5.47137695 37.77641846 -5.63025391 38.55283691 -5.79394531 39.3527832 C-11.24494974 67.22778224 -8.23422253 96.01159698 0 123 C0.35505615 124.17199951 0.35505615 124.17199951 0.71728516 125.36767578 C7.39580198 146.91085182 17.59966969 167.20122401 30 186 C30.4522998 186.68884277 30.90459961 187.37768555 31.37060547 188.08740234 C36.93728134 196.50756773 42.88722656 204.54343652 49.171875 212.4375 C70.55791134 239.31251901 83.74623994 266.90045966 89 301 C89.1045752 301.65669678 89.20915039 302.31339355 89.31689453 302.98999023 C90.42933786 311.19799112 90.24395599 319.54449959 90.25 327.8125 C90.25067474 328.64013855 90.25134949 329.4677771 90.25204468 330.32049561 C90.23590378 342.78096935 89.7766243 354.80580943 87 367 C86.83371094 367.76795898 86.66742188 368.53591797 86.49609375 369.32714844 C75.75670193 417.87317703 45.35944238 458.92840818 3.85546875 485.65234375 C-2.50587942 489.61336703 -9.20806158 492.85400339 -16 496 C-17.12792969 496.53367187 -18.25585938 497.06734375 -19.41796875 497.6171875 C-53.04380558 512.83356853 -94.89933858 517.67508799 -131 509 C-131.75087891 508.83371094 -132.50175781 508.66742188 -133.27539062 508.49609375 C-179.68717699 498.14829663 -220.18887126 469.11925633 -246.3046875 429.5625 C-248.28652058 426.41624359 -250.16120798 423.23169671 -252 420 C-252.96292969 418.36998047 -252.96292969 418.36998047 -253.9453125 416.70703125 C-270.00145711 388.77644063 -276.45061373 357.21307915 -276.3125 325.3125 C-276.30926727 323.96381836 -276.30926727 323.96381836 -276.30596924 322.58789062 C-276.24589733 306.88724743 -275.39278311 291.54008597 -273 276 C-272.80664062 274.73381836 -272.61328125 273.46763672 -272.4140625 272.16308594 C-261.39027902 201.49755725 -234.1424806 132.15595667 -194 73 C-193.55027832 72.33645508 -193.10055664 71.67291016 -192.63720703 70.98925781 C-186.6271722 62.1915317 -180.08138186 53.95767326 -173 46 C-172.19175781 45.071875 -171.38351563 44.14375 -170.55078125 43.1875 C-165.06528415 37.22702777 -165.06528415 37.22702777 -160.1875 36.1875 C-156.4581657 37.13811463 -155.35739832 38.00119599 -153 41 C-152.33398438 44.04248047 -152.33398438 44.04248047 -152.09375 47.6171875 C-152.04362259 48.26309845 -151.99349518 48.9090094 -151.94184875 49.57449341 C-151.83525321 50.95764212 -151.73625731 52.3413939 -151.64419556 53.72558594 C-151.40180617 57.33870113 -151.0997876 60.94654842 -150.79296875 64.5546875 C-150.7324382 65.27348083 -150.67190765 65.99227417 -150.60954285 66.73284912 C-149.76544699 76.2744724 -147.95506291 85.63157673 -146 95 C-145.53851563 94.28457031 -145.07703125 93.56914063 -144.6015625 92.83203125 C-114.23265062 46.43841686 -70.20753682 17.3616264 -17.1875 2 C-16.48939209 1.79213867 -15.79128418 1.58427734 -15.07202148 1.37011719 C-10.20142605 0.03159716 -5.02588213 -0.9249861 0 0 Z " fill="#EC6263" transform="translate(349,0)"/>
<path d="M0 0 C4.09260813 2.03970308 6.46146842 4.47355658 9.25 8.0625 C12.18625124 11.7643085 15.1688243 15.34201591 18.375 18.8125 C23.38100572 24.31997089 27.92723698 30.1504117 32.47265625 36.03564453 C34.05083331 38.065378 35.64825454 40.07866867 37.25 42.08984375 C63.57572637 75.27607636 97.3995101 118.17613327 92.78173828 163.12451172 C90.24158687 181.09306962 82.79477426 198.22291073 71 212 C70.01773438 213.19882812 70.01773438 213.19882812 69.015625 214.421875 C56.44891472 229.19005277 39.67752148 238.98956263 21 244 C20.39188477 244.17442627 19.78376953 244.34885254 19.15722656 244.52856445 C-4.21429704 250.58273173 -30.54554348 246.02912007 -51.20703125 234.09570312 C-56.09904057 231.10614188 -60.58096851 227.64909774 -65 224 C-65.78761719 223.37609375 -66.57523438 222.7521875 -67.38671875 222.109375 C-83.27723692 208.90887474 -91.74471146 190.5530776 -97 171 C-97.36931641 169.73349609 -97.36931641 169.73349609 -97.74609375 168.44140625 C-101.43075196 153.7790077 -99.29234488 138.89699647 -94 125 C-93.75362793 124.34999023 -93.50725586 123.69998047 -93.25341797 123.03027344 C-82.36809444 95.08355628 -64.36544021 69.50723611 -46 46 C-45.06996246 44.79454082 -44.14027661 43.58881021 -43.2109375 42.3828125 C-37.86103528 35.47553394 -32.3166832 28.7573641 -26.64453125 22.11328125 C-21.94780489 16.60481749 -17.3467812 11.00858221 -12.89453125 5.30078125 C-9.21366326 0.83061373 -5.77452819 -0.72181602 0 0 Z " fill="#FBC06C" transform="translate(259,209)"/>
<path d="M0 0 C1.09248047 -0.02513672 1.09248047 -0.02513672 2.20703125 -0.05078125 C4.1875 0.3125 4.1875 0.3125 5.94921875 1.33203125 C7.93544268 4.5087364 7.65186813 7.72517385 7.1875 11.3125 C6.36032727 13.86294925 5.49840638 16.18380857 4.4375 18.625 C1.952911 24.76036863 0.20136504 30.82769511 -1.125 37.3125 C-1.28387695 38.08891846 -1.44275391 38.86533691 -1.60644531 39.6652832 C-7.05744974 67.54028224 -4.04672253 96.32409698 4.1875 123.3125 C4.4242041 124.09383301 4.6609082 124.87516602 4.90478516 125.68017578 C11.58330198 147.22335182 21.78716969 167.51372401 34.1875 186.3125 C34.86594971 187.34576416 34.86594971 187.34576416 35.55810547 188.39990234 C41.12478134 196.82006773 47.07472656 204.85593652 53.359375 212.75 C74.74541134 239.62501901 87.93373994 267.21295966 93.1875 301.3125 C93.2920752 301.96919678 93.39665039 302.62589355 93.50439453 303.30249023 C94.61683786 311.51049112 94.43145599 319.85699959 94.4375 328.125 C94.43817474 328.95263855 94.43884949 329.7802771 94.43954468 330.63299561 C94.42340378 343.09346935 93.9641243 355.11830943 91.1875 367.3125 C91.02121094 368.08045898 90.85492188 368.84841797 90.68359375 369.63964844 C79.94420193 418.18567703 49.54694238 459.24090818 8.04296875 485.96484375 C1.68162058 489.92586703 -5.02056158 493.16650339 -11.8125 496.3125 C-12.94042969 496.84617187 -14.06835938 497.37984375 -15.23046875 497.9296875 C-45.19024834 511.48710242 -75.47947457 512.97297978 -107.8125 512.3125 C-107.8125 511.6525 -107.8125 510.9925 -107.8125 510.3125 C-106.49765625 510.21775391 -106.49765625 510.21775391 -105.15625 510.12109375 C-87.10359908 508.3782057 -69.31125211 502.75818544 -52.8125 495.3125 C-52.19036621 495.0335791 -51.56823242 494.7546582 -50.92724609 494.46728516 C-34.1996095 486.86076267 -19.51710812 476.47013354 -5.8125 464.3125 C-4.52274786 463.2476768 -3.23144658 462.18472226 -1.9375 461.125 C1.8412983 457.8518803 5.00647533 454.15973927 8.1875 450.3125 C8.83960449 449.53688721 8.83960449 449.53688721 9.50488281 448.74560547 C42.67680295 409.1754404 56.99878687 360.91121684 52.68359375 309.5703125 C49.19844088 274.82214579 37.5644999 244.65079149 15.31762695 217.64526367 C-4.97364533 192.89520158 -21.73581197 165.36690402 -33.02099609 135.39355469 C-33.66024454 133.71281633 -34.33453282 132.04543006 -35.01953125 130.3828125 C-38.86664949 120.78800763 -40.76755767 110.41599084 -42.8125 100.3125 C-43.00521484 99.40258301 -43.19792969 98.49266602 -43.39648438 97.55517578 C-44.94731841 89.48504389 -45.11911484 81.51725935 -45.07324219 73.33251953 C-45.06258033 71.0794747 -45.07316695 68.82723862 -45.0859375 66.57421875 C-45.10002999 53.50192024 -44.21250337 40.52880872 -40.4375 27.9375 C-40.2415625 27.23496094 -40.045625 26.53242188 -39.84375 25.80859375 C-39.43329342 24.38238704 -38.99838065 22.96298672 -38.5390625 21.55175781 C-38.01799807 19.94584283 -37.54993787 18.3223605 -37.1171875 16.69042969 C-35.93710305 12.88994544 -35.06627624 10.13427195 -31.65283203 7.89697266 C-28.9812792 6.82353052 -26.34942458 6.03332282 -23.5625 5.3125 C-22.64597656 5.04050781 -21.72945313 4.76851563 -20.78515625 4.48828125 C-18.13817779 3.71420053 -15.48221006 3.00354704 -12.8125 2.3125 C-12.05815674 2.10858643 -11.30381348 1.90467285 -10.52661133 1.69458008 C-6.99593073 0.76323441 -3.65791287 0.0197725 0 0 Z " fill="#E64649" transform="translate(344.8125,-0.3125)"/>
<path d="M0 0 C4.09260813 2.03970308 6.46146842 4.47355658 9.25 8.0625 C12.18625124 11.7643085 15.1688243 15.34201591 18.375 18.8125 C23.38100572 24.31997089 27.92723698 30.1504117 32.47265625 36.03564453 C34.05083331 38.065378 35.64825454 40.07866867 37.25 42.08984375 C63.57572637 75.27607636 97.3995101 118.17613327 92.78173828 163.12451172 C90.24158687 181.09306962 82.79477426 198.22291073 71 212 C70.01773438 213.19882812 70.01773438 213.19882812 69.015625 214.421875 C56.44891472 229.19005277 39.67752148 238.98956263 21 244 C20.40203613 244.17732666 19.80407227 244.35465332 19.18798828 244.53735352 C12.43038508 246.33013852 5.73494001 246.27084937 -1.22167969 246.20581055 C-3.25989166 246.1874107 -5.29765057 246.18530248 -7.3359375 246.18554688 C-18.17037598 246.13708269 -18.17037598 246.13708269 -23 245 C-23 244.67 -23 244.34 -23 244 C-21.58460938 243.65388672 -21.58460938 243.65388672 -20.140625 243.30078125 C-1.39250195 238.59717118 14.23994868 230.76005132 28 217 C28.69609375 216.30390625 29.3921875 215.6078125 30.109375 214.890625 C39.26678005 205.16531886 45.3856573 193.45053415 50 181 C50.41507812 179.88625 50.83015625 178.7725 51.2578125 177.625 C59.66151326 151.29732209 51.60760568 126.73901919 39.59765625 103.2578125 C25.58098787 76.56643996 7.23365547 52.12845529 -12 29 C-12.5067627 28.38882324 -13.01352539 27.77764648 -13.53564453 27.14794922 C-16.34760199 23.75730172 -19.16871123 20.37453831 -22 17 C-20.01940324 14.31836728 -18.01780606 11.65374968 -16 9 C-15.55914062 8.41863281 -15.11828125 7.83726562 -14.6640625 7.23828125 C-10.48909824 1.95974364 -6.90588569 -0.86323571 0 0 Z " fill="#FBB34D" transform="translate(259,209)"/>
</svg>
