<?xml version="1.0" encoding="UTF-8"?>
<svg version="1.1" xmlns="http://www.w3.org/2000/svg" width="512" height="512">
<path d="M0 0 C0.74685059 0.31694824 1.49370117 0.63389648 2.26318359 0.96044922 C18.82621727 8.09694508 34.10977032 17.50814433 48 29 C48.57202148 29.47050781 49.14404297 29.94101563 49.73339844 30.42578125 C61.64620087 40.27837726 72.51822512 50.73325559 82 63 C82.41717285 63.53012695 82.8343457 64.06025391 83.26416016 64.60644531 C117.46099828 108.26791407 132.20614557 164.6462215 125.875 219.5625 C123.27792321 239.86285037 118.03741271 259.19468795 110 278 C109.68305176 278.74685059 109.36610352 279.49370117 109.03955078 280.26318359 C101.90305492 296.82621727 92.49185567 312.10977032 81 326 C80.52949219 326.57202148 80.05898438 327.14404297 79.57421875 327.73339844 C69.72162274 339.64620087 59.26674441 350.51822512 47 360 C46.46987305 360.41717285 45.93974609 360.8343457 45.39355469 361.26416016 C0.76657765 396.21721037 -56.26287766 410.27185086 -112.2043457 403.47827148 C-131.60641166 400.85089331 -150.01377581 395.68733358 -168 388 C-169.12027588 387.52457764 -169.12027588 387.52457764 -170.26318359 387.03955078 C-186.82621727 379.90305492 -202.10977032 370.49185567 -216 359 C-216.57202148 358.52949219 -217.14404297 358.05898438 -217.73339844 357.57421875 C-229.64620087 347.72162274 -240.51822512 337.26674441 -250 325 C-250.41717285 324.46987305 -250.8343457 323.93974609 -251.26416016 323.39355469 C-285.46099828 279.73208593 -300.20614557 223.3537785 -293.875 168.4375 C-291.27792321 148.13714963 -286.03741271 128.80531205 -278 110 C-277.68305176 109.25314941 -277.36610352 108.50629883 -277.03955078 107.73681641 C-269.90305492 91.17378273 -260.49185567 75.89022968 -249 62 C-248.52949219 61.42797852 -248.05898437 60.85595703 -247.57421875 60.26660156 C-237.72162274 48.35379913 -227.26674441 37.48177488 -215 28 C-214.46987305 27.58282715 -213.93974609 27.1656543 -213.39355469 26.73583984 C-153.16367042 -20.43782749 -70.01317006 -29.92371205 0 0 Z " fill="#6EAEC5" transform="translate(340,62)"/>
<path d="M0 0 C0.74685059 0.31694824 1.49370117 0.63389648 2.26318359 0.96044922 C18.82621727 8.09694508 34.10977032 17.50814433 48 29 C48.57202148 29.47050781 49.14404297 29.94101563 49.73339844 30.42578125 C61.64620087 40.27837726 72.51822512 50.73325559 82 63 C82.41717285 63.53012695 82.8343457 64.06025391 83.26416016 64.60644531 C117.46099828 108.26791407 132.20614557 164.6462215 125.875 219.5625 C123.27792321 239.86285037 118.03741271 259.19468795 110 278 C109.68305176 278.74685059 109.36610352 279.49370117 109.03955078 280.26318359 C101.90305492 296.82621727 92.49185567 312.10977032 81 326 C80.52949219 326.57202148 80.05898438 327.14404297 79.57421875 327.73339844 C69.72162274 339.64620087 59.26674441 350.51822512 47 360 C46.46987305 360.41717285 45.93974609 360.8343457 45.39355469 361.26416016 C0.76657765 396.21721037 -56.26287766 410.27185086 -112.2043457 403.47827148 C-131.60641166 400.85089331 -150.01377581 395.68733358 -168 388 C-169.12027588 387.52457764 -169.12027588 387.52457764 -170.26318359 387.03955078 C-186.82621727 379.90305492 -202.10977032 370.49185567 -216 359 C-216.57202148 358.52949219 -217.14404297 358.05898438 -217.73339844 357.57421875 C-229.64620087 347.72162274 -240.51822512 337.26674441 -250 325 C-250.41717285 324.46987305 -250.8343457 323.93974609 -251.26416016 323.39355469 C-285.46099828 279.73208593 -300.20614557 223.3537785 -293.875 168.4375 C-291.27792321 148.13714963 -286.03741271 128.80531205 -278 110 C-277.68305176 109.25314941 -277.36610352 108.50629883 -277.03955078 107.73681641 C-269.90305492 91.17378273 -260.49185567 75.89022968 -249 62 C-248.52949219 61.42797852 -248.05898437 60.85595703 -247.57421875 60.26660156 C-237.72162274 48.35379913 -227.26674441 37.48177488 -215 28 C-214.46987305 27.58282715 -213.93974609 27.1656543 -213.39355469 26.73583984 C-153.16367042 -20.43782749 -70.01317006 -29.92371205 0 0 Z M-125 27.25 C-125.83756836 27.46615967 -126.67513672 27.68231934 -127.53808594 27.9050293 C-154.02226136 34.95859102 -178.62492492 48.35616071 -198.7578125 66.9453125 C-200.69106313 68.71689757 -202.66289334 70.39782341 -204.6875 72.0625 C-233.03084165 96.31912727 -251.59381164 139.02040431 -254.78613281 175.71069336 C-257.80651363 222.16456409 -246.68107133 268.02369576 -215.57421875 303.7890625 C-214.0755504 305.45206928 -212.56658669 307.10591487 -211.04296875 308.74609375 C-209.62627044 310.30906683 -208.26831026 311.92652667 -206.9609375 313.58203125 C-204.0268046 317.20001584 -200.55811558 320.0128658 -197 323 C-196.195625 323.69222656 -195.39125 324.38445312 -194.5625 325.09765625 C-182.43327364 335.33169099 -169.42939568 343.44367763 -155 350 C-154.31679687 350.31066406 -153.63359375 350.62132812 -152.9296875 350.94140625 C-109.98906084 370.16015114 -62.95342702 369.41177561 -19.32714844 352.99414062 C-0.57019431 345.53305764 16.00154734 334.67620269 30.82421875 320.98828125 C32.57001374 319.39293179 34.33288102 317.90064268 36.1875 316.4375 C39.86598252 313.24948182 42.90830811 309.75251153 46 306 C46.41443359 305.49791016 46.82886719 304.99582031 47.25585938 304.47851562 C67.40413236 279.91099661 82.68698992 248.92536987 86 217 C86.10957031 216.12601563 86.21914063 215.25203125 86.33203125 214.3515625 C91.08548255 170.11277572 79.73136462 124.94425683 52.32373047 89.63037109 C49.21028423 85.79569865 45.84865554 82.19807674 42.4453125 78.62109375 C40 76 40 76 37.890625 73.35546875 C19.29037751 50.18201991 -13.64529602 35.1523259 -41.625 27.75 C-42.55449463 27.50362793 -43.48398926 27.25725586 -44.44165039 27.00341797 C-56.34711766 23.9829549 -67.9429735 22.66547455 -80.20092773 22.73925781 C-82.30026471 22.74993776 -84.39873627 22.73931383 -86.49804688 22.7265625 C-99.52951249 22.7117244 -112.36133463 23.93443349 -125 27.25 Z " fill="#88C7E3" transform="translate(340,62)"/>
<path d="M0 0 C0.74685059 0.31694824 1.49370117 0.63389648 2.26318359 0.96044922 C18.82621727 8.09694508 34.10977032 17.50814433 48 29 C48.57202148 29.47050781 49.14404297 29.94101563 49.73339844 30.42578125 C61.64620087 40.27837726 72.51822512 50.73325559 82 63 C82.41717285 63.53012695 82.8343457 64.06025391 83.26416016 64.60644531 C117.46099828 108.26791407 132.20614557 164.6462215 125.875 219.5625 C123.27792321 239.86285037 118.03741271 259.19468795 110 278 C109.68305176 278.74685059 109.36610352 279.49370117 109.03955078 280.26318359 C101.90305492 296.82621727 92.49185567 312.10977032 81 326 C80.52949219 326.57202148 80.05898438 327.14404297 79.57421875 327.73339844 C69.72162274 339.64620087 59.26674441 350.51822512 47 360 C46.46987305 360.41717285 45.93974609 360.8343457 45.39355469 361.26416016 C0.76657765 396.21721037 -56.26287766 410.27185086 -112.2043457 403.47827148 C-131.60641166 400.85089331 -150.01377581 395.68733358 -168 388 C-169.12027588 387.52457764 -169.12027588 387.52457764 -170.26318359 387.03955078 C-186.82621727 379.90305492 -202.10977032 370.49185567 -216 359 C-216.57202148 358.52949219 -217.14404297 358.05898438 -217.73339844 357.57421875 C-229.64620087 347.72162274 -240.51822512 337.26674441 -250 325 C-250.41717285 324.46987305 -250.8343457 323.93974609 -251.26416016 323.39355469 C-285.46099828 279.73208593 -300.20614557 223.3537785 -293.875 168.4375 C-291.27792321 148.13714963 -286.03741271 128.80531205 -278 110 C-277.68305176 109.25314941 -277.36610352 108.50629883 -277.03955078 107.73681641 C-269.90305492 91.17378273 -260.49185567 75.89022968 -249 62 C-248.52949219 61.42797852 -248.05898437 60.85595703 -247.57421875 60.26660156 C-237.72162274 48.35379913 -227.26674441 37.48177488 -215 28 C-214.46987305 27.58282715 -213.93974609 27.1656543 -213.39355469 26.73583984 C-153.16367042 -20.43782749 -70.01317006 -29.92371205 0 0 Z M-127 4 C-127.82866577 4.18501572 -128.65733154 4.37003143 -129.5111084 4.56065369 C-155.66522782 10.44390357 -180.26008555 22.2675289 -201.37597656 38.734375 C-202.81941824 39.85927002 -204.2796861 40.96249895 -205.7421875 42.0625 C-239.19408581 68.09194063 -263.05817265 105.80873604 -273.125 146.875 C-273.37636719 147.86113281 -273.62773437 148.84726563 -273.88671875 149.86328125 C-277.46891526 164.28584208 -278.40801407 178.07895459 -278.375 192.875 C-278.37412384 193.83120239 -278.37324768 194.78740479 -278.37234497 195.77258301 C-278.32872474 210.19412688 -277.73139125 223.99589847 -274 238 C-273.64591064 239.37961914 -273.64591064 239.37961914 -273.28466797 240.78710938 C-266.37509429 267.10674916 -254.98332003 291.69475982 -238 313 C-237.04480469 314.26070313 -237.04480469 314.26070313 -236.0703125 315.546875 C-225.3066728 329.36789096 -212.37894124 341.99267826 -198 352 C-197.41686035 352.4115332 -196.8337207 352.82306641 -196.23291016 353.24707031 C-174.64098096 368.42163729 -149.97962943 379.8399896 -124 385 C-122.70989014 385.25894043 -121.41978027 385.51788086 -120.09057617 385.78466797 C-109.84960675 387.72654655 -99.96105919 388.41958517 -89.5480957 388.28125 C-87.17057547 388.24977595 -84.7937251 388.24021883 -82.41601562 388.234375 C-70.56950291 388.17567579 -58.738465 387.92877388 -47.125 385.375 C-46.33456299 385.20242676 -45.54412598 385.02985352 -44.72973633 384.85205078 C-7.9262069 376.49881791 23.75913897 360.12669772 51 334 C51.8048584 333.23598877 51.8048584 333.23598877 52.62597656 332.45654297 C60.58667394 324.86746946 67.64657136 316.98040095 74 308 C74.41878418 307.40960938 74.83756836 306.81921875 75.26904297 306.2109375 C86.54895805 290.15168695 94.34943652 273.4574816 101 255 C101.26973633 254.25524414 101.53947266 253.51048828 101.81738281 252.74316406 C112.83127263 221.48994762 114.36900289 182.06180505 106 150 C105.79632813 149.1548584 105.59265625 148.3097168 105.3828125 147.43896484 C99.01538882 121.12912396 86.98543249 96.10030048 70 75 C69.36449219 74.16210938 68.72898437 73.32421875 68.07421875 72.4609375 C42.66618618 39.80051505 7.19548718 17.63846141 -32.3125 6.3125 C-33.29532959 6.02689209 -34.27815918 5.74128418 -35.29077148 5.44702148 C-50.66016868 1.18986426 -65.65413678 -0.52139584 -81.57592773 -0.44604492 C-84.30073881 -0.43753672 -87.02344062 -0.46644232 -89.74804688 -0.49804688 C-102.55677594 -0.54840216 -114.52683854 1.16629319 -127 4 Z " fill="#1E1E1D" transform="translate(340,62)"/>
<path d="M0 0 C3.79740362 2.71458948 6.98713881 6.0401586 10.24975586 9.35986328 C11.26410258 10.36635824 12.27994052 11.37135224 13.29714966 12.37495422 C16.05069515 15.10088438 18.7817365 17.84837307 21.50845408 20.60110712 C24.36576069 23.47987332 27.24052435 26.34111694 30.11268616 29.20504761 C34.93241545 34.01661961 39.73754926 38.84240761 44.53442383 43.67675781 C50.0801309 49.26541304 55.64871988 54.83044264 61.23004431 60.38351071 C66.59981657 65.72725032 71.95252767 71.08777478 77.29782295 76.45598984 C79.57254908 78.73981569 81.8531773 81.01749707 84.13877678 83.29043961 C86.82924754 85.96747129 89.50449479 88.65884541 92.16870499 91.36200523 C93.14874992 92.35158073 94.13393306 93.33609769 95.12454033 94.31509972 C96.475846 95.65225123 97.80691051 97.00976639 99.13682556 98.36819458 C99.88729125 99.12222124 100.63775694 99.8762479 101.41096401 100.65312386 C103.43225745 103.63840889 103.39356352 105.46325983 103 109 C101.81811523 110.96899414 101.81811523 110.96899414 100.12109375 112.72265625 C99.48026855 113.3995752 98.83944336 114.07649414 98.17919922 114.77392578 C97.46006348 115.50853027 96.74092773 116.24313477 96 117 C95.23316895 117.8235498 94.46633789 118.64709961 93.67626953 119.49560547 C91.17108209 122.17628066 88.62208322 124.80879075 86.0625 127.4375 C85.20720703 128.34693359 84.35191406 129.25636719 83.47070312 130.19335938 C82.62572266 131.05638672 81.78074219 131.91941406 80.91015625 132.80859375 C80.15871338 133.59032959 79.40727051 134.37206543 78.63305664 135.17749023 C75.90370713 137.06665056 73.60259484 138.26372128 70.24797058 138.50666809 C64.90411799 137.3022219 61.3032145 132.3474081 57.6640625 128.5078125 C56.69585714 127.52026379 55.72555604 126.5347658 54.75326538 125.55123901 C52.20538524 122.96343077 49.68526084 120.35020792 47.17053223 117.73022461 C44.10553592 114.54685035 41.00912446 111.39408578 37.91718102 108.23692131 C35.51343455 105.78133375 33.11471337 103.32142431 30.72988892 100.84744263 C29.87494843 99.96337738 29.02000793 99.07931213 28.13916016 98.16845703 C27.38607574 97.38600616 26.63299133 96.6035553 25.85708618 95.7973938 C24.11747559 93.93344953 24.11747559 93.93344953 22 93 C22.00368717 93.63960757 22.00737434 94.27921515 22.01117325 94.93820477 C22.09952379 110.50372529 22.16570923 126.06915856 22.20724869 141.63486767 C22.227871 149.1623504 22.25598505 156.68966573 22.30175781 164.21704102 C22.34163598 170.77817453 22.36743523 177.33918679 22.37635398 183.90043813 C22.38156716 187.37439789 22.39381246 190.8480108 22.42292023 194.32185936 C22.45515646 198.20056009 22.45595877 202.07892198 22.45410156 205.95776367 C22.46848267 207.10862961 22.48286377 208.25949554 22.49768066 209.44523621 C22.45722704 217.23367003 22.45722704 217.23367003 20.09661865 221.19013977 C16.08847742 224.65008009 12.30471203 224.19412861 7.23046875 224.23828125 C6.35731522 224.246353 5.48416168 224.25442474 4.58454895 224.26274109 C2.7343647 224.27658364 0.88415488 224.28730503 -0.96606445 224.29516602 C-3.79102197 224.3123692 -6.61480621 224.35625166 -9.43945312 224.40039062 C-11.23697056 224.41051847 -13.03449795 224.41903429 -14.83203125 224.42578125 C-15.67490189 224.44328934 -16.51777252 224.46079742 -17.38618469 224.47883606 C-21.45728486 224.46383565 -23.48762076 224.32364949 -27.01049805 222.09838867 C-29.98210007 218.96414896 -30.12451185 217.26673274 -30.12025452 213.05197144 C-30.12231651 211.48281479 -30.12231651 211.48281479 -30.12442017 209.88195801 C-30.11902725 208.15350647 -30.11902725 208.15350647 -30.11352539 206.39013672 C-30.11367142 205.18040192 -30.11381744 203.97066711 -30.1139679 202.72427368 C-30.11338956 199.40215979 -30.10836555 196.08010763 -30.10139394 192.75800467 C-30.09515338 189.28798192 -30.09455604 185.8179584 -30.09336853 182.34793091 C-30.09025729 175.77478602 -30.08204669 169.20165771 -30.07201904 162.62852013 C-30.06085148 155.14615166 -30.05534583 147.66378241 -30.05032361 140.18140769 C-30.03986391 124.78759551 -30.02226847 109.39379989 -30 94 C-36.26426468 99.40726003 -36.26426468 99.40726003 -42.19360352 105.17529297 C-43.26995811 106.28081009 -43.26995811 106.28081009 -44.36805725 107.40866089 C-45.11413742 108.17872467 -45.86021759 108.94878845 -46.62890625 109.7421875 C-48.25640617 111.40178269 -49.88468438 113.06061493 -51.51367188 114.71875 C-54.05108447 117.30570315 -56.58356228 119.89676861 -59.10327148 122.50097656 C-61.55639357 125.03277159 -64.02817599 127.54502157 -66.50390625 130.0546875 C-67.25201065 130.83689667 -68.00011505 131.61910583 -68.77088928 132.42501831 C-74.67400613 138.35854965 -74.67400613 138.35854965 -78.89111328 139.07397461 C-82.69697087 138.98341588 -83.64707229 138.35292771 -86.3125 135.6875 C-87.55773437 134.46933594 -87.55773437 134.46933594 -88.828125 133.2265625 C-89.30830078 132.73704102 -89.78847656 132.24751953 -90.28320312 131.74316406 C-92.36899028 129.62534264 -94.48916888 127.54429282 -96.609375 125.4609375 C-99.85522742 122.25619215 -103.09651182 119.04724921 -106.31640625 115.81640625 C-107.00162354 115.13006104 -107.68684082 114.44371582 -108.39282227 113.73657227 C-110.81405258 111.12040772 -111.68303085 108.7217215 -111.60439682 105.11170578 C-110.14677878 100.01892512 -105.36426282 96.4595676 -101.66845703 92.85791016 C-100.66529155 91.85508229 -99.66366026 90.85071772 -98.66345215 89.84494019 C-95.94756162 87.12277518 -93.21055453 84.42278806 -90.46909571 81.72640657 C-87.60437243 78.9017579 -84.75910977 76.05763988 -81.91159058 73.21566772 C-77.12935225 68.44813753 -72.3346227 63.69349203 -67.53076172 58.94775391 C-60.75083067 52.24981437 -53.99379856 45.52913702 -47.24117494 38.80368352 C-42.00102034 33.58615238 -36.7550916 28.37442728 -31.5078125 23.1640625 C-30.66222519 22.32433356 -30.66222519 22.32433356 -29.7995553 21.4676404 C-26.56287217 18.25426446 -23.323241 15.04391164 -20.0791626 11.83800125 C-19.09550388 10.86527829 -18.11266794 9.89172251 -17.13070297 8.91728973 C-15.7937435 7.59099159 -14.45337842 6.26812902 -13.11282349 4.94546509 C-12.362484 4.20329554 -11.61214451 3.46112598 -10.83906746 2.69646645 C-7.58152585 -0.30848588 -4.28184994 -1.22512176 0 0 Z " fill="#1F1F1E" transform="translate(260,114)"/>
<path d="M0 0 C3.15227151 1.39636521 5.27940382 3.03170975 7.70794678 5.46743774 C8.42864853 6.18539017 9.14935028 6.90334259 9.89189148 7.64305115 C10.67232315 8.43067337 11.45275482 9.21829559 12.25683594 10.02978516 C13.50129234 11.27380348 13.50129234 11.27380348 14.77088928 12.54295349 C17.51348464 15.28694281 20.2489268 18.03794973 22.984375 20.7890625 C24.88338767 22.69291568 26.7839031 24.59526595 28.68438721 26.49765015 C33.17547851 30.99495491 37.66144767 35.49733311 42.14559674 40.00155866 C47.25167538 45.13000044 52.36344159 50.25275698 57.47569227 55.37504506 C67.99013346 65.91038522 78.49741465 76.45283982 89 87 C87.32867581 90.54023647 85.36660667 92.99347254 82.625 95.8125 C81.85414063 96.62332031 81.08328125 97.43414062 80.2890625 98.26953125 C78 100 78 100 76.17822266 99.91333008 C73.04308822 98.59876631 71.22876889 96.54523823 68.859375 94.1171875 C68.37349915 93.62469513 67.88762329 93.13220276 67.38702393 92.62478638 C65.83407329 91.04847772 64.29159761 89.46240674 62.75 87.875 C60.72786071 85.80604303 58.70128782 83.74150929 56.671875 81.6796875 C56.17743393 81.17633881 55.68299286 80.67299011 55.17356873 80.15438843 C51.91251246 76.85712583 48.5269022 73.79492078 44.99755859 70.79248047 C42.57945862 68.62263325 40.34240462 66.3176804 38.08984375 63.9765625 C37.24486328 63.10128906 36.39988281 62.22601563 35.52929688 61.32421875 C33.78782456 59.51056785 32.05615627 57.68745656 30.33398438 55.85546875 C25.5007518 50.54545546 25.5007518 50.54545546 19.12890625 47.7109375 C15.59057659 48.03782438 14.48387022 48.51962841 12 51 C11.39252859 53.61453828 11.39252859 53.61453828 11.48101807 56.63774109 C11.46014885 58.3982782 11.46014885 58.3982782 11.43885803 60.19438171 C11.44640358 62.12783195 11.44640358 62.12783195 11.45410156 64.1003418 C11.44536831 65.47023698 11.4348834 66.84012195 11.42277527 68.20999146 C11.39486353 71.93085035 11.3915117 75.65137726 11.39249516 79.37232566 C11.38937045 83.2601594 11.36376156 87.14784264 11.34051514 91.03559875 C11.29991748 98.39847643 11.27960564 105.76126545 11.26654124 113.12423784 C11.25068389 121.50633154 11.21227368 129.8882741 11.17194796 138.27028024 C11.08949752 155.51347893 11.03623763 172.75664448 11 190 C4.4 190 -2.2 190 -9 190 C-9.00586624 188.26525925 -9.01173248 186.53051849 -9.01777649 184.74320984 C-9.07489935 168.42384386 -9.14742734 152.10461561 -9.23571491 135.78538799 C-9.28071099 127.39477988 -9.32011677 119.00421458 -9.34643555 110.61352539 C-9.36938486 103.30155165 -9.40274828 95.98971296 -9.44870156 88.67784625 C-9.4726754 84.80501814 -9.49137679 80.93232411 -9.49761391 77.05942345 C-9.5036461 73.41583349 -9.52357752 69.77258677 -9.55427551 66.12912369 C-9.56729412 64.15091692 -9.56548071 62.17263009 -9.5632782 60.19438171 C-9.57581635 59.02069031 -9.58835449 57.8469989 -9.60127258 56.63774109 C-9.60588155 55.61547267 -9.61049051 54.59320425 -9.61523914 53.539958 C-10.0602955 50.60196566 -10.64387383 49.74654182 -13 48 C-15.71189454 46.64335722 -15.71189454 46.64335722 -19 47 C-26.00418818 51.82463164 -31.86763733 58.73735543 -37.84375 64.74609375 C-38.86342709 65.76764047 -39.88332856 66.78896326 -40.90344238 67.81007385 C-43.56225061 70.47266437 -46.21803958 73.13824599 -48.87316895 75.80450439 C-51.59328393 78.53492671 -54.31630185 81.26245074 -57.0390625 83.99023438 C-62.36218863 89.324022 -67.68212218 94.66097916 -73 100 C-76.66458551 98.2766912 -79.2627463 96.12641789 -82.25 93.375 C-83.14203125 92.55773437 -84.0340625 91.74046875 -84.953125 90.8984375 C-85.62859375 90.27195312 -86.3040625 89.64546875 -87 89 C-85.60363479 85.84772849 -83.96829025 83.72059618 -81.53256226 81.29205322 C-80.81460983 80.57135147 -80.09665741 79.85064972 -79.35694885 79.10810852 C-78.56932663 78.32767685 -77.78170441 77.54724518 -76.97021484 76.74316406 C-75.72619652 75.49870766 -75.72619652 75.49870766 -74.45704651 74.22911072 C-71.71305719 71.48651536 -68.96205027 68.7510732 -66.2109375 66.015625 C-64.30708432 64.11661233 -62.40473405 62.2160969 -60.50234985 60.31561279 C-56.00504509 55.82452149 -51.50266689 51.33855233 -46.99844134 46.85440326 C-41.86999956 41.74832462 -36.74724302 36.63655841 -31.62495494 31.52430773 C-21.08961478 21.00986654 -10.54716018 10.50258535 0 0 Z " fill="#F8F8F8" transform="translate(255,132)"/>
<path d="M0 0 C0.89110474 -0.00241196 1.78220947 -0.00482391 2.70031738 -0.00730896 C4.57971661 -0.00633178 6.45914507 0.00703114 8.33837891 0.03198242 C11.2096568 0.06629758 14.07785638 0.05263414 16.94921875 0.03320312 C18.77865889 0.04010187 20.60809111 0.04977452 22.4375 0.0625 C23.72049988 0.0550602 23.72049988 0.0550602 25.02941895 0.04747009 C29.10987071 0.12780903 31.21193091 0.30804384 34.73632812 2.53930664 C38.41283505 6.41458038 37.89573657 10.09288304 37.921875 15.1796875 C37.92757507 16.03064499 37.93327515 16.88160248 37.93914795 17.75834656 C37.94860298 19.56145991 37.95513392 21.36459058 37.95898438 23.16772461 C37.96867487 25.92006823 37.99968675 28.67166033 38.03125 31.42382812 C38.03778163 33.17577682 38.04303147 34.92773085 38.046875 36.6796875 C38.0592218 37.50068436 38.0715686 38.32168121 38.08428955 39.16755676 C38.06628929 43.80978109 37.73807262 46.8593472 34.71875 50.62890625 C32.46103524 51.75776363 31.20558453 51.76658829 28.69970703 51.79003906 C27.87189728 51.79964661 27.04408752 51.80925415 26.19119263 51.81915283 C25.29536469 51.82340271 24.39953674 51.82765259 23.4765625 51.83203125 C22.5566452 51.83773132 21.63672791 51.8434314 20.68893433 51.8493042 C18.74038851 51.85875965 16.79182667 51.86529034 14.84326172 51.86914062 C11.86267176 51.87884465 8.88277173 51.90986211 5.90234375 51.94140625 C4.01042077 51.94793641 2.11849285 51.95318683 0.2265625 51.95703125 C-0.66521698 51.96937805 -1.55699646 51.98172485 -2.47579956 51.9944458 C-8.6290406 51.97230676 -8.6290406 51.97230676 -11.81298828 50.29589844 C-16.33017 45.16731234 -14.58931165 35.10979967 -14.63134766 28.58740234 C-14.64791885 26.70186022 -14.6752243 24.81638122 -14.71337891 22.93115234 C-14.76818198 20.20767761 -14.79002386 17.48567076 -14.8046875 14.76171875 C-14.82735687 13.92198517 -14.85002625 13.08225159 -14.87338257 12.21707153 C-14.85866522 8.13360632 -14.58657033 6.10292007 -12.32861328 2.59741211 C-8.13738821 -0.10999437 -4.89455343 -0.07586869 0 0 Z " fill="#1F1F1F" transform="translate(244.28125,347.37109375)"/>
<path d="M0 0 C6.6 0 13.2 0 20 0 C20 6.27 20 12.54 20 19 C13.4 19 6.8 19 0 19 C0 12.73 0 6.46 0 0 Z " fill="#F6F6F5" transform="translate(246,364)"/>
</svg>
